<svg version="1.1" xmlns="http://www.w3.org/2000/svg" viewBox="0 0 2031.4285714285716 718.7142857142858" width="2031.4285714285716" height="718.7142857142858" filter="invert(93%) hue-rotate(180deg)">
  <!-- svg-source:excalidraw -->
  
  <defs>
    <style class="style-fonts">
      @font-face {
        font-family: "Virgil";
        src: url("https://excalidraw.com/Virgil.woff2");
      }
      @font-face {
        font-family: "Cascadia";
        src: url("https://excalidraw.com/Cascadia.woff2");
      }
    </style>
  </defs>
  <rect x="0" y="0" width="2031.4285714285716" height="718.7142857142858" fill="#ffffff"></rect><g stroke-linecap="round" transform="translate(10 12.214285714285722) rotate(0 191 44)"><path d="M0 0 C139.21 0, 278.42 0, 382 0 M0 0 C126.32 0, 252.64 0, 382 0 M382 0 C382 31.24, 382 62.48, 382 88 M382 0 C382 30.32, 382 60.65, 382 88 M382 88 C283.28 88, 184.55 88, 0 88 M382 88 C268.7 88, 155.4 88, 0 88 M0 88 C0 55.36, 0 22.72, 0 0 M0 88 C0 56.29, 0 24.58, 0 0" stroke="#000000" stroke-width="1" fill="none"></path></g><g transform="translate(155.5 44.71428571428572) rotate(0 45.5 11.5)"><text x="45.5" y="19" font-family="Helvetica, Segoe UI Emoji" font-size="20px" fill="#000000" text-anchor="middle" style="white-space: pre;" direction="ltr">API Client</text></g><g stroke-linecap="round"><g transform="translate(200 100.21428571428572) rotate(0 0.5 302.5)"><path d="M0 0 C0.17 100.83, 0.83 504.17, 1 605 M0 0 C0.17 100.83, 0.83 504.17, 1 605" stroke="#000000" stroke-width="1" fill="none"></path></g></g><g stroke-linecap="round" transform="translate(518.8571428571428 10) rotate(0 190.99999999999994 44)"><path d="M0 0 C116.24 0, 232.47 0, 382 0 M0 0 C79.01 0, 158.01 0, 382 0 M382 0 C382 29.43, 382 58.85, 382 88 M382 0 C382 25.41, 382 50.82, 382 88 M382 88 C302.01 88, 222.02 88, 0 88 M382 88 C247.71 88, 113.42 88, 0 88 M0 88 C0 56.65, 0 25.29, 0 0 M0 88 C0 58.11, 0 28.22, 0 0" stroke="#000000" stroke-width="1" fill="none"></path></g><g transform="translate(669.3571428571427 42.5) rotate(0 40.5 11.5)"><text x="40.5" y="19" font-family="Helvetica, Segoe UI Emoji" font-size="20px" fill="#000000" text-anchor="middle" style="white-space: pre;" direction="ltr">Gateway</text></g><g stroke-linecap="round"><g transform="translate(708.8571428571429 98) rotate(0 0.5 302.5)"><path d="M0 0 C0.17 100.83, 0.83 504.17, 1 605 M0 0 C0.17 100.83, 0.83 504.17, 1 605" stroke="#000000" stroke-width="1" fill="none"></path></g></g><g stroke-linecap="round" transform="translate(1024.5714285714282 12.857142857142946) rotate(0 191 44)"><path d="M0 0 C148.76 0, 297.52 0, 382 0 M0 0 C85.36 0, 170.72 0, 382 0 M382 0 C382 32.28, 382 64.56, 382 88 M382 0 C382 22.59, 382 45.18, 382 88 M382 88 C267.44 88, 152.89 88, 0 88 M382 88 C268.01 88, 154.03 88, 0 88 M0 88 C0 58.37, 0 28.74, 0 0 M0 88 C0 64.78, 0 41.55, 0 0" stroke="#000000" stroke-width="1" fill="none"></path></g><g transform="translate(1159.5714285714282 45.35714285714295) rotate(0 56 11.5)"><text x="56" y="19" font-family="Helvetica, Segoe UI Emoji" font-size="20px" fill="#000000" text-anchor="middle" style="white-space: pre;" direction="ltr">Auth service</text></g><g stroke-linecap="round"><g transform="translate(1214.5714285714282 100.85714285714295) rotate(0 0.5 302.5)"><path d="M0 0 C0.17 100.83, 0.83 504.17, 1 605 M0 0 C0.17 100.83, 0.83 504.17, 1 605" stroke="#000000" stroke-width="1" fill="none"></path></g></g><g stroke-linecap="round" transform="translate(1553.1428571428569 15.714285714285694) rotate(0 191 44.000000000000014)"><path d="M0 0 C133.91 0, 267.81 0, 382 0 M0 0 C93.34 0, 186.67 0, 382 0 M382 0 C382 19.99, 382 39.98, 382 88 M382 0 C382 30.93, 382 61.85, 382 88 M382 88 C257.54 88, 133.08 88, 0 88 M382 88 C246.12 88, 110.23 88, 0 88 M0 88 C0 64.42, 0 40.85, 0 0 M0 88 C0 57.68, 0 27.36, 0 0" stroke="#000000" stroke-width="1" fill="none"></path></g><g transform="translate(1700.1428571428569 48.214285714285694) rotate(0 44 11.5)"><text x="44" y="19" font-family="Helvetica, Segoe UI Emoji" font-size="20px" fill="#000000" text-anchor="middle" style="white-space: pre;" direction="ltr">Resource</text></g><g stroke-linecap="round"><g transform="translate(1743.1428571428569 103.71428571428572) rotate(0 0.5 302.5)"><path d="M0 0 C0.17 100.83, 0.83 504.17, 1 605 M0 0 C0.17 100.83, 0.83 504.17, 1 605" stroke="#000000" stroke-width="1" fill="none"></path></g></g><g stroke-linecap="round"><g transform="translate(199.8571428571429 154.92857142857144) rotate(0 506.42857142857133 2.142857142857139)"><path d="M0 0 C168.81 0.71, 844.05 3.57, 1012.86 4.29 M0 0 C168.81 0.71, 844.05 3.57, 1012.86 4.29" stroke="#000000" stroke-width="1" fill="none"></path></g><g transform="translate(199.8571428571429 154.92857142857144) rotate(0 506.42857142857133 2.142857142857139)"><path d="M984.62 14.43 C990.59 12.28, 996.55 10.14, 1012.86 4.29 M984.62 14.43 C994.5 10.88, 1004.38 7.33, 1012.86 4.29" stroke="#000000" stroke-width="1" fill="none"></path></g><g transform="translate(199.8571428571429 154.92857142857144) rotate(0 506.42857142857133 2.142857142857139)"><path d="M984.71 -6.09 C990.66 -3.9, 996.6 -1.71, 1012.86 4.29 M984.71 -6.09 C994.56 -2.46, 1004.4 1.17, 1012.86 4.29" stroke="#000000" stroke-width="1" fill="none"></path></g></g><g transform="translate(295.57142857142856 125.42857142857144) rotate(0 36.5 11.5)"><text x="0" y="19" font-family="Helvetica, Segoe UI Emoji" font-size="20px" fill="#000000" text-anchor="start" style="white-space: pre;" direction="ltr">1. Login</text></g><g stroke-linecap="round"><g transform="translate(1214.142857142857 239.3571428571429) rotate(0 -505.7142857142857 -1.4285714285714448)"><path d="M0 0 C-168.57 -0.48, -842.86 -2.38, -1011.43 -2.86 M0 0 C-168.57 -0.48, -842.86 -2.38, -1011.43 -2.86" stroke="#000000" stroke-width="1" fill="none"></path></g><g transform="translate(1214.142857142857 239.3571428571429) rotate(0 -505.7142857142857 -1.4285714285714448)"><path d="M-983.21 -13.04 C-992.59 -9.65, -1001.98 -6.27, -1011.43 -2.86 M-983.21 -13.04 C-992.03 -9.85, -1000.85 -6.67, -1011.43 -2.86" stroke="#000000" stroke-width="1" fill="none"></path></g><g transform="translate(1214.142857142857 239.3571428571429) rotate(0 -505.7142857142857 -1.4285714285714448)"><path d="M-983.27 7.48 C-992.63 4.04, -1002 0.61, -1011.43 -2.86 M-983.27 7.48 C-992.07 4.25, -1000.88 1.02, -1011.43 -2.86" stroke="#000000" stroke-width="1" fill="none"></path></g></g><g transform="translate(944.1428571428571 205.5714285714286) rotate(0 100.5 11.5)"><text x="0" y="19" font-family="Helvetica, Segoe UI Emoji" font-size="20px" fill="#000000" text-anchor="start" style="white-space: pre;" direction="ltr">2. Log and return JWT</text></g><g stroke-linecap="round"><g transform="translate(199.85714285714278 337.92857142857144) rotate(0 253.57142857142873 -2.842170943040401e-14)"><path d="M0 0 C84.52 0, 422.62 0, 507.14 0 M0 0 C84.52 0, 422.62 0, 507.14 0" stroke="#000000" stroke-width="1" fill="none"></path></g><g transform="translate(199.85714285714278 337.92857142857144) rotate(0 253.57142857142873 -2.842170943040401e-14)"><path d="M478.95 10.26 C489.32 6.49, 499.68 2.72, 507.14 0 M478.95 10.26 C487.39 7.19, 495.83 4.12, 507.14 0" stroke="#000000" stroke-width="1" fill="none"></path></g><g transform="translate(199.85714285714278 337.92857142857144) rotate(0 253.57142857142873 -2.842170943040401e-14)"><path d="M478.95 -10.26 C489.32 -6.49, 499.68 -2.72, 507.14 0 M478.95 -10.26 C487.39 -7.19, 495.83 -4.12, 507.14 0" stroke="#000000" stroke-width="1" fill="none"></path></g></g><g transform="translate(258.42857142857144 308.4285714285715) rotate(0 86.5 11.5)"><text x="0" y="19" font-family="Helvetica, Segoe UI Emoji" font-size="20px" fill="#000000" text-anchor="start" style="white-space: pre;" direction="ltr">3. Get car resource</text></g><g stroke-linecap="round"><g transform="translate(708.4285714285711 337.92857142857144) rotate(0 27.65080594534959 47.18856167714674)"><path d="M0 0 C7.44 0.88, 35.46 -2.59, 44.63 5.27 C53.79 13.13, 54.51 33.15, 55 47.14 C55.49 61.13, 56.49 81.35, 47.56 89.21 C38.63 97.07, 9.12 93.44, 1.43 94.29 M0 0 C7.44 0.88, 35.46 -2.59, 44.63 5.27 C53.79 13.13, 54.51 33.15, 55 47.14 C55.49 61.13, 56.49 81.35, 47.56 89.21 C38.63 97.07, 9.12 93.44, 1.43 94.29" stroke="#000000" stroke-width="1" fill="none"></path></g><g transform="translate(708.4285714285711 337.92857142857144) rotate(0 27.65080594534959 47.18856167714674)"><path d="M23.24 86.38 C17.72 88.38, 12.19 90.38, 1.43 94.29 M23.24 86.38 C16.89 88.68, 10.54 90.98, 1.43 94.29" stroke="#000000" stroke-width="1" fill="none"></path></g><g transform="translate(708.4285714285711 337.92857142857144) rotate(0 27.65080594534959 47.18856167714674)"><path d="M23.22 102.25 C17.7 100.23, 12.18 98.22, 1.43 94.29 M23.22 102.25 C16.88 99.93, 10.53 97.61, 1.43 94.29" stroke="#000000" stroke-width="1" fill="none"></path></g></g><g transform="translate(771.2857142857142 365.5714285714286) rotate(0 71 11.5)"><text x="0" y="19" font-family="Helvetica, Segoe UI Emoji" font-size="20px" fill="#000000" text-anchor="start" style="white-space: pre;" direction="ltr">4. Validate JWT</text></g><g stroke-linecap="round"><g transform="translate(711.2857142857142 472.0714285714286) rotate(0 515.0000000000001 2.142857142857167)"><path d="M0 0 C171.67 0.71, 858.33 3.57, 1030 4.29 M0 0 C171.67 0.71, 858.33 3.57, 1030 4.29" stroke="#000000" stroke-width="1" fill="none"></path></g><g transform="translate(711.2857142857142 472.0714285714286) rotate(0 515.0000000000001 2.142857142857167)"><path d="M1001.77 14.43 C1012.63 10.53, 1023.49 6.62, 1030 4.29 M1001.77 14.43 C1007.85 12.24, 1013.93 10.06, 1030 4.29" stroke="#000000" stroke-width="1" fill="none"></path></g><g transform="translate(711.2857142857142 472.0714285714286) rotate(0 515.0000000000001 2.142857142857167)"><path d="M1001.85 -6.09 C1012.68 -2.1, 1023.51 1.89, 1030 4.29 M1001.85 -6.09 C1007.92 -3.86, 1013.98 -1.62, 1030 4.29" stroke="#000000" stroke-width="1" fill="none"></path></g></g><g transform="translate(776.9999999999998 442.71428571428584) rotate(0 127.5 11.5)"><text x="0" y="19" font-family="Helvetica, Segoe UI Emoji" font-size="20px" fill="#000000" text-anchor="start" style="white-space: pre;" direction="ltr">5. Permit access to resource</text></g><g stroke-linecap="round"><g transform="translate(1749.142857142857 476.50000000000006) rotate(0 33.77587020100884 47.14285714285711)"><path d="M0 0 C9.05 1.71, 42.98 2.17, 54.29 10.27 C65.6 18.36, 66.85 36.09, 67.86 48.57 C68.87 61.05, 71.91 77.52, 60.36 85.14 C48.81 92.76, 8.87 92.76, -1.43 94.29 M0 0 C9.05 1.71, 42.98 2.17, 54.29 10.27 C65.6 18.36, 66.85 36.09, 67.86 48.57 C68.87 61.05, 71.91 77.52, 60.36 85.14 C48.81 92.76, 8.87 92.76, -1.43 94.29" stroke="#000000" stroke-width="1" fill="none"></path></g><g transform="translate(1749.142857142857 476.50000000000006) rotate(0 33.77587020100884 47.14285714285711)"><path d="M25.89 81.89 C19.04 85, 12.19 88.11, -1.43 94.29 M25.89 81.89 C19.23 84.91, 12.58 87.93, -1.43 94.29" stroke="#000000" stroke-width="1" fill="none"></path></g><g transform="translate(1749.142857142857 476.50000000000006) rotate(0 33.77587020100884 47.14285714285711)"><path d="M27.47 102.35 C20.22 100.33, 12.98 98.31, -1.43 94.29 M27.47 102.35 C20.42 100.39, 13.38 98.42, -1.43 94.29" stroke="#000000" stroke-width="1" fill="none"></path></g></g><g transform="translate(1828.4285714285716 511.2857142857143) rotate(0 96.5 11.5)"><text x="0" y="19" font-family="Helvetica, Segoe UI Emoji" font-size="20px" fill="#000000" text-anchor="start" style="white-space: pre;" direction="ltr">6. Validate authorities</text></g><g stroke-linecap="round"><g transform="translate(1743.4923702835329 574.2142857142858) rotate(0 -771.4285714285713 -0.7142857142857224)"><path d="M0 0 C-257.14 -0.24, -1285.71 -1.19, -1542.86 -1.43 M0 0 C-257.14 -0.24, -1285.71 -1.19, -1542.86 -1.43" stroke="#000000" stroke-width="1" fill="none"></path></g><g transform="translate(1743.4923702835329 574.2142857142858) rotate(0 -771.4285714285713 -0.7142857142857224)"><path d="M-1514.66 -11.66 C-1522.86 -8.69, -1531.06 -5.71, -1542.86 -1.43 M-1514.66 -11.66 C-1523.64 -8.4, -1532.63 -5.14, -1542.86 -1.43" stroke="#000000" stroke-width="1" fill="none"></path></g><g transform="translate(1743.4923702835329 574.2142857142858) rotate(0 -771.4285714285713 -0.7142857142857224)"><path d="M-1514.68 8.86 C-1522.87 5.87, -1531.07 2.88, -1542.86 -1.43 M-1514.68 8.86 C-1523.66 5.58, -1532.63 2.3, -1542.86 -1.43" stroke="#000000" stroke-width="1" fill="none"></path></g></g><g transform="translate(1272.0637988549615 540.4285714285716) rotate(0 84 11.5)"><text x="0" y="19" font-family="Helvetica, Segoe UI Emoji" font-size="20px" fill="#000000" text-anchor="start" style="white-space: pre;" direction="ltr">7. Return resource</text></g></svg>