<svg version="1.1" xmlns="http://www.w3.org/2000/svg" viewBox="0 0 1066 596.5" width="1066" height="596.5" filter="invert(93%) hue-rotate(180deg)">
  <!-- svg-source:excalidraw -->
  
  <defs>
    <style class="style-fonts">
      @font-face {
        font-family: "Virgil";
        src: url("https://excalidraw.com/Virgil.woff2");
      }
      @font-face {
        font-family: "Cascadia";
        src: url("https://excalidraw.com/Cascadia.woff2");
      }
    </style>
  </defs>
  <rect x="0" y="0" width="1066" height="596.5" fill="#ffffff"></rect><g stroke-linecap="round" transform="translate(687 10) rotate(0 168 51.5)"><path d="M6.2 6.71 C6.2 6.71, 6.2 6.71, 6.2 6.71 M6.2 6.71 C6.2 6.71, 6.2 6.71, 6.2 6.71 M3.31 16.13 C6.15 12.86, 8.99 9.6, 15.12 2.54 M3.31 16.13 C7.91 10.84, 12.51 5.55, 15.12 2.54 M3.05 22.53 C8.32 16.47, 13.58 10.41, 21.42 1.4 M3.05 22.53 C9.99 14.55, 16.93 6.56, 21.42 1.4 M3.45 28.17 C9.43 21.29, 15.41 14.41, 27.06 1 M3.45 28.17 C10.31 20.27, 17.18 12.37, 27.06 1 M3.18 34.57 C13.18 23.07, 23.17 11.57, 32.05 1.36 M3.18 34.57 C10.38 26.29, 17.58 18.01, 32.05 1.36 M3.58 40.21 C16.08 25.83, 28.59 11.44, 37.69 0.97 M3.58 40.21 C14.06 28.15, 24.55 16.09, 37.69 0.97 M3.32 46.61 C11.34 37.38, 19.37 28.14, 42.68 1.33 M3.32 46.61 C13.47 34.93, 23.62 23.26, 42.68 1.33 M3.06 53.01 C18.03 35.78, 33.01 18.54, 48.32 0.93 M3.06 53.01 C13.9 40.54, 24.73 28.07, 48.32 0.93 M3.45 58.65 C18.22 41.65, 33 24.66, 53.31 1.29 M3.45 58.65 C20.53 39, 37.61 19.36, 53.31 1.29 M3.19 65.05 C15.4 51, 27.62 36.94, 58.95 0.9 M3.19 65.05 C15.2 51.23, 27.2 37.42, 58.95 0.9 M3.58 70.69 C20.6 51.11, 37.62 31.54, 63.94 1.26 M3.58 70.69 C19.91 51.91, 36.24 33.12, 63.94 1.26 M3.32 77.09 C18.26 59.9, 33.2 42.72, 69.58 0.86 M3.32 77.09 C22.62 54.89, 41.92 32.69, 69.58 0.86 M1.75 85 C19.32 64.78, 36.9 44.56, 74.57 1.22 M1.75 85 C19.03 65.12, 36.31 45.24, 74.57 1.22 M2.8 89.88 C23.43 66.15, 44.06 42.42, 80.21 0.83 M2.8 89.88 C22.27 67.48, 41.75 45.08, 80.21 0.83 M4.51 94.02 C26.83 68.33, 49.16 42.65, 85.2 1.19 M4.51 94.02 C25.99 69.3, 47.47 44.59, 85.2 1.19 M6.87 97.4 C38.81 60.65, 70.75 23.91, 90.84 0.79 M6.87 97.4 C24.41 77.22, 41.95 57.04, 90.84 0.79 M10.54 99.27 C37.17 68.63, 63.8 38, 95.83 1.15 M10.54 99.27 C28.37 78.76, 46.19 58.26, 95.83 1.15 M14.22 101.14 C42.77 68.29, 71.31 35.45, 101.47 0.76 M14.22 101.14 C32.01 80.67, 49.8 60.2, 101.47 0.76 M17.24 103.76 C43.47 73.59, 69.69 43.42, 106.46 1.12 M17.24 103.76 C48.05 68.32, 78.85 32.88, 106.46 1.12 M22.22 104.12 C57.18 63.91, 92.14 23.69, 112.1 0.72 M22.22 104.12 C40.68 82.89, 59.14 61.65, 112.1 0.72 M27.21 104.48 C62.25 64.17, 97.29 23.87, 117.09 1.09 M27.21 104.48 C61.64 64.88, 96.06 25.28, 117.09 1.09 M32.85 104.09 C65.82 66.16, 98.79 28.24, 122.08 1.45 M32.85 104.09 C60.53 72.25, 88.21 40.41, 122.08 1.45 M37.84 104.45 C72.86 64.16, 107.88 23.88, 127.72 1.05 M37.84 104.45 C61.04 77.76, 84.24 51.07, 127.72 1.05 M43.48 104.05 C78.69 63.55, 113.89 23.06, 132.71 1.41 M43.48 104.05 C74.13 68.79, 104.78 33.54, 132.71 1.41 M48.47 104.41 C75.88 72.88, 103.3 41.34, 138.35 1.02 M48.47 104.41 C78.56 69.8, 108.65 35.19, 138.35 1.02 M54.11 104.02 C81.93 72.02, 109.75 40.02, 143.34 1.38 M54.11 104.02 C77.17 77.5, 100.22 50.97, 143.34 1.38 M59.1 104.38 C92.31 66.17, 125.53 27.96, 148.98 0.98 M59.1 104.38 C77.54 83.17, 95.98 61.96, 148.98 0.98 M64.09 104.74 C90.21 74.69, 116.32 44.65, 153.97 1.34 M64.09 104.74 C94.31 69.98, 124.52 35.21, 153.97 1.34 M69.73 104.34 C91.18 79.67, 112.62 55, 159.61 0.95 M69.73 104.34 C95.76 74.4, 121.79 44.45, 159.61 0.95 M74.72 104.7 C94.7 81.71, 114.69 58.72, 164.6 1.31 M74.72 104.7 C109.44 64.76, 144.17 24.81, 164.6 1.31 M80.36 104.31 C115.37 64.03, 150.38 23.76, 170.24 0.91 M80.36 104.31 C101.63 79.84, 122.91 55.37, 170.24 0.91 M85.35 104.67 C114.14 71.54, 142.94 38.42, 175.23 1.27 M85.35 104.67 C116.48 68.86, 147.61 33.04, 175.23 1.27 M90.99 104.27 C119.89 71.03, 148.78 37.79, 180.87 0.88 M90.99 104.27 C120.02 70.88, 149.04 37.49, 180.87 0.88 M95.98 104.63 C124.71 71.58, 153.44 38.53, 185.86 1.24 M95.98 104.63 C121.32 75.48, 146.66 46.33, 185.86 1.24 M101.62 104.24 C133.58 67.48, 165.53 30.72, 191.5 0.84 M101.62 104.24 C124.38 78.06, 147.13 51.89, 191.5 0.84 M106.61 104.6 C131.53 75.93, 156.45 47.26, 196.49 1.2 M106.61 104.6 C141.38 64.6, 176.15 24.6, 196.49 1.2 M112.25 104.2 C133.33 79.96, 154.41 55.71, 202.13 0.81 M112.25 104.2 C144.62 66.96, 177 29.72, 202.13 0.81 M117.24 104.56 C150.68 66.1, 184.11 27.64, 207.12 1.17 M117.24 104.56 C151.67 64.95, 186.1 25.34, 207.12 1.17 M122.88 104.17 C151.94 70.74, 181 37.31, 212.76 0.77 M122.88 104.17 C141.3 82.98, 159.73 61.78, 212.76 0.77 M127.87 104.53 C155.25 73.03, 182.63 41.53, 217.75 1.13 M127.87 104.53 C156.69 71.38, 185.51 38.23, 217.75 1.13 M133.51 104.14 C152.26 82.57, 171 61.01, 223.39 0.74 M133.51 104.14 C167.37 65.19, 201.22 26.24, 223.39 0.74 M138.5 104.5 C165.26 73.71, 192.03 42.92, 228.38 1.1 M138.5 104.5 C172.44 65.45, 206.39 26.4, 228.38 1.1 M144.14 104.1 C171 73.2, 197.86 42.31, 234.02 0.71 M144.14 104.1 C170.43 73.86, 196.72 43.61, 234.02 0.71 M149.13 104.46 C175.72 73.87, 202.32 43.28, 239.01 1.07 M149.13 104.46 C172.54 77.52, 195.96 50.59, 239.01 1.07 M154.77 104.07 C174.8 81.03, 194.83 57.98, 244 1.43 M154.77 104.07 C190.27 63.23, 225.77 22.4, 244 1.43 M159.76 104.43 C192.59 66.66, 225.43 28.89, 249.64 1.03 M159.76 104.43 C178.06 83.38, 196.36 62.33, 249.64 1.03 M165.4 104.03 C186.63 79.62, 207.85 55.2, 254.63 1.39 M165.4 104.03 C198.07 66.45, 230.74 28.87, 254.63 1.39 M170.39 104.39 C196.84 73.96, 223.29 43.53, 260.27 1 M170.39 104.39 C203.59 66.2, 236.8 28, 260.27 1 M176.03 104 C195.05 82.12, 214.06 60.25, 265.26 1.36 M176.03 104 C202.72 73.3, 229.4 42.61, 265.26 1.36 M181.02 104.36 C216.34 63.73, 251.66 23.1, 270.9 0.96 M181.02 104.36 C203.37 78.64, 225.73 52.93, 270.9 0.96 M186.01 104.72 C208.14 79.25, 230.28 53.78, 275.89 1.32 M186.01 104.72 C215.33 70.98, 244.66 37.24, 275.89 1.32 M191.65 104.32 C218.01 74, 244.37 43.68, 281.53 0.93 M191.65 104.32 C215.04 77.41, 238.43 50.51, 281.53 0.93 M196.64 104.68 C219.59 78.28, 242.54 51.88, 286.52 1.29 M196.64 104.68 C215.13 83.41, 233.62 62.14, 286.52 1.29 M202.28 104.29 C233.66 68.19, 265.04 32.1, 292.16 0.89 M202.28 104.29 C233.82 68, 265.37 31.72, 292.16 0.89 M207.27 104.65 C241.42 65.36, 275.58 26.06, 297.15 1.25 M207.27 104.65 C236.33 71.22, 265.39 37.78, 297.15 1.25 M212.91 104.25 C234.14 79.83, 255.37 55.41, 302.79 0.86 M212.91 104.25 C248.49 63.32, 284.07 22.39, 302.79 0.86 M217.9 104.61 C252.23 65.12, 286.57 25.62, 307.78 1.22 M217.9 104.61 C244.25 74.29, 270.61 43.97, 307.78 1.22 M223.54 104.22 C254.96 68.08, 286.37 31.94, 312.76 1.58 M223.54 104.22 C259.07 63.35, 294.59 22.48, 312.76 1.58 M228.53 104.58 C250.21 79.63, 271.9 54.68, 317.09 2.69 M228.53 104.58 C260.2 68.14, 291.88 31.7, 317.09 2.69 M234.17 104.18 C253.33 82.14, 272.49 60.1, 322.74 2.3 M234.17 104.18 C259.78 74.72, 285.39 45.26, 322.74 2.3 M239.16 104.55 C271.79 67.01, 304.42 29.47, 326.41 4.17 M239.16 104.55 C272.92 65.7, 306.69 26.86, 326.41 4.17 M244.8 104.15 C267.68 77.83, 290.55 51.52, 329.43 6.79 M244.8 104.15 C272.58 72.19, 300.37 40.23, 329.43 6.79 M249.79 104.51 C282.58 66.79, 315.37 29.07, 332.45 9.42 M249.79 104.51 C272.91 77.92, 296.02 51.32, 332.45 9.42 M255.43 104.12 C277.43 78.8, 299.44 53.49, 334.81 12.8 M255.43 104.12 C279.49 76.44, 303.55 48.76, 334.81 12.8 M260.42 104.48 C287.98 72.77, 315.54 41.07, 336.52 16.93 M260.42 104.48 C287.99 72.76, 315.57 41.03, 336.52 16.93 M266.06 104.08 C289.09 77.59, 312.12 51.09, 337.57 21.82 M266.06 104.08 C289.6 77, 313.14 49.92, 337.57 21.82 M271.05 104.44 C293.89 78.16, 316.73 51.89, 337.97 27.46 M271.05 104.44 C297.13 74.44, 323.21 44.44, 337.97 27.46 M276.69 104.05 C289.62 89.17, 302.56 74.29, 337.7 33.86 M276.69 104.05 C291.97 86.47, 307.25 68.89, 337.7 33.86 M281.68 104.41 C294.5 89.65, 307.33 74.9, 338.1 39.5 M281.68 104.41 C301.13 82.03, 320.57 59.66, 338.1 39.5 M287.32 104.01 C301.25 87.99, 315.18 71.96, 337.84 45.9 M287.32 104.01 C299.38 90.14, 311.44 76.26, 337.84 45.9 M292.31 104.37 C307.68 86.69, 323.05 69.01, 338.23 51.54 M292.31 104.37 C303.25 91.79, 314.19 79.2, 338.23 51.54 M297.29 104.73 C312.11 87.69, 326.92 70.65, 337.97 57.94 M297.29 104.73 C313.33 86.29, 329.36 67.84, 337.97 57.94 M302.94 104.34 C310.03 96.17, 317.13 88.01, 338.36 63.58 M302.94 104.34 C313.9 91.73, 324.86 79.11, 338.36 63.58 M307.92 104.7 C315.46 96.03, 323 87.36, 338.1 69.98 M307.92 104.7 C318.33 92.72, 328.74 80.75, 338.1 69.98 M312.91 105.06 C321.95 94.66, 330.99 84.26, 336.53 77.89 M312.91 105.06 C318.24 98.93, 323.57 92.8, 336.53 77.89 M318.55 104.66 C322.43 100.21, 326.3 95.75, 335.61 85.04 M318.55 104.66 C322.77 99.81, 326.99 94.96, 335.61 85.04" stroke="#ced4da" stroke-width="0.5" fill="none"></path><path d="M25.75 0 M25.75 0 C100.32 0, 174.9 0, 310.25 0 M25.75 0 C105.99 0, 186.22 0, 310.25 0 M310.25 0 C327.42 0, 336 8.58, 336 25.75 M310.25 0 C327.42 0, 336 8.58, 336 25.75 M336 25.75 C336 45.71, 336 65.68, 336 77.25 M336 25.75 C336 40.14, 336 54.53, 336 77.25 M336 77.25 C336 94.42, 327.42 103, 310.25 103 M336 77.25 C336 94.42, 327.42 103, 310.25 103 M310.25 103 C227.87 103, 145.48 103, 25.75 103 M310.25 103 C243.39 103, 176.54 103, 25.75 103 M25.75 103 C8.58 103, 0 94.42, 0 77.25 M25.75 103 C8.58 103, 0 94.42, 0 77.25 M0 77.25 C0 60.14, 0 43.03, 0 25.75 M0 77.25 C0 61.36, 0 45.47, 0 25.75 M0 25.75 C0 8.58, 8.58 0, 25.75 0 M0 25.75 C0 8.58, 8.58 0, 25.75 0" stroke="#000000" stroke-width="1" fill="none"></path></g><g transform="translate(821 52.5) rotate(0 34 9)"><text x="34" y="15" font-family="Helvetica, Segoe UI Emoji" font-size="16px" fill="#000000" text-anchor="middle" style="white-space: pre;" direction="ltr">CLOSED</text></g><g stroke-linecap="round" transform="translate(10 11.5) rotate(0 168 51.5)"><path d="M6.2 6.71 C6.2 6.71, 6.2 6.71, 6.2 6.71 M6.2 6.71 C6.2 6.71, 6.2 6.71, 6.2 6.71 M3.31 16.13 C6.36 12.63, 9.4 9.12, 15.12 2.54 M3.31 16.13 C7.77 11, 12.24 5.86, 15.12 2.54 M3.05 22.53 C7.26 17.69, 11.47 12.85, 21.42 1.4 M3.05 22.53 C8.16 16.65, 13.26 10.78, 21.42 1.4 M3.45 28.17 C9.49 21.22, 15.53 14.26, 27.06 1 M3.45 28.17 C11.65 18.73, 19.85 9.3, 27.06 1 M3.18 34.57 C11.37 25.15, 19.57 15.72, 32.05 1.36 M3.18 34.57 C10.93 25.65, 18.68 16.74, 32.05 1.36 M3.58 40.21 C13.08 29.28, 22.58 18.35, 37.69 0.97 M3.58 40.21 C14.68 27.44, 25.78 14.67, 37.69 0.97 M3.32 46.61 C12.48 36.07, 21.64 25.53, 42.68 1.33 M3.32 46.61 C15.02 33.15, 26.72 19.68, 42.68 1.33 M3.06 53.01 C19.91 33.62, 36.77 14.23, 48.32 0.93 M3.06 53.01 C18.99 34.68, 34.92 16.35, 48.32 0.93 M3.45 58.65 C21.51 37.88, 39.57 17.1, 53.31 1.29 M3.45 58.65 C20.41 39.14, 37.37 19.63, 53.31 1.29 M3.19 65.05 C20.62 44.99, 38.06 24.93, 58.95 0.9 M3.19 65.05 C19.29 46.53, 35.39 28.01, 58.95 0.9 M3.58 70.69 C26.88 43.89, 50.19 17.08, 63.94 1.26 M3.58 70.69 C21.37 50.23, 39.15 29.77, 63.94 1.26 M3.32 77.09 C16.74 61.65, 30.17 46.21, 69.58 0.86 M3.32 77.09 C17.84 60.39, 32.35 43.7, 69.58 0.86 M1.75 85 C19.71 64.33, 37.67 43.67, 74.57 1.22 M1.75 85 C29.45 53.13, 57.14 21.27, 74.57 1.22 M2.8 89.88 C23.96 65.54, 45.12 41.2, 80.21 0.83 M2.8 89.88 C22.04 67.76, 41.27 45.63, 80.21 0.83 M4.51 94.02 C29.87 64.84, 55.23 35.66, 85.2 1.19 M4.51 94.02 C31.82 62.59, 59.14 31.17, 85.2 1.19 M6.87 97.4 C30.75 69.92, 54.63 42.45, 90.84 0.79 M6.87 97.4 C32.42 68, 57.98 38.6, 90.84 0.79 M10.54 99.27 C43.6 61.24, 76.65 23.22, 95.83 1.15 M10.54 99.27 C30.37 76.46, 50.19 53.66, 95.83 1.15 M14.22 101.14 C42.43 68.68, 70.64 36.23, 101.47 0.76 M14.22 101.14 C43.51 67.44, 72.8 33.74, 101.47 0.76 M17.24 103.76 C43.37 73.69, 69.51 43.62, 106.46 1.12 M17.24 103.76 C39.29 78.39, 61.34 53.02, 106.46 1.12 M22.22 104.12 C40.72 82.85, 59.21 61.57, 112.1 0.72 M22.22 104.12 C50.42 71.69, 78.61 39.26, 112.1 0.72 M27.21 104.48 C52.85 74.99, 78.49 45.49, 117.09 1.09 M27.21 104.48 C53.25 74.52, 79.29 44.57, 117.09 1.09 M32.85 104.09 C57.44 75.81, 82.02 47.53, 122.08 1.45 M32.85 104.09 C53.48 80.36, 74.11 56.63, 122.08 1.45 M37.84 104.45 C60.07 78.87, 82.3 53.3, 127.72 1.05 M37.84 104.45 C72.8 64.23, 107.77 24.01, 127.72 1.05 M43.48 104.05 C61.73 83.06, 79.98 62.07, 132.71 1.41 M43.48 104.05 C70.52 72.95, 97.55 41.85, 132.71 1.41 M48.47 104.41 C74.55 74.41, 100.63 44.41, 138.35 1.02 M48.47 104.41 C75.04 73.84, 101.62 43.27, 138.35 1.02 M54.11 104.02 C89.16 63.7, 124.21 23.38, 143.34 1.38 M54.11 104.02 C86.75 66.47, 119.39 28.93, 143.34 1.38 M59.1 104.38 C90.82 67.89, 122.53 31.41, 148.98 0.98 M59.1 104.38 C84.48 75.18, 109.86 45.99, 148.98 0.98 M64.09 104.74 C97.22 66.62, 130.35 28.51, 153.97 1.34 M64.09 104.74 C89.09 75.98, 114.08 47.22, 153.97 1.34 M69.73 104.34 C87.95 83.39, 106.16 62.43, 159.61 0.95 M69.73 104.34 C100.61 68.82, 131.49 33.3, 159.61 0.95 M74.72 104.7 C109.61 64.57, 144.49 24.43, 164.6 1.31 M74.72 104.7 C103.52 71.57, 132.31 38.45, 164.6 1.31 M80.36 104.31 C101.48 80.02, 122.6 55.72, 170.24 0.91 M80.36 104.31 C115.92 63.4, 151.48 22.5, 170.24 0.91 M85.35 104.67 C106.55 80.28, 127.76 55.88, 175.23 1.27 M85.35 104.67 C120.84 63.83, 156.34 23, 175.23 1.27 M90.99 104.27 C115.54 76.03, 140.1 47.78, 180.87 0.88 M90.99 104.27 C115.87 75.66, 140.74 47.04, 180.87 0.88 M95.98 104.63 C116.15 81.43, 136.32 58.23, 185.86 1.24 M95.98 104.63 C116.28 81.28, 136.58 57.93, 185.86 1.24 M101.62 104.24 C134.78 66.09, 167.95 27.94, 191.5 0.84 M101.62 104.24 C132.82 68.35, 164.02 32.46, 191.5 0.84 M106.61 104.6 C142.05 63.83, 177.49 23.06, 196.49 1.2 M106.61 104.6 C138.9 67.45, 171.19 30.31, 196.49 1.2 M112.25 104.2 C130.41 83.31, 148.57 62.42, 202.13 0.81 M112.25 104.2 C138.2 74.36, 164.14 44.51, 202.13 0.81 M117.24 104.56 C145.5 72.06, 173.76 39.55, 207.12 1.17 M117.24 104.56 C149.87 67.03, 182.5 29.49, 207.12 1.17 M122.88 104.17 C148.07 75.19, 173.27 46.21, 212.76 0.77 M122.88 104.17 C150.32 72.61, 177.75 41.05, 212.76 0.77 M127.87 104.53 C153.18 75.41, 178.5 46.29, 217.75 1.13 M127.87 104.53 C148.27 81.06, 168.67 57.59, 217.75 1.13 M133.51 104.14 C164.04 69.01, 194.57 33.89, 223.39 0.74 M133.51 104.14 C162.51 70.78, 191.5 37.43, 223.39 0.74 M138.5 104.5 C167.36 71.3, 196.22 38.1, 228.38 1.1 M138.5 104.5 C171.11 66.99, 203.71 29.48, 228.38 1.1 M144.14 104.1 C175.09 68.5, 206.04 32.89, 234.02 0.71 M144.14 104.1 C179.05 63.95, 213.95 23.8, 234.02 0.71 M149.13 104.46 C183.81 64.56, 218.5 24.66, 239.01 1.07 M149.13 104.46 C167.46 83.37, 185.79 62.28, 239.01 1.07 M154.77 104.07 C180.33 74.66, 205.9 45.26, 244 1.43 M154.77 104.07 C179.04 76.15, 203.3 48.24, 244 1.43 M159.76 104.43 C191.88 67.48, 224 30.53, 249.64 1.03 M159.76 104.43 C178.27 83.13, 196.78 61.84, 249.64 1.03 M165.4 104.03 C199.89 64.36, 234.37 24.69, 254.63 1.39 M165.4 104.03 C189.03 76.86, 212.65 49.68, 254.63 1.39 M170.39 104.39 C192.4 79.07, 214.41 53.75, 260.27 1 M170.39 104.39 C192.5 78.95, 214.62 53.51, 260.27 1 M176.03 104 C202.16 73.94, 228.29 43.88, 265.26 1.36 M176.03 104 C209.94 64.99, 243.85 25.98, 265.26 1.36 M181.02 104.36 C215.72 64.44, 250.42 24.52, 270.9 0.96 M181.02 104.36 C201.1 81.26, 221.18 58.16, 270.9 0.96 M186.01 104.72 C211.36 75.55, 236.72 46.37, 275.89 1.32 M186.01 104.72 C217.72 68.23, 249.44 31.75, 275.89 1.32 M191.65 104.32 C213.81 78.83, 235.97 53.34, 281.53 0.93 M191.65 104.32 C214.94 77.53, 238.22 50.75, 281.53 0.93 M196.64 104.68 C219.93 77.89, 243.22 51.1, 286.52 1.29 M196.64 104.68 C218.23 79.84, 239.83 55, 286.52 1.29 M202.28 104.29 C222.07 81.53, 241.85 58.77, 292.16 0.89 M202.28 104.29 C228.89 73.68, 255.49 43.08, 292.16 0.89 M207.27 104.65 C239.32 67.77, 271.38 30.89, 297.15 1.25 M207.27 104.65 C227.13 81.79, 247 58.94, 297.15 1.25 M212.91 104.25 C233.47 80.6, 254.03 56.95, 302.79 0.86 M212.91 104.25 C239.78 73.34, 266.65 42.43, 302.79 0.86 M217.9 104.61 C248.07 69.9, 278.25 35.19, 307.78 1.22 M217.9 104.61 C253.49 63.67, 289.08 22.73, 307.78 1.22 M223.54 104.22 C252.31 71.12, 281.08 38.03, 312.76 1.58 M223.54 104.22 C246.26 78.08, 268.98 51.95, 312.76 1.58 M228.53 104.58 C262.67 65.31, 296.81 26.03, 317.09 2.69 M228.53 104.58 C262.86 65.09, 297.19 25.59, 317.09 2.69 M234.17 104.18 C258.92 75.72, 283.66 47.25, 322.74 2.3 M234.17 104.18 C267.08 66.33, 299.98 28.48, 322.74 2.3 M239.16 104.55 C267.35 72.12, 295.54 39.69, 326.41 4.17 M239.16 104.55 C268.87 70.37, 298.58 36.19, 326.41 4.17 M244.8 104.15 C262.22 84.11, 279.65 64.06, 329.43 6.79 M244.8 104.15 C268.51 76.88, 292.21 49.61, 329.43 6.79 M249.79 104.51 C282.35 67.05, 314.92 29.59, 332.45 9.42 M249.79 104.51 C276.32 73.99, 302.85 43.46, 332.45 9.42 M255.43 104.12 C282.13 73.4, 308.83 42.68, 334.81 12.8 M255.43 104.12 C273.9 82.87, 292.37 61.62, 334.81 12.8 M260.42 104.48 C281.08 80.7, 301.75 56.93, 336.52 16.93 M260.42 104.48 C284.56 76.7, 308.71 48.93, 336.52 16.93 M266.06 104.08 C282.75 84.89, 299.43 65.69, 337.57 21.82 M266.06 104.08 C287.75 79.13, 309.44 54.18, 337.57 21.82 M271.05 104.44 C288.28 84.62, 305.51 64.8, 337.97 27.46 M271.05 104.44 C287.07 86.01, 303.1 67.57, 337.97 27.46 M276.69 104.05 C300.34 76.85, 323.98 49.65, 337.7 33.86 M276.69 104.05 C300.37 76.8, 324.06 49.56, 337.7 33.86 M281.68 104.41 C297.56 86.14, 313.44 67.87, 338.1 39.5 M281.68 104.41 C299.71 83.67, 317.74 62.92, 338.1 39.5 M287.32 104.01 C298.32 91.36, 309.32 78.71, 337.84 45.9 M287.32 104.01 C297.68 92.09, 308.04 80.17, 337.84 45.9 M292.31 104.37 C306.15 88.45, 319.99 72.52, 338.23 51.54 M292.31 104.37 C306.61 87.92, 320.91 71.47, 338.23 51.54 M297.29 104.73 C308.31 92.06, 319.33 79.39, 337.97 57.94 M297.29 104.73 C309.25 90.98, 321.21 77.22, 337.97 57.94 M302.94 104.34 C313.68 91.98, 324.43 79.61, 338.36 63.58 M302.94 104.34 C313.24 92.49, 323.54 80.64, 338.36 63.58 M307.92 104.7 C314.62 96.99, 321.32 89.29, 338.1 69.98 M307.92 104.7 C314.45 97.19, 320.98 89.68, 338.1 69.98 M312.91 105.06 C320.03 96.87, 327.14 88.69, 336.53 77.89 M312.91 105.06 C318.94 98.12, 324.97 91.19, 336.53 77.89 M318.55 104.66 C323.23 99.28, 327.91 93.91, 335.61 85.04 M318.55 104.66 C324.62 97.68, 330.7 90.7, 335.61 85.04" stroke="#ced4da" stroke-width="0.5" fill="none"></path><path d="M25.75 0 M25.75 0 C121.76 0, 217.76 0, 310.25 0 M25.75 0 C118.01 0, 210.27 0, 310.25 0 M310.25 0 C327.42 0, 336 8.58, 336 25.75 M310.25 0 C327.42 0, 336 8.58, 336 25.75 M336 25.75 C336 36.63, 336 47.5, 336 77.25 M336 25.75 C336 41.61, 336 57.48, 336 77.25 M336 77.25 C336 94.42, 327.42 103, 310.25 103 M336 77.25 C336 94.42, 327.42 103, 310.25 103 M310.25 103 C205.57 103, 100.89 103, 25.75 103 M310.25 103 C202.66 103, 95.07 103, 25.75 103 M25.75 103 C8.58 103, 0 94.42, 0 77.25 M25.75 103 C8.58 103, 0 94.42, 0 77.25 M0 77.25 C0 60.36, 0 43.47, 0 25.75 M0 77.25 C0 66.23, 0 55.22, 0 25.75 M0 25.75 C0 8.58, 8.58 0, 25.75 0 M0 25.75 C0 8.58, 8.58 0, 25.75 0" stroke="#000000" stroke-width="1" fill="none"></path></g><g transform="translate(144 54) rotate(0 34 9)"><text x="34" y="15" font-family="Helvetica, Segoe UI Emoji" font-size="16px" fill="#000000" text-anchor="middle" style="white-space: pre;" direction="ltr">CLOSED</text></g><g stroke-linecap="round" transform="translate(351 483.5) rotate(0 168 51.5)"><path d="M6.2 6.71 C6.2 6.71, 6.2 6.71, 6.2 6.71 M6.2 6.71 C6.2 6.71, 6.2 6.71, 6.2 6.71 M3.31 16.13 C7.68 11.1, 12.05 6.08, 15.12 2.54 M3.31 16.13 C5.85 13.21, 8.39 10.29, 15.12 2.54 M3.05 22.53 C7.92 16.92, 12.79 11.32, 21.42 1.4 M3.05 22.53 C9.36 15.27, 15.67 8.01, 21.42 1.4 M3.45 28.17 C11.65 18.74, 19.85 9.3, 27.06 1 M3.45 28.17 C10.02 20.61, 16.59 13.05, 27.06 1 M3.18 34.57 C10.03 26.69, 16.88 18.81, 32.05 1.36 M3.18 34.57 C12.65 23.68, 22.12 12.79, 32.05 1.36 M3.58 40.21 C13.66 28.62, 23.74 17.02, 37.69 0.97 M3.58 40.21 C13.48 28.82, 23.38 17.44, 37.69 0.97 M3.32 46.61 C15.7 32.36, 28.08 18.12, 42.68 1.33 M3.32 46.61 C13.48 34.92, 23.65 23.22, 42.68 1.33 M3.06 53.01 C12.73 41.88, 22.41 30.74, 48.32 0.93 M3.06 53.01 C13.34 41.18, 23.63 29.34, 48.32 0.93 M3.45 58.65 C20.02 39.59, 36.58 20.53, 53.31 1.29 M3.45 58.65 C18.41 41.44, 33.37 24.23, 53.31 1.29 M3.19 65.05 C21.21 44.31, 39.24 23.58, 58.95 0.9 M3.19 65.05 C19.59 46.18, 35.99 27.31, 58.95 0.9 M3.58 70.69 C18.51 53.52, 33.44 36.35, 63.94 1.26 M3.58 70.69 C24.54 46.59, 45.49 22.48, 63.94 1.26 M3.32 77.09 C20.99 56.76, 38.67 36.43, 69.58 0.86 M3.32 77.09 C24.77 52.41, 46.23 27.73, 69.58 0.86 M1.75 85 C26.4 56.63, 51.06 28.27, 74.57 1.22 M1.75 85 C17.88 66.44, 34 47.89, 74.57 1.22 M2.8 89.88 C26.72 62.36, 50.65 34.84, 80.21 0.83 M2.8 89.88 C31.99 56.3, 61.19 22.72, 80.21 0.83 M4.51 94.02 C21.19 74.82, 37.88 55.63, 85.2 1.19 M4.51 94.02 C26.54 68.67, 48.57 43.33, 85.2 1.19 M6.87 97.4 C35.16 64.85, 63.45 32.31, 90.84 0.79 M6.87 97.4 C35.7 64.23, 64.53 31.06, 90.84 0.79 M10.54 99.27 C42.49 62.52, 74.43 25.77, 95.83 1.15 M10.54 99.27 C42.96 61.98, 75.37 24.69, 95.83 1.15 M14.22 101.14 C36.8 75.16, 59.38 49.18, 101.47 0.76 M14.22 101.14 C43.85 67.05, 73.48 32.96, 101.47 0.76 M17.24 103.76 C42.78 74.37, 68.33 44.98, 106.46 1.12 M17.24 103.76 C48.36 67.96, 79.48 32.15, 106.46 1.12 M22.22 104.12 C40.67 82.9, 59.11 61.69, 112.1 0.72 M22.22 104.12 C50.21 71.93, 78.19 39.74, 112.1 0.72 M27.21 104.48 C54.94 72.58, 82.67 40.68, 117.09 1.09 M27.21 104.48 C55.41 72.04, 83.61 39.6, 117.09 1.09 M32.85 104.09 C62.15 70.38, 91.45 36.68, 122.08 1.45 M32.85 104.09 C53.55 80.28, 74.25 56.47, 122.08 1.45 M37.84 104.45 C67.44 70.39, 97.04 36.34, 127.72 1.05 M37.84 104.45 C68.16 69.56, 98.49 34.68, 127.72 1.05 M43.48 104.05 C61.55 83.27, 79.61 62.49, 132.71 1.41 M43.48 104.05 C70.53 72.94, 97.57 41.83, 132.71 1.41 M48.47 104.41 C80.73 67.3, 112.98 30.2, 138.35 1.02 M48.47 104.41 C67.38 82.66, 86.29 60.91, 138.35 1.02 M54.11 104.02 C74.06 81.07, 94.01 58.12, 143.34 1.38 M54.11 104.02 C85.75 67.63, 117.38 31.23, 143.34 1.38 M59.1 104.38 C88.69 70.34, 118.27 36.31, 148.98 0.98 M59.1 104.38 C81.71 78.37, 104.32 52.35, 148.98 0.98 M64.09 104.74 C82.93 83.07, 101.76 61.4, 153.97 1.34 M64.09 104.74 C86.03 79.5, 107.97 54.26, 153.97 1.34 M69.73 104.34 C96.15 73.95, 122.58 43.55, 159.61 0.95 M69.73 104.34 C97.4 72.51, 125.07 40.68, 159.61 0.95 M74.72 104.7 C92.72 83.99, 110.73 63.28, 164.6 1.31 M74.72 104.7 C97.89 78.05, 121.06 51.39, 164.6 1.31 M80.36 104.31 C100.96 80.62, 121.55 56.93, 170.24 0.91 M80.36 104.31 C112.21 67.67, 144.06 31.04, 170.24 0.91 M85.35 104.67 C108.48 78.05, 131.62 51.44, 175.23 1.27 M85.35 104.67 C113.18 72.65, 141.02 40.63, 175.23 1.27 M90.99 104.27 C111.86 80.27, 132.73 56.26, 180.87 0.88 M90.99 104.27 C117.43 73.86, 143.86 43.45, 180.87 0.88 M95.98 104.63 C119.74 77.29, 143.51 49.96, 185.86 1.24 M95.98 104.63 C126.72 69.27, 157.47 33.9, 185.86 1.24 M101.62 104.24 C130.62 70.88, 159.62 37.52, 191.5 0.84 M101.62 104.24 C133.85 67.17, 166.07 30.1, 191.5 0.84 M106.61 104.6 C135.98 70.81, 165.35 37.03, 196.49 1.2 M106.61 104.6 C135.84 70.97, 165.08 37.34, 196.49 1.2 M112.25 104.2 C133.99 79.2, 155.72 54.19, 202.13 0.81 M112.25 104.2 C139.85 72.46, 167.44 40.72, 202.13 0.81 M117.24 104.56 C150.65 66.13, 184.07 27.69, 207.12 1.17 M117.24 104.56 C140.41 77.91, 163.58 51.26, 207.12 1.17 M122.88 104.17 C145.62 78.01, 168.37 51.85, 212.76 0.77 M122.88 104.17 C143.29 80.69, 163.7 57.21, 212.76 0.77 M127.87 104.53 C159.2 68.49, 190.52 32.45, 217.75 1.13 M127.87 104.53 C160.78 66.67, 193.7 28.8, 217.75 1.13 M133.51 104.14 C164.19 68.85, 194.87 33.56, 223.39 0.74 M133.51 104.14 C163.57 69.56, 193.63 34.98, 223.39 0.74 M138.5 104.5 C159.01 80.9, 179.52 57.31, 228.38 1.1 M138.5 104.5 C165.94 72.93, 193.38 41.37, 228.38 1.1 M144.14 104.1 C163.35 82.01, 182.55 59.92, 234.02 0.71 M144.14 104.1 C177.65 65.55, 211.16 27, 234.02 0.71 M149.13 104.46 C167.43 83.41, 185.73 62.36, 239.01 1.07 M149.13 104.46 C181.3 67.46, 213.46 30.45, 239.01 1.07 M154.77 104.07 C181.45 73.38, 208.12 42.7, 244 1.43 M154.77 104.07 C173.89 82.08, 193 60.08, 244 1.43 M159.76 104.43 C185.79 74.49, 211.81 44.54, 249.64 1.03 M159.76 104.43 C180.88 80.13, 202 55.83, 249.64 1.03 M165.4 104.03 C196.44 68.32, 227.49 32.61, 254.63 1.39 M165.4 104.03 C188.49 77.48, 211.57 50.92, 254.63 1.39 M170.39 104.39 C199.4 71.02, 228.41 37.64, 260.27 1 M170.39 104.39 C195.17 75.88, 219.95 47.37, 260.27 1 M176.03 104 C196.83 80.07, 217.64 56.14, 265.26 1.36 M176.03 104 C196.95 79.94, 217.86 55.88, 265.26 1.36 M181.02 104.36 C213.54 66.95, 246.05 29.55, 270.9 0.96 M181.02 104.36 C203.25 78.79, 225.48 53.22, 270.9 0.96 M186.01 104.72 C217.39 68.62, 248.77 32.52, 275.89 1.32 M186.01 104.72 C221.74 63.61, 257.48 22.5, 275.89 1.32 M191.65 104.32 C217.44 74.65, 243.23 44.98, 281.53 0.93 M191.65 104.32 C222.67 68.64, 253.69 32.96, 281.53 0.93 M196.64 104.68 C215.71 82.74, 234.79 60.8, 286.52 1.29 M196.64 104.68 C226.54 70.28, 256.45 35.88, 286.52 1.29 M202.28 104.29 C220.31 83.54, 238.35 62.8, 292.16 0.89 M202.28 104.29 C237.57 63.69, 272.86 23.1, 292.16 0.89 M207.27 104.65 C230.69 77.7, 254.12 50.75, 297.15 1.25 M207.27 104.65 C238.94 68.21, 270.61 31.78, 297.15 1.25 M212.91 104.25 C233.31 80.78, 253.72 57.31, 302.79 0.86 M212.91 104.25 C234.61 79.29, 256.31 54.33, 302.79 0.86 M217.9 104.61 C240.78 78.29, 263.65 51.98, 307.78 1.22 M217.9 104.61 C244.61 73.89, 271.32 43.16, 307.78 1.22 M223.54 104.22 C251.38 72.19, 279.23 40.16, 312.76 1.58 M223.54 104.22 C256.67 66.11, 289.8 28, 312.76 1.58 M228.53 104.58 C252.96 76.47, 277.39 48.36, 317.09 2.69 M228.53 104.58 C258.28 70.35, 288.04 36.12, 317.09 2.69 M234.17 104.18 C253.99 81.39, 273.8 58.59, 322.74 2.3 M234.17 104.18 C259.86 74.63, 285.55 45.08, 322.74 2.3 M239.16 104.55 C267.82 71.57, 296.48 38.6, 326.41 4.17 M239.16 104.55 C271.06 67.85, 302.96 31.15, 326.41 4.17 M244.8 104.15 C274.58 69.9, 304.36 35.64, 329.43 6.79 M244.8 104.15 C273.05 71.66, 301.29 39.17, 329.43 6.79 M249.79 104.51 C277.74 72.36, 305.69 40.2, 332.45 9.42 M249.79 104.51 C267.25 84.43, 284.7 64.34, 332.45 9.42 M255.43 104.12 C279.88 75.98, 304.34 47.85, 334.81 12.8 M255.43 104.12 C276.58 79.79, 297.73 55.46, 334.81 12.8 M260.42 104.48 C287.24 73.62, 314.06 42.77, 336.52 16.93 M260.42 104.48 C277.61 84.7, 294.8 64.92, 336.52 16.93 M266.06 104.08 C289.37 77.27, 312.67 50.46, 337.57 21.82 M266.06 104.08 C286.11 81.02, 306.16 57.96, 337.57 21.82 M271.05 104.44 C293.85 78.21, 316.66 51.97, 337.97 27.46 M271.05 104.44 C290.52 82.04, 309.99 59.64, 337.97 27.46 M276.69 104.05 C292.6 85.74, 308.51 67.44, 337.7 33.86 M276.69 104.05 C300.84 76.26, 325 48.48, 337.7 33.86 M281.68 104.41 C303.94 78.79, 326.21 53.18, 338.1 39.5 M281.68 104.41 C293.86 90.39, 306.05 76.37, 338.1 39.5 M287.32 104.01 C307.02 81.35, 326.73 58.68, 337.84 45.9 M287.32 104.01 C300.53 88.82, 313.74 73.62, 337.84 45.9 M292.31 104.37 C307.33 87.09, 322.36 69.8, 338.23 51.54 M292.31 104.37 C307.84 86.5, 323.38 68.63, 338.23 51.54 M297.29 104.73 C305.95 94.77, 314.61 84.82, 337.97 57.94 M297.29 104.73 C311.69 88.18, 326.08 71.62, 337.97 57.94 M302.94 104.34 C312.63 93.19, 322.32 82.04, 338.36 63.58 M302.94 104.34 C314.4 91.15, 325.87 77.96, 338.36 63.58 M307.92 104.7 C315.47 96.01, 323.02 87.33, 338.1 69.98 M307.92 104.7 C319.32 91.59, 330.72 78.48, 338.1 69.98 M312.91 105.06 C319.78 97.16, 326.65 89.26, 336.53 77.89 M312.91 105.06 C321.55 95.12, 330.2 85.18, 336.53 77.89 M318.55 104.66 C322.73 99.86, 326.91 95.05, 335.61 85.04 M318.55 104.66 C323.09 99.45, 327.62 94.24, 335.61 85.04" stroke="#ced4da" stroke-width="0.5" fill="none"></path><path d="M25.75 0 M25.75 0 C127.48 0, 229.22 0, 310.25 0 M25.75 0 C135.83 0, 245.91 0, 310.25 0 M310.25 0 C327.42 0, 336 8.58, 336 25.75 M310.25 0 C327.42 0, 336 8.58, 336 25.75 M336 25.75 C336 37.61, 336 49.46, 336 77.25 M336 25.75 C336 38, 336 50.24, 336 77.25 M336 77.25 C336 94.42, 327.42 103, 310.25 103 M336 77.25 C336 94.42, 327.42 103, 310.25 103 M310.25 103 C206.35 103, 102.46 103, 25.75 103 M310.25 103 C223.08 103, 135.9 103, 25.75 103 M25.75 103 C8.58 103, 0 94.42, 0 77.25 M25.75 103 C8.58 103, 0 94.42, 0 77.25 M0 77.25 C0 65.78, 0 54.32, 0 25.75 M0 77.25 C0 58.08, 0 38.92, 0 25.75 M0 25.75 C0 8.58, 8.58 0, 25.75 0 M0 25.75 C0 8.58, 8.58 0, 25.75 0" stroke="#000000" stroke-width="1" fill="none"></path></g><g transform="translate(472 526) rotate(0 47 9)"><text x="47" y="15" font-family="Helvetica, Segoe UI Emoji" font-size="16px" fill="#000000" text-anchor="middle" style="white-space: pre;" direction="ltr">HALF-OPEN</text></g><g stroke-linecap="round"><g transform="translate(346 67) rotate(0 170.5 -0.5)"><path d="M0 0 C56.83 -0.17, 284.17 -0.83, 341 -1 M0 0 C56.83 -0.17, 284.17 -0.83, 341 -1" stroke="#000000" stroke-width="1" fill="none"></path></g><g transform="translate(346 67) rotate(0 170.5 -0.5)"><path d="M312.84 9.34 C318.81 7.15, 324.78 4.96, 341 -1 M312.84 9.34 C323.6 5.39, 334.36 1.44, 341 -1" stroke="#000000" stroke-width="1" fill="none"></path></g><g transform="translate(346 67) rotate(0 170.5 -0.5)"><path d="M312.78 -11.18 C318.76 -9.02, 324.75 -6.86, 341 -1 M312.78 -11.18 C323.56 -7.29, 334.34 -3.4, 341 -1" stroke="#000000" stroke-width="1" fill="none"></path></g></g><mask></mask><g transform="translate(368.5 37.5) rotate(0 131.5 9)"><text x="131.5" y="15" font-family="Helvetica, Segoe UI Emoji" font-size="16px" fill="#000000" text-anchor="middle" style="white-space: pre;" direction="ltr">Tasa de fallas por encima del umbral</text></g><g stroke-linecap="round"><g transform="translate(350 538) rotate(0 -94.79426944884574 -211.5)"><path d="M0 0 C-72.39 -0.38, -144.79 -0.76, -189.59 -1 M0 0 C-48.82 -0.26, -97.64 -0.52, -189.59 -1 M-189.59 -1 C-189.1 -165.6, -188.61 -330.2, -188.34 -423 M-189.59 -1 C-189.16 -145.49, -188.73 -289.97, -188.34 -423" stroke="#000000" stroke-width="1" fill="none"></path></g><g transform="translate(350 538) rotate(0 -94.79426944884574 -211.5)"><path d="M-178.16 -394.78 C-182.05 -405.56, -185.93 -416.33, -188.34 -423 M-178.16 -394.78 C-180.78 -402.05, -183.4 -409.31, -188.34 -423" stroke="#000000" stroke-width="1" fill="none"></path></g><g transform="translate(350 538) rotate(0 -94.79426944884574 -211.5)"><path d="M-198.68 -394.84 C-194.73 -405.59, -190.78 -416.35, -188.34 -423 M-198.68 -394.84 C-196.02 -402.09, -193.36 -409.34, -188.34 -423" stroke="#000000" stroke-width="1" fill="none"></path></g></g><mask></mask><g transform="translate(172.5 277.5) rotate(0 64.5 18)"><text x="64.5" y="15" font-family="Helvetica, Segoe UI Emoji" font-size="16px" fill="#000000" text-anchor="middle" style="white-space: pre;" direction="ltr">Tasa de fallo por</text><text x="64.5" y="33" font-family="Helvetica, Segoe UI Emoji" font-size="16px" fill="#000000" text-anchor="middle" style="white-space: pre;" direction="ltr">debajo del umbral</text></g><g stroke-linecap="round"><g transform="translate(943 113) rotate(0 -127.5 210.5)"><path d="M0 0 C0 136.89, 0 273.77, 0 419 M0 0 C0 121.45, 0 242.89, 0 419 M0 419 C-91.59 419.72, -183.18 420.44, -255 421 M0 419 C-100.74 419.79, -201.48 420.58, -255 421" stroke="#000000" stroke-width="1" fill="none"></path></g><g transform="translate(943 113) rotate(0 -127.5 210.5)"><path d="M-226.89 410.52 C-236.07 413.94, -245.26 417.37, -255 421 M-226.89 410.52 C-235.04 413.56, -243.19 416.59, -255 421" stroke="#000000" stroke-width="1" fill="none"></path></g><g transform="translate(943 113) rotate(0 -127.5 210.5)"><path d="M-226.73 431.04 C-235.97 427.76, -245.2 424.48, -255 421 M-226.73 431.04 C-234.92 428.13, -243.12 425.22, -255 421" stroke="#000000" stroke-width="1" fill="none"></path></g></g><mask></mask><g transform="translate(948 252.5) rotate(0 54 18)"><text x="54" y="15" font-family="Helvetica, Segoe UI Emoji" font-size="16px" fill="#000000" text-anchor="middle" style="white-space: pre;" direction="ltr">Despues de la </text><text x="54" y="33" font-family="Helvetica, Segoe UI Emoji" font-size="16px" fill="#000000" text-anchor="middle" style="white-space: pre;" direction="ltr">espera</text></g><g stroke-linecap="round"><g transform="translate(548 485) rotate(0 134.5 -186)"><path d="M0 0 C-0.24 -40.91, -0.47 -81.82, -1 -173 M0 0 C-0.21 -36.99, -0.43 -73.97, -1 -173 M-1 -173 C62.28 -173, 125.57 -173, 270 -173 M-1 -173 C54.36 -173, 109.73 -173, 270 -173 M270 -173 C270 -227.44, 270 -281.88, 270 -372 M270 -173 C270 -227.03, 270 -281.06, 270 -372" stroke="#000000" stroke-width="1" fill="none"></path></g><g transform="translate(548 485) rotate(0 134.5 -186)"><path d="M280.26 -343.81 C277.83 -350.48, 275.41 -357.14, 270 -372 M280.26 -343.81 C278.07 -349.84, 275.87 -355.86, 270 -372" stroke="#000000" stroke-width="1" fill="none"></path></g><g transform="translate(548 485) rotate(0 134.5 -186)"><path d="M259.74 -343.81 C262.17 -350.48, 264.59 -357.14, 270 -372 M259.74 -343.81 C261.93 -349.84, 264.13 -355.86, 270 -372" stroke="#000000" stroke-width="1" fill="none"></path></g></g><mask></mask><g transform="translate(583.5 268.5) rotate(0 93.5 18)"><text x="93.5" y="15" font-family="Helvetica, Segoe UI Emoji" font-size="16px" fill="#000000" text-anchor="middle" style="white-space: pre;" direction="ltr">Tasa de fallos por encima </text><text x="93.5" y="33" font-family="Helvetica, Segoe UI Emoji" font-size="16px" fill="#000000" text-anchor="middle" style="white-space: pre;" direction="ltr">del umbral</text></g></svg>