<svg version="1.1" xmlns="http://www.w3.org/2000/svg" viewBox="0 0 1255.5 641" width="1255.5" height="641" filter="invert(93%) hue-rotate(180deg)">
  <!-- svg-source:excalidraw -->
  
  <defs>
    <style class="style-fonts">
      @font-face {
        font-family: "Virgil";
        src: url("https://excalidraw.com/Virgil.woff2");
      }
      @font-face {
        font-family: "Cascadia";
        src: url("https://excalidraw.com/Cascadia.woff2");
      }
    </style>
  </defs>
  <rect x="0" y="0" width="1255.5" height="641" fill="#ffffff"></rect><g stroke-linecap="round" transform="translate(57 210) rotate(0 84.5 27)"><path d="M1.72 5.47 C1.72 5.47, 1.72 5.47, 1.72 5.47 M1.72 5.47 C1.72 5.47, 1.72 5.47, 1.72 5.47 M1.46 11.87 C4.41 8.48, 7.36 5.09, 9.34 2.82 M1.46 11.87 C3.41 9.63, 5.37 7.38, 9.34 2.82 M1.86 17.51 C4.74 14.2, 7.62 10.88, 15.63 1.67 M1.86 17.51 C5.74 13.04, 9.63 8.57, 15.63 1.67 M1.6 23.91 C6.63 18.12, 11.66 12.34, 20.62 2.03 M1.6 23.91 C7.38 17.26, 13.16 10.61, 20.62 2.03 M1.99 29.56 C10.52 19.75, 19.05 9.94, 26.26 1.63 M1.99 29.56 C6.89 23.92, 11.78 18.29, 26.26 1.63 M1.73 35.95 C7.78 28.99, 13.83 22.03, 31.25 1.99 M1.73 35.95 C11.52 24.69, 21.31 13.43, 31.25 1.99 M0.16 43.86 C8.44 34.33, 16.72 24.81, 36.89 1.6 M0.16 43.86 C12.19 30.02, 24.22 16.17, 36.89 1.6 M1.86 47.99 C14.56 33.38, 27.27 18.77, 41.88 1.96 M1.86 47.99 C10.29 38.3, 18.71 28.61, 41.88 1.96 M4.22 51.37 C14.26 39.83, 24.3 28.28, 47.52 1.56 M4.22 51.37 C21.46 31.55, 38.69 11.73, 47.52 1.56 M7.9 53.24 C17.08 42.68, 26.26 32.12, 52.51 1.92 M7.9 53.24 C17.39 42.32, 26.88 31.4, 52.51 1.92 M12.23 54.36 C26.17 38.32, 40.12 22.28, 58.15 1.53 M12.23 54.36 C25.7 38.86, 39.17 23.36, 58.15 1.53 M15.91 56.23 C28.06 42.25, 40.2 28.27, 63.14 1.89 M15.91 56.23 C30.19 39.79, 44.47 23.36, 63.14 1.89 M21.55 55.83 C31.32 44.6, 41.09 33.36, 68.79 1.49 M21.55 55.83 C37.45 37.54, 53.35 19.25, 68.79 1.49 M26.54 56.19 C42.67 37.63, 58.8 19.08, 73.77 1.85 M26.54 56.19 C37.67 43.38, 48.81 30.57, 73.77 1.85 M32.18 55.8 C43.52 42.75, 54.86 29.7, 79.42 1.46 M32.18 55.8 C50.72 34.47, 69.26 13.14, 79.42 1.46 M37.17 56.16 C51.88 39.24, 66.59 22.31, 84.4 1.82 M37.17 56.16 C49.51 41.96, 61.86 27.75, 84.4 1.82 M42.15 56.52 C58.2 38.05, 74.25 19.59, 90.05 1.42 M42.15 56.52 C59.79 36.23, 77.43 15.94, 90.05 1.42 M47.8 56.12 C62.08 39.69, 76.36 23.26, 95.03 1.78 M47.8 56.12 C58.18 44.17, 68.57 32.23, 95.03 1.78 M52.78 56.48 C69.61 37.13, 86.44 17.77, 100.02 2.14 M52.78 56.48 C67.57 39.47, 82.36 22.45, 100.02 2.14 M58.43 56.09 C69.41 43.45, 80.4 30.81, 105.66 1.75 M58.43 56.09 C69.96 42.82, 81.5 29.54, 105.66 1.75 M63.41 56.45 C72.89 45.55, 82.36 34.65, 110.65 2.11 M63.41 56.45 C78.46 39.14, 93.51 21.83, 110.65 2.11 M69.06 56.05 C83.38 39.57, 97.71 23.1, 116.29 1.72 M69.06 56.05 C81.31 41.95, 93.57 27.85, 116.29 1.72 M74.04 56.41 C88.13 40.21, 102.22 24, 121.28 2.08 M74.04 56.41 C84.35 44.55, 94.66 32.69, 121.28 2.08 M79.69 56.02 C93.78 39.81, 107.86 23.6, 126.92 1.68 M79.69 56.02 C93.05 40.65, 106.42 25.27, 126.92 1.68 M84.67 56.38 C99.41 39.43, 114.15 22.48, 131.91 2.04 M84.67 56.38 C98.28 40.73, 111.89 25.07, 131.91 2.04 M90.32 55.99 C103.75 40.54, 117.18 25.09, 137.55 1.65 M90.32 55.99 C105.62 38.38, 120.92 20.78, 137.55 1.65 M95.3 56.35 C106.52 43.44, 117.73 30.54, 142.54 2.01 M95.3 56.35 C111.65 37.54, 127.99 18.74, 142.54 2.01 M100.95 55.95 C115.64 39.05, 130.32 22.16, 148.18 1.61 M100.95 55.95 C114.37 40.51, 127.8 25.06, 148.18 1.61 M105.93 56.31 C120.25 39.85, 134.56 23.38, 153.17 1.97 M105.93 56.31 C117.85 42.6, 129.78 28.88, 153.17 1.97 M111.58 55.92 C126.04 39.28, 140.51 22.64, 158.16 2.33 M111.58 55.92 C123.57 42.12, 135.57 28.31, 158.16 2.33 M116.56 56.28 C129.14 41.81, 141.72 27.34, 163.14 2.69 M116.56 56.28 C126.32 45.05, 136.08 33.82, 163.14 2.69 M122.21 55.88 C139.97 35.44, 157.74 15.01, 166.82 4.56 M122.21 55.88 C132.47 44.08, 142.73 32.28, 166.82 4.56 M127.19 56.24 C141.38 39.93, 155.56 23.61, 169.84 7.19 M127.19 56.24 C138.37 43.39, 149.54 30.53, 169.84 7.19 M132.84 55.85 C146.99 39.56, 161.15 23.28, 170.89 12.07 M132.84 55.85 C147.28 39.23, 161.73 22.61, 170.89 12.07 M137.82 56.21 C144.96 48, 152.09 39.8, 170.63 18.47 M137.82 56.21 C150.84 41.23, 163.86 26.26, 170.63 18.47 M143.47 55.81 C149.32 49.07, 155.18 42.34, 171.02 24.12 M143.47 55.81 C153.85 43.86, 164.24 31.91, 171.02 24.12 M148.45 56.17 C154.8 48.88, 161.14 41.58, 170.76 30.51 M148.45 56.17 C153.87 49.95, 159.28 43.72, 170.76 30.51 M155.41 54.27 C161.45 47.32, 167.49 40.37, 171.15 36.16 M155.41 54.27 C159.89 49.11, 164.37 43.96, 171.15 36.16 M161.71 53.12 C163.78 50.73, 165.86 48.35, 170.89 42.55 M161.71 53.12 C165.12 49.2, 168.52 45.28, 170.89 42.55" stroke="#ced4da" stroke-width="0.5" fill="none"></path><path d="M13.5 0 M13.5 0 C60.59 0, 107.68 0, 155.5 0 M13.5 0 C50.02 0, 86.53 0, 155.5 0 M155.5 0 C164.5 0, 169 4.5, 169 13.5 M155.5 0 C164.5 0, 169 4.5, 169 13.5 M169 13.5 C169 21.33, 169 29.17, 169 40.5 M169 13.5 C169 22.04, 169 30.58, 169 40.5 M169 40.5 C169 49.5, 164.5 54, 155.5 54 M169 40.5 C169 49.5, 164.5 54, 155.5 54 M155.5 54 C125.82 54, 96.15 54, 13.5 54 M155.5 54 C105.49 54, 55.48 54, 13.5 54 M13.5 54 C4.5 54, 0 49.5, 0 40.5 M13.5 54 C4.5 54, 0 49.5, 0 40.5 M0 40.5 C0 34.87, 0 29.25, 0 13.5 M0 40.5 C0 34.48, 0 28.47, 0 13.5 M0 13.5 C0 4.5, 4.5 0, 13.5 0 M0 13.5 C0 4.5, 4.5 0, 13.5 0" stroke="#000000" stroke-width="1" fill="none"></path></g><g transform="translate(91.5 225.5) rotate(0 50 11.5)"><text x="50" y="19" font-family="Helvetica, Segoe UI Emoji" font-size="20px" fill="#000000" text-anchor="middle" style="white-space: pre;" direction="ltr">Producer 1</text></g><g stroke-linecap="round" transform="translate(55.5 318) rotate(0 84.5 27)"><path d="M1.72 5.47 C1.72 5.47, 1.72 5.47, 1.72 5.47 M1.72 5.47 C1.72 5.47, 1.72 5.47, 1.72 5.47 M1.46 11.87 C4.52 8.36, 7.58 4.84, 9.34 2.82 M1.46 11.87 C3.86 9.11, 6.27 6.35, 9.34 2.82 M1.86 17.51 C7.29 11.27, 12.72 5.02, 15.63 1.67 M1.86 17.51 C7.35 11.2, 12.84 4.88, 15.63 1.67 M1.6 23.91 C6.63 18.12, 11.66 12.33, 20.62 2.03 M1.6 23.91 C5.5 19.42, 9.4 14.93, 20.62 2.03 M1.99 29.56 C10.16 20.15, 18.34 10.75, 26.26 1.63 M1.99 29.56 C7.89 22.77, 13.79 15.99, 26.26 1.63 M1.73 35.95 C8.4 28.28, 15.07 20.61, 31.25 1.99 M1.73 35.95 C11.64 24.55, 21.55 13.15, 31.25 1.99 M0.16 43.86 C12.44 29.73, 24.72 15.6, 36.89 1.6 M0.16 43.86 C13.13 28.94, 26.1 14.01, 36.89 1.6 M1.86 47.99 C12.29 35.99, 22.73 23.99, 41.88 1.96 M1.86 47.99 C11.9 36.44, 21.95 24.89, 41.88 1.96 M4.22 51.37 C17.61 35.97, 31 20.57, 47.52 1.56 M4.22 51.37 C13.42 40.8, 22.61 30.23, 47.52 1.56 M7.9 53.24 C21.26 37.88, 34.61 22.51, 52.51 1.92 M7.9 53.24 C20.74 38.48, 33.57 23.71, 52.51 1.92 M12.23 54.36 C24.88 39.81, 37.52 25.27, 58.15 1.53 M12.23 54.36 C27.68 36.59, 43.13 18.82, 58.15 1.53 M15.91 56.23 C30.78 39.12, 45.65 22.01, 63.14 1.89 M15.91 56.23 C28.47 41.77, 41.04 27.31, 63.14 1.89 M21.55 55.83 C32.84 42.84, 44.14 29.84, 68.79 1.49 M21.55 55.83 C39.23 35.5, 56.9 15.16, 68.79 1.49 M26.54 56.19 C37.02 44.13, 47.5 32.07, 73.77 1.85 M26.54 56.19 C44.89 35.08, 63.24 13.97, 73.77 1.85 M32.18 55.8 C46.31 39.55, 60.43 23.3, 79.42 1.46 M32.18 55.8 C41.97 44.53, 51.77 33.26, 79.42 1.46 M37.17 56.16 C55.01 35.63, 72.85 15.11, 84.4 1.82 M37.17 56.16 C53.26 37.65, 69.35 19.14, 84.4 1.82 M42.15 56.52 C58.72 37.46, 75.28 18.41, 90.05 1.42 M42.15 56.52 C54.14 42.73, 66.12 28.95, 90.05 1.42 M47.8 56.12 C61.09 40.83, 74.39 25.53, 95.03 1.78 M47.8 56.12 C66.25 34.9, 84.7 13.67, 95.03 1.78 M52.78 56.48 C69.9 36.79, 87.02 17.1, 100.02 2.14 M52.78 56.48 C69.31 37.47, 85.84 18.46, 100.02 2.14 M58.43 56.09 C71.41 41.16, 84.39 26.22, 105.66 1.75 M58.43 56.09 C72.11 40.35, 85.79 24.61, 105.66 1.75 M63.41 56.45 C78.7 38.86, 93.99 21.27, 110.65 2.11 M63.41 56.45 C76.94 40.89, 90.47 25.32, 110.65 2.11 M69.06 56.05 C80.45 42.94, 91.85 29.83, 116.29 1.72 M69.06 56.05 C86.61 35.86, 104.16 15.67, 116.29 1.72 M74.04 56.41 C88.08 40.27, 102.11 24.13, 121.28 2.08 M74.04 56.41 C86.92 41.6, 99.8 26.79, 121.28 2.08 M79.69 56.02 C94.18 39.35, 108.67 22.68, 126.92 1.68 M79.69 56.02 C91.65 42.26, 103.61 28.5, 126.92 1.68 M84.67 56.38 C100.83 37.8, 116.98 19.22, 131.91 2.04 M84.67 56.38 C96.68 42.57, 108.69 28.76, 131.91 2.04 M90.32 55.99 C106.34 37.55, 122.37 19.11, 137.55 1.65 M90.32 55.99 C106.09 37.84, 121.87 19.69, 137.55 1.65 M95.3 56.35 C105.22 44.93, 115.14 33.52, 142.54 2.01 M95.3 56.35 C105.2 44.96, 115.09 33.58, 142.54 2.01 M100.95 55.95 C112.71 42.41, 124.48 28.88, 148.18 1.61 M100.95 55.95 C114.94 39.85, 128.94 23.75, 148.18 1.61 M105.93 56.31 C117.51 43, 129.08 29.68, 153.17 1.97 M105.93 56.31 C117.73 42.74, 129.53 29.17, 153.17 1.97 M111.58 55.92 C125.02 40.45, 138.47 24.98, 158.16 2.33 M111.58 55.92 C121.14 44.91, 130.7 33.91, 158.16 2.33 M116.56 56.28 C129.75 41.11, 142.93 25.95, 163.14 2.69 M116.56 56.28 C131.43 39.17, 146.3 22.07, 163.14 2.69 M122.21 55.88 C137.93 37.79, 153.66 19.7, 166.82 4.56 M122.21 55.88 C131.53 45.16, 140.85 34.43, 166.82 4.56 M127.19 56.24 C142.21 38.97, 157.23 21.69, 169.84 7.19 M127.19 56.24 C139.75 41.79, 152.31 27.35, 169.84 7.19 M132.84 55.85 C143.39 43.7, 153.95 31.56, 170.89 12.07 M132.84 55.85 C141.9 45.42, 150.96 35, 170.89 12.07 M137.82 56.21 C150.06 42.13, 162.29 28.06, 170.63 18.47 M137.82 56.21 C147.19 45.43, 156.55 34.66, 170.63 18.47 M143.47 55.81 C152.9 44.96, 162.34 34.11, 171.02 24.12 M143.47 55.81 C151.91 46.1, 160.35 36.4, 171.02 24.12 M148.45 56.17 C154.2 49.56, 159.96 42.94, 170.76 30.51 M148.45 56.17 C155.92 47.59, 163.38 39, 170.76 30.51 M155.41 54.27 C161.21 47.59, 167.02 40.91, 171.15 36.16 M155.41 54.27 C158.71 50.47, 162.02 46.66, 171.15 36.16 M161.71 53.12 C163.65 50.88, 165.6 48.65, 170.89 42.55 M161.71 53.12 C164.62 49.77, 167.54 46.41, 170.89 42.55" stroke="#ced4da" stroke-width="0.5" fill="none"></path><path d="M13.5 0 M13.5 0 C44.68 0, 75.85 0, 155.5 0 M13.5 0 C45.91 0, 78.33 0, 155.5 0 M155.5 0 C164.5 0, 169 4.5, 169 13.5 M155.5 0 C164.5 0, 169 4.5, 169 13.5 M169 13.5 C169 19.91, 169 26.32, 169 40.5 M169 13.5 C169 22.82, 169 32.14, 169 40.5 M169 40.5 C169 49.5, 164.5 54, 155.5 54 M169 40.5 C169 49.5, 164.5 54, 155.5 54 M155.5 54 C113.81 54, 72.12 54, 13.5 54 M155.5 54 C118.67 54, 81.85 54, 13.5 54 M13.5 54 C4.5 54, 0 49.5, 0 40.5 M13.5 54 C4.5 54, 0 49.5, 0 40.5 M0 40.5 C0 30.89, 0 21.29, 0 13.5 M0 40.5 C0 32.35, 0 24.2, 0 13.5 M0 13.5 C0 4.5, 4.5 0, 13.5 0 M0 13.5 C0 4.5, 4.5 0, 13.5 0" stroke="#000000" stroke-width="1" fill="none"></path></g><g transform="translate(90 333.5) rotate(0 50 11.5)"><text x="50" y="19" font-family="Helvetica, Segoe UI Emoji" font-size="20px" fill="#000000" text-anchor="middle" style="white-space: pre;" direction="ltr">Producer 1</text></g><g stroke-linecap="round" transform="translate(55.5 431) rotate(0 84.5 27)"><path d="M1.72 5.47 C1.72 5.47, 1.72 5.47, 1.72 5.47 M1.72 5.47 C1.72 5.47, 1.72 5.47, 1.72 5.47 M1.46 11.87 C3.44 9.6, 5.41 7.33, 9.34 2.82 M1.46 11.87 C3.9 9.07, 6.33 6.27, 9.34 2.82 M1.86 17.51 C4.78 14.15, 7.71 10.79, 15.63 1.67 M1.86 17.51 C5.98 12.77, 10.11 8.02, 15.63 1.67 M1.6 23.91 C7.07 17.61, 12.55 11.32, 20.62 2.03 M1.6 23.91 C6.83 17.89, 12.07 11.86, 20.62 2.03 M1.99 29.56 C10.16 20.16, 18.32 10.77, 26.26 1.63 M1.99 29.56 C9.63 20.76, 17.28 11.97, 26.26 1.63 M1.73 35.95 C9.58 26.92, 17.44 17.88, 31.25 1.99 M1.73 35.95 C8.79 27.83, 15.85 19.71, 31.25 1.99 M0.16 43.86 C13.9 28.04, 27.65 12.23, 36.89 1.6 M0.16 43.86 C8.31 34.48, 16.46 25.1, 36.89 1.6 M1.86 47.99 C17.41 30.11, 32.96 12.22, 41.88 1.96 M1.86 47.99 C13.83 34.23, 25.8 20.46, 41.88 1.96 M4.22 51.37 C13.2 41.04, 22.18 30.71, 47.52 1.56 M4.22 51.37 C20.58 32.56, 36.94 13.74, 47.52 1.56 M7.9 53.24 C23.1 35.76, 38.29 18.28, 52.51 1.92 M7.9 53.24 C23.33 35.49, 38.76 17.74, 52.51 1.92 M12.23 54.36 C23.72 41.14, 35.21 27.92, 58.15 1.53 M12.23 54.36 C25.16 39.48, 38.09 24.61, 58.15 1.53 M15.91 56.23 C34.36 35, 52.81 13.77, 63.14 1.89 M15.91 56.23 C33.02 36.54, 50.14 16.85, 63.14 1.89 M21.55 55.83 C38.08 36.82, 54.6 17.81, 68.79 1.49 M21.55 55.83 C34.53 40.9, 47.51 25.96, 68.79 1.49 M26.54 56.19 C40.22 40.45, 53.9 24.71, 73.77 1.85 M26.54 56.19 C41.83 38.6, 57.11 21.02, 73.77 1.85 M32.18 55.8 C45.71 40.23, 59.24 24.67, 79.42 1.46 M32.18 55.8 C43.58 42.69, 54.97 29.58, 79.42 1.46 M37.17 56.16 C54.72 35.96, 72.27 15.77, 84.4 1.82 M37.17 56.16 C51.2 40.02, 65.23 23.87, 84.4 1.82 M42.15 56.52 C55.21 41.5, 68.27 26.48, 90.05 1.42 M42.15 56.52 C56.84 39.62, 71.54 22.72, 90.05 1.42 M47.8 56.12 C59.76 42.36, 71.72 28.6, 95.03 1.78 M47.8 56.12 C63.95 37.54, 80.1 18.96, 95.03 1.78 M52.78 56.48 C64.79 42.67, 76.8 28.86, 100.02 2.14 M52.78 56.48 C68.81 38.05, 84.84 19.61, 100.02 2.14 M58.43 56.09 C74.2 37.94, 89.98 19.79, 105.66 1.75 M58.43 56.09 C68.35 44.68, 78.26 33.27, 105.66 1.75 M63.41 56.45 C73.31 45.07, 83.2 33.68, 110.65 2.11 M63.41 56.45 C75.18 42.91, 86.95 29.38, 110.65 2.11 M69.06 56.05 C83.05 39.95, 97.05 23.85, 116.29 1.72 M69.06 56.05 C80.63 42.74, 92.2 29.43, 116.29 1.72 M74.04 56.41 C85.84 42.84, 97.64 29.27, 121.28 2.08 M74.04 56.41 C87.68 40.73, 101.31 25.05, 121.28 2.08 M79.69 56.02 C89.38 44.86, 99.08 33.71, 126.92 1.68 M79.69 56.02 C93.05 40.64, 106.42 25.26, 126.92 1.68 M84.67 56.38 C99.75 39.04, 114.83 21.69, 131.91 2.04 M84.67 56.38 C101.32 37.23, 117.97 18.07, 131.91 2.04 M90.32 55.99 C100.19 44.63, 110.06 33.27, 137.55 1.65 M90.32 55.99 C106.95 36.85, 123.59 17.71, 137.55 1.65 M95.3 56.35 C109.21 40.34, 123.13 24.34, 142.54 2.01 M95.3 56.35 C108.41 41.27, 121.51 26.2, 142.54 2.01 M100.95 55.95 C112.19 43.01, 123.44 30.07, 148.18 1.61 M100.95 55.95 C118.56 35.69, 136.18 15.42, 148.18 1.61 M105.93 56.31 C119.42 40.8, 132.91 25.28, 153.17 1.97 M105.93 56.31 C122.11 37.7, 138.28 19.1, 153.17 1.97 M111.58 55.92 C125.84 39.5, 140.11 23.09, 158.16 2.33 M111.58 55.92 C123.59 42.1, 135.59 28.29, 158.16 2.33 M116.56 56.28 C132.15 38.34, 147.74 20.41, 163.14 2.69 M116.56 56.28 C133.74 36.52, 150.91 16.77, 163.14 2.69 M122.21 55.88 C131.57 45.11, 140.94 34.33, 166.82 4.56 M122.21 55.88 C131.65 45.02, 141.09 34.16, 166.82 4.56 M127.19 56.24 C140.72 40.68, 154.25 25.11, 169.84 7.19 M127.19 56.24 C136.56 45.47, 145.92 34.7, 169.84 7.19 M132.84 55.85 C141.52 45.86, 150.21 35.86, 170.89 12.07 M132.84 55.85 C141.64 45.73, 150.43 35.6, 170.89 12.07 M137.82 56.21 C145.75 47.09, 153.67 37.98, 170.63 18.47 M137.82 56.21 C147.68 44.87, 157.54 33.53, 170.63 18.47 M143.47 55.81 C149.62 48.73, 155.77 41.66, 171.02 24.12 M143.47 55.81 C149.14 49.29, 154.81 42.76, 171.02 24.12 M148.45 56.17 C156.22 47.24, 163.99 38.3, 170.76 30.51 M148.45 56.17 C154.24 49.52, 160.03 42.86, 170.76 30.51 M155.41 54.27 C160.76 48.11, 166.11 41.95, 171.15 36.16 M155.41 54.27 C158.82 50.34, 162.24 46.42, 171.15 36.16 M161.71 53.12 C163.65 50.89, 165.59 48.65, 170.89 42.55 M161.71 53.12 C164.34 50.1, 166.96 47.07, 170.89 42.55" stroke="#ced4da" stroke-width="0.5" fill="none"></path><path d="M13.5 0 M13.5 0 C56.93 0, 100.35 0, 155.5 0 M13.5 0 C47.23 0, 80.96 0, 155.5 0 M155.5 0 C164.5 0, 169 4.5, 169 13.5 M155.5 0 C164.5 0, 169 4.5, 169 13.5 M169 13.5 C169 19.89, 169 26.29, 169 40.5 M169 13.5 C169 22.5, 169 31.51, 169 40.5 M169 40.5 C169 49.5, 164.5 54, 155.5 54 M169 40.5 C169 49.5, 164.5 54, 155.5 54 M155.5 54 C121.19 54, 86.89 54, 13.5 54 M155.5 54 C124.42 54, 93.34 54, 13.5 54 M13.5 54 C4.5 54, 0 49.5, 0 40.5 M13.5 54 C4.5 54, 0 49.5, 0 40.5 M0 40.5 C0 30.27, 0 20.04, 0 13.5 M0 40.5 C0 35.08, 0 29.66, 0 13.5 M0 13.5 C0 4.5, 4.5 0, 13.5 0 M0 13.5 C0 4.5, 4.5 0, 13.5 0" stroke="#000000" stroke-width="1" fill="none"></path></g><g transform="translate(90 446.5) rotate(0 50 11.5)"><text x="50" y="19" font-family="Helvetica, Segoe UI Emoji" font-size="20px" fill="#000000" text-anchor="middle" style="white-space: pre;" direction="ltr">Producer 3</text></g><g stroke-linecap="round" transform="translate(446 49) rotate(0 189.5 291)"><path d="M32 0 M32 0 C123.25 0, 214.49 0, 347 0 M32 0 C133.96 0, 235.92 0, 347 0 M347 0 C368.33 0, 379 10.67, 379 32 M347 0 C368.33 0, 379 10.67, 379 32 M379 32 C379 153.53, 379 275.07, 379 550 M379 32 C379 183.03, 379 334.06, 379 550 M379 550 C379 571.33, 368.33 582, 347 582 M379 550 C379 571.33, 368.33 582, 347 582 M347 582 C280.43 582, 213.85 582, 32 582 M347 582 C233.66 582, 120.31 582, 32 582 M32 582 C10.67 582, 0 571.33, 0 550 M32 582 C10.67 582, 0 571.33, 0 550 M0 550 C0 373.93, 0 197.86, 0 32 M0 550 C0 425.9, 0 301.81, 0 32 M0 32 C0 10.67, 10.67 0, 32 0 M0 32 C0 10.67, 10.67 0, 32 0" stroke="#000000" stroke-width="1" fill="none"></path></g><g transform="translate(555 10) rotate(0 82 16)"><text x="82" y="26" font-family="Helvetica, Segoe UI Emoji" font-size="28px" fill="#000000" text-anchor="middle" style="white-space: pre;" direction="ltr">Kafka cluster</text></g><g stroke-linecap="round" transform="translate(522 553) rotate(0 122 26)"><path d="M3.46 3.01 C3.46 3.01, 3.46 3.01, 3.46 3.01 M3.46 3.01 C3.46 3.01, 3.46 3.01, 3.46 3.01 M-0.08 13.18 C3.26 9.33, 6.6 5.49, 9.1 2.61 M-0.08 13.18 C3.02 9.61, 6.12 6.05, 9.1 2.61 M0.31 18.82 C4.47 14.03, 8.64 9.25, 15.4 1.46 M0.31 18.82 C3.69 14.94, 7.06 11.06, 15.4 1.46 M0.05 25.22 C6.03 18.34, 12.01 11.46, 20.39 1.82 M0.05 25.22 C7.18 17.02, 14.31 8.82, 20.39 1.82 M-0.21 31.62 C6.78 23.57, 13.78 15.53, 25.38 2.18 M-0.21 31.62 C9.24 20.75, 18.69 9.87, 25.38 2.18 M0.18 37.26 C8.81 27.34, 17.43 17.42, 31.02 1.79 M0.18 37.26 C9.8 26.19, 19.42 15.13, 31.02 1.79 M2.55 40.64 C13.63 27.89, 24.72 15.14, 36.01 2.15 M2.55 40.64 C9.24 32.94, 15.93 25.24, 36.01 2.15 M2.94 46.28 C12.19 35.64, 21.44 25, 41.65 1.76 M2.94 46.28 C16.68 30.48, 30.42 14.67, 41.65 1.76 M4.65 50.42 C19.21 33.66, 33.78 16.91, 46.64 2.12 M4.65 50.42 C13.34 40.42, 22.02 30.43, 46.64 2.12 M7.67 53.04 C24.31 33.89, 40.95 14.75, 52.28 1.72 M7.67 53.04 C16.79 42.55, 25.91 32.06, 52.28 1.72 M12 54.16 C27.85 35.92, 43.7 17.69, 57.27 2.08 M12 54.16 C22.12 42.51, 32.25 30.86, 57.27 2.08 M17.64 53.76 C29.68 39.92, 41.71 26.07, 62.91 1.69 M17.64 53.76 C30.21 39.3, 42.78 24.84, 62.91 1.69 M22.63 54.12 C31.86 43.51, 41.09 32.89, 67.9 2.05 M22.63 54.12 C37.39 37.14, 52.15 20.16, 67.9 2.05 M28.27 53.73 C45.66 33.72, 63.05 13.72, 73.54 1.65 M28.27 53.73 C45.66 33.72, 63.06 13.71, 73.54 1.65 M33.26 54.09 C47.01 38.27, 60.75 22.46, 78.53 2.01 M33.26 54.09 C48.31 36.78, 63.35 19.47, 78.53 2.01 M38.9 53.69 C55.98 34.04, 73.06 14.4, 84.17 1.62 M38.9 53.69 C49.11 41.95, 59.32 30.2, 84.17 1.62 M43.89 54.05 C56.47 39.57, 69.06 25.1, 89.16 1.98 M43.89 54.05 C57.59 38.29, 71.29 22.53, 89.16 1.98 M49.53 53.66 C66.63 33.98, 83.74 14.31, 94.8 1.58 M49.53 53.66 C62.92 38.26, 76.3 22.87, 94.8 1.58 M54.52 54.02 C67.56 39.01, 80.61 24.01, 99.79 1.94 M54.52 54.02 C65.35 41.56, 76.19 29.09, 99.79 1.94 M60.16 53.62 C73.78 37.96, 87.39 22.3, 105.43 1.55 M60.16 53.62 C77.38 33.81, 94.6 14, 105.43 1.55 M65.15 53.98 C80 36.89, 94.86 19.8, 110.42 1.91 M65.15 53.98 C82.67 33.83, 100.19 13.68, 110.42 1.91 M70.79 53.59 C86.15 35.92, 101.51 18.26, 115.4 2.27 M70.79 53.59 C82.31 40.34, 93.82 27.1, 115.4 2.27 M75.78 53.95 C90.49 37.03, 105.2 20.11, 121.05 1.87 M75.78 53.95 C90.83 36.63, 105.89 19.31, 121.05 1.87 M81.42 53.55 C94.31 38.73, 107.2 23.9, 126.03 2.23 M81.42 53.55 C99.22 33.08, 117.02 12.6, 126.03 2.23 M86.41 53.91 C97.19 41.52, 107.97 29.12, 131.68 1.84 M86.41 53.91 C100.21 38.04, 114.01 22.16, 131.68 1.84 M91.4 54.27 C109.43 33.53, 127.47 12.78, 136.66 2.2 M91.4 54.27 C103.43 40.43, 115.46 26.59, 136.66 2.2 M97.04 53.88 C113.35 35.12, 129.65 16.36, 142.31 1.8 M97.04 53.88 C109.5 39.55, 121.95 25.22, 142.31 1.8 M102.03 54.24 C116.47 37.62, 130.92 21, 147.29 2.16 M102.03 54.24 C111.68 43.14, 121.33 32.03, 147.29 2.16 M107.67 53.85 C117.47 42.57, 127.28 31.29, 152.94 1.77 M107.67 53.85 C119.29 40.47, 130.92 27.1, 152.94 1.77 M112.66 54.21 C129.87 34.4, 147.09 14.59, 157.92 2.13 M112.66 54.21 C130.23 33.99, 147.81 13.77, 157.92 2.13 M118.3 53.81 C130.31 39.99, 142.32 26.18, 163.57 1.74 M118.3 53.81 C127.59 43.12, 136.88 32.43, 163.57 1.74 M123.29 54.17 C136.6 38.86, 149.91 23.54, 168.55 2.1 M123.29 54.17 C133.7 42.2, 144.1 30.22, 168.55 2.1 M128.93 53.78 C146.92 33.08, 164.91 12.39, 174.2 1.7 M128.93 53.78 C143.34 37.2, 157.75 20.62, 174.2 1.7 M133.92 54.14 C145.47 40.85, 157.02 27.56, 179.18 2.06 M133.92 54.14 C150.65 34.89, 167.38 15.64, 179.18 2.06 M139.56 53.74 C150.27 41.42, 160.98 29.1, 184.83 1.67 M139.56 53.74 C154.76 36.25, 169.97 18.76, 184.83 1.67 M144.55 54.1 C155.47 41.54, 166.39 28.98, 189.81 2.03 M144.55 54.1 C159.53 36.87, 174.51 19.64, 189.81 2.03 M150.19 53.71 C161.03 41.24, 171.86 28.77, 195.46 1.63 M150.19 53.71 C161.06 41.21, 171.93 28.7, 195.46 1.63 M155.18 54.07 C169.34 37.78, 183.5 21.49, 200.45 1.99 M155.18 54.07 C165.56 42.12, 175.95 30.17, 200.45 1.99 M160.82 53.67 C178.45 33.39, 196.08 13.11, 205.43 2.35 M160.82 53.67 C176.66 35.45, 192.51 17.22, 205.43 2.35 M165.81 54.03 C179.98 37.73, 194.16 21.42, 211.08 1.96 M165.81 54.03 C178.17 39.81, 190.53 25.6, 211.08 1.96 M171.45 53.64 C186.01 36.89, 200.56 20.15, 216.06 2.32 M171.45 53.64 C182.5 40.93, 193.55 28.22, 216.06 2.32 M176.44 54 C193.11 34.82, 209.79 15.63, 221.71 1.92 M176.44 54 C188.29 40.36, 200.14 26.73, 221.71 1.92 M182.08 53.6 C199.37 33.71, 216.66 13.82, 226.69 2.28 M182.08 53.6 C192.17 42, 202.26 30.39, 226.69 2.28 M187.07 53.96 C204.6 33.79, 222.14 13.62, 232.34 1.89 M187.07 53.96 C200.11 38.96, 213.15 23.96, 232.34 1.89 M192.05 54.32 C208.9 34.94, 225.76 15.56, 237.98 1.49 M192.05 54.32 C203.15 41.56, 214.24 28.8, 237.98 1.49 M197.7 53.93 C213.37 35.9, 229.04 17.88, 241 4.12 M197.7 53.93 C207.93 42.16, 218.16 30.39, 241 4.12 M202.68 54.29 C218.34 36.28, 234 18.27, 243.36 7.5 M202.68 54.29 C218.43 36.18, 234.17 18.07, 243.36 7.5 M208.33 53.9 C217.94 42.84, 227.56 31.78, 244.41 12.39 M208.33 53.9 C218.54 42.15, 228.75 30.4, 244.41 12.39 M213.31 54.26 C226.53 39.05, 239.75 23.84, 246.77 15.76 M213.31 54.26 C226.62 38.95, 239.92 23.65, 246.77 15.76 M218.96 53.86 C229.07 42.23, 239.18 30.6, 247.17 21.41 M218.96 53.86 C230.16 40.97, 241.36 28.09, 247.17 21.41 M223.94 54.22 C230.46 46.73, 236.97 39.24, 246.91 27.81 M223.94 54.22 C232 44.96, 240.05 35.69, 246.91 27.81 M230.9 52.32 C235.28 47.28, 239.65 42.25, 246.65 34.2 M230.9 52.32 C234.67 47.98, 238.44 43.64, 246.65 34.2 M237.2 51.17 C239.87 48.1, 242.53 45.03, 244.42 42.87 M237.2 51.17 C239.84 48.13, 242.48 45.09, 244.42 42.87" stroke="#4c6ef5" stroke-width="0.5" fill="none"></path><path d="M13 0 M13 0 C88.84 0, 164.69 0, 231 0 M13 0 C70.45 0, 127.9 0, 231 0 M231 0 C239.67 0, 244 4.33, 244 13 M231 0 C239.67 0, 244 4.33, 244 13 M244 13 C244 19.18, 244 25.35, 244 39 M244 13 C244 19.18, 244 25.37, 244 39 M244 39 C244 47.67, 239.67 52, 231 52 M244 39 C244 47.67, 239.67 52, 231 52 M231 52 C164.02 52, 97.04 52, 13 52 M231 52 C153.26 52, 75.52 52, 13 52 M13 52 C4.33 52, 0 47.67, 0 39 M13 52 C4.33 52, 0 47.67, 0 39 M0 39 C0 32.41, 0 25.83, 0 13 M0 39 C0 32.86, 0 26.73, 0 13 M0 13 C0 4.33, 4.33 0, 13 0 M0 13 C0 4.33, 4.33 0, 13 0" stroke="#000000" stroke-width="1" fill="none"></path></g><g transform="translate(593.5 567.5) rotate(0 50.5 11.5)"><text x="50.5" y="19" font-family="Helvetica, Segoe UI Emoji" font-size="20px" fill="#000000" text-anchor="middle" style="white-space: pre;" direction="ltr">ZooKeeper</text></g><g stroke-linecap="round" transform="translate(514 92) rotate(0 124 216.5)"><path d="M32 0 M32 0 C71.85 0, 111.69 0, 216 0 M216 0 C237.33 0, 248 10.67, 248 32 M248 32 C248 129.22, 248 226.43, 248 401 M248 401 C248 422.33, 237.33 433, 216 433 M216 433 C151.92 433, 87.85 433, 32 433 M32 433 C10.67 433, 0 422.33, 0 401 M0 401 C0 319.43, 0 237.87, 0 32 M0 32 C0 10.67, 10.67 0, 32 0" stroke="#000000" stroke-width="1.5" fill="none" stroke-dasharray="8 9"></path></g><g stroke-linecap="round" transform="translate(538 131) rotate(0 100 42)"><path d="M21 0 M21 0 C58.24 0, 95.49 0, 179 0 M21 0 C61.67 0, 102.33 0, 179 0 M179 0 C193 0, 200 7, 200 21 M179 0 C193 0, 200 7, 200 21 M200 21 C200 35.72, 200 50.44, 200 63 M200 21 C200 30.48, 200 39.95, 200 63 M200 63 C200 77, 193 84, 179 84 M200 63 C200 77, 193 84, 179 84 M179 84 C119.57 84, 60.15 84, 21 84 M179 84 C132.29 84, 85.59 84, 21 84 M21 84 C7 84, 0 77, 0 63 M21 84 C7 84, 0 77, 0 63 M0 63 C0 49.03, 0 35.07, 0 21 M0 63 C0 50.87, 0 38.73, 0 21 M0 21 C0 7, 7 0, 21 0 M0 21 C0 7, 7 0, 21 0" stroke="#000000" stroke-width="1" fill="none"></path></g><g transform="translate(599 131) rotate(0 39 11.5)"><text x="39" y="19" font-family="Helvetica, Segoe UI Emoji" font-size="20px" fill="#000000" text-anchor="middle" style="white-space: pre;" direction="ltr">Broker 1</text></g><g stroke-linecap="round" transform="translate(10 144) rotate(0 136.5 201)"><path d="M32 0 M32 0 C76.74 0, 121.47 0, 241 0 M32 0 C84.23 0, 136.46 0, 241 0 M241 0 C262.33 0, 273 10.67, 273 32 M241 0 C262.33 0, 273 10.67, 273 32 M273 32 C273 159.36, 273 286.73, 273 370 M273 32 C273 135.51, 273 239.02, 273 370 M273 370 C273 391.33, 262.33 402, 241 402 M273 370 C273 391.33, 262.33 402, 241 402 M241 402 C177.31 402, 113.62 402, 32 402 M241 402 C177.17 402, 113.35 402, 32 402 M32 402 C10.67 402, 0 391.33, 0 370 M32 402 C10.67 402, 0 391.33, 0 370 M0 370 C0 256.91, 0 143.81, 0 32 M0 370 C0 268.74, 0 167.48, 0 32 M0 32 C0 10.67, 10.67 0, 32 0 M0 32 C0 10.67, 10.67 0, 32 0" stroke="#000000" stroke-width="1" fill="none"></path></g><g stroke-linecap="round" transform="translate(1019.5 203) rotate(0 84.5 27)"><path d="M1.72 5.47 C1.72 5.47, 1.72 5.47, 1.72 5.47 M1.72 5.47 C1.72 5.47, 1.72 5.47, 1.72 5.47 M1.46 11.87 C3.8 9.18, 6.14 6.49, 9.34 2.82 M1.46 11.87 C3.19 9.88, 4.92 7.89, 9.34 2.82 M1.86 17.51 C4.78 14.15, 7.71 10.78, 15.63 1.67 M1.86 17.51 C4.78 14.15, 7.71 10.78, 15.63 1.67 M1.6 23.91 C8.37 16.12, 15.14 8.34, 20.62 2.03 M1.6 23.91 C9.18 15.18, 16.77 6.45, 20.62 2.03 M1.99 29.56 C8.38 22.21, 14.77 14.86, 26.26 1.63 M1.99 29.56 C9.86 20.51, 17.72 11.46, 26.26 1.63 M1.73 35.95 C10.53 25.83, 19.33 15.7, 31.25 1.99 M1.73 35.95 C10.24 26.16, 18.76 16.37, 31.25 1.99 M0.16 43.86 C13.43 28.59, 26.7 13.32, 36.89 1.6 M0.16 43.86 C10.73 31.7, 21.3 19.53, 36.89 1.6 M1.86 47.99 C13.85 34.2, 25.84 20.41, 41.88 1.96 M1.86 47.99 C12.06 36.26, 22.26 24.53, 41.88 1.96 M4.22 51.37 C13.58 40.61, 22.93 29.86, 47.52 1.56 M4.22 51.37 C21.51 31.49, 38.79 11.61, 47.52 1.56 M7.9 53.24 C20.32 38.96, 32.73 24.68, 52.51 1.92 M7.9 53.24 C18.96 40.52, 30.02 27.8, 52.51 1.92 M12.23 54.36 C22.75 42.26, 33.26 30.16, 58.15 1.53 M12.23 54.36 C29.99 33.93, 47.74 13.51, 58.15 1.53 M15.91 56.23 C34.54 34.79, 53.17 13.36, 63.14 1.89 M15.91 56.23 C30.07 39.94, 44.23 23.65, 63.14 1.89 M21.55 55.83 C40.17 34.41, 58.79 13, 68.79 1.49 M21.55 55.83 C36.26 38.91, 50.97 21.99, 68.79 1.49 M26.54 56.19 C43.09 37.15, 59.64 18.11, 73.77 1.85 M26.54 56.19 C37.2 43.93, 47.86 31.66, 73.77 1.85 M32.18 55.8 C50.95 34.2, 69.73 12.6, 79.42 1.46 M32.18 55.8 C44.82 41.25, 57.47 26.71, 79.42 1.46 M37.17 56.16 C50.91 40.35, 64.65 24.55, 84.4 1.82 M37.17 56.16 C52.45 38.57, 67.74 20.98, 84.4 1.82 M42.15 56.52 C57.34 39.05, 72.52 21.58, 90.05 1.42 M42.15 56.52 C55.67 40.97, 69.18 25.42, 90.05 1.42 M47.8 56.12 C62.09 39.68, 76.38 23.24, 95.03 1.78 M47.8 56.12 C60.76 41.21, 73.72 26.3, 95.03 1.78 M52.78 56.48 C68.06 38.91, 83.34 21.33, 100.02 2.14 M52.78 56.48 C62.93 44.81, 73.07 33.15, 100.02 2.14 M58.43 56.09 C73.28 39, 88.14 21.91, 105.66 1.75 M58.43 56.09 C69.84 42.96, 81.25 29.84, 105.66 1.75 M63.41 56.45 C81.32 35.85, 99.23 15.25, 110.65 2.11 M63.41 56.45 C75.59 42.44, 87.77 28.43, 110.65 2.11 M69.06 56.05 C87.85 34.43, 106.65 12.81, 116.29 1.72 M69.06 56.05 C86.61 35.87, 104.15 15.68, 116.29 1.72 M74.04 56.41 C90.05 38.01, 106.05 19.6, 121.28 2.08 M74.04 56.41 C85.22 43.56, 96.4 30.7, 121.28 2.08 M79.69 56.02 C92.25 41.57, 104.82 27.11, 126.92 1.68 M79.69 56.02 C93.55 40.07, 107.41 24.12, 126.92 1.68 M84.67 56.38 C96.46 42.82, 108.24 29.26, 131.91 2.04 M84.67 56.38 C99.29 39.57, 113.91 22.75, 131.91 2.04 M90.32 55.99 C108 35.64, 125.69 15.3, 137.55 1.65 M90.32 55.99 C100.69 44.06, 111.06 32.13, 137.55 1.65 M95.3 56.35 C107.13 42.74, 118.96 29.14, 142.54 2.01 M95.3 56.35 C107.92 41.83, 120.54 27.31, 142.54 2.01 M100.95 55.95 C111.38 43.95, 121.81 31.95, 148.18 1.61 M100.95 55.95 C112.5 42.66, 124.05 29.38, 148.18 1.61 M105.93 56.31 C118.81 41.49, 131.69 26.68, 153.17 1.97 M105.93 56.31 C116.96 43.62, 127.99 30.94, 153.17 1.97 M111.58 55.92 C123 42.78, 134.42 29.64, 158.16 2.33 M111.58 55.92 C123.04 42.73, 134.5 29.55, 158.16 2.33 M116.56 56.28 C132.4 38.06, 148.23 19.84, 163.14 2.69 M116.56 56.28 C133.57 36.72, 150.57 17.16, 163.14 2.69 M122.21 55.88 C136.91 38.96, 151.62 22.04, 166.82 4.56 M122.21 55.88 C139.37 36.14, 156.53 16.4, 166.82 4.56 M127.19 56.24 C138.62 43.1, 150.04 29.96, 169.84 7.19 M127.19 56.24 C142.17 39.02, 157.14 21.79, 169.84 7.19 M132.84 55.85 C144.19 42.78, 155.55 29.72, 170.89 12.07 M132.84 55.85 C140.58 46.94, 148.33 38.03, 170.89 12.07 M137.82 56.21 C149.78 42.45, 161.73 28.7, 170.63 18.47 M137.82 56.21 C148.13 44.36, 158.43 32.5, 170.63 18.47 M143.47 55.81 C149.47 48.9, 155.48 41.99, 171.02 24.12 M143.47 55.81 C152.53 45.39, 161.59 34.96, 171.02 24.12 M148.45 56.17 C155.81 47.72, 163.16 39.26, 170.76 30.51 M148.45 56.17 C155.34 48.25, 162.23 40.33, 170.76 30.51 M155.41 54.27 C160.09 48.89, 164.77 43.51, 171.15 36.16 M155.41 54.27 C161.23 47.57, 167.05 40.88, 171.15 36.16 M161.71 53.12 C164.97 49.36, 168.24 45.6, 170.89 42.55 M161.71 53.12 C163.76 50.76, 165.81 48.4, 170.89 42.55" stroke="#ced4da" stroke-width="0.5" fill="none"></path><path d="M13.5 0 M13.5 0 C68.39 0, 123.29 0, 155.5 0 M13.5 0 C44.37 0, 75.24 0, 155.5 0 M155.5 0 C164.5 0, 169 4.5, 169 13.5 M155.5 0 C164.5 0, 169 4.5, 169 13.5 M169 13.5 C169 22.41, 169 31.32, 169 40.5 M169 13.5 C169 21.71, 169 29.92, 169 40.5 M169 40.5 C169 49.5, 164.5 54, 155.5 54 M169 40.5 C169 49.5, 164.5 54, 155.5 54 M155.5 54 C113.36 54, 71.22 54, 13.5 54 M155.5 54 C126.59 54, 97.68 54, 13.5 54 M13.5 54 C4.5 54, 0 49.5, 0 40.5 M13.5 54 C4.5 54, 0 49.5, 0 40.5 M0 40.5 C0 33.83, 0 27.17, 0 13.5 M0 40.5 C0 30.24, 0 19.98, 0 13.5 M0 13.5 C0 4.5, 4.5 0, 13.5 0 M0 13.5 C0 4.5, 4.5 0, 13.5 0" stroke="#000000" stroke-width="1" fill="none"></path></g><g transform="translate(1048.5 218.5) rotate(0 55.5 11.5)"><text x="55.5" y="19" font-family="Helvetica, Segoe UI Emoji" font-size="20px" fill="#000000" text-anchor="middle" style="white-space: pre;" direction="ltr">Consumer 1</text></g><g stroke-linecap="round" transform="translate(1020 311) rotate(0 84.5 27)"><path d="M1.72 5.47 C1.72 5.47, 1.72 5.47, 1.72 5.47 M1.72 5.47 C1.72 5.47, 1.72 5.47, 1.72 5.47 M1.46 11.87 C4.17 8.75, 6.88 5.63, 9.34 2.82 M1.46 11.87 C3.16 9.92, 4.86 7.96, 9.34 2.82 M1.86 17.51 C4.97 13.94, 8.08 10.36, 15.63 1.67 M1.86 17.51 C6.65 12, 11.45 6.48, 15.63 1.67 M1.6 23.91 C6.12 18.71, 10.65 13.5, 20.62 2.03 M1.6 23.91 C8.03 16.51, 14.46 9.11, 20.62 2.03 M1.99 29.56 C11.63 18.47, 21.27 7.38, 26.26 1.63 M1.99 29.56 C8.97 21.53, 15.94 13.5, 26.26 1.63 M1.73 35.95 C10.77 25.55, 19.81 15.15, 31.25 1.99 M1.73 35.95 C10.69 25.64, 19.65 15.33, 31.25 1.99 M0.16 43.86 C11 31.38, 21.85 18.9, 36.89 1.6 M0.16 43.86 C11.51 30.79, 22.87 17.73, 36.89 1.6 M1.86 47.99 C12.33 35.95, 22.8 23.91, 41.88 1.96 M1.86 47.99 C15.92 31.82, 29.98 15.64, 41.88 1.96 M4.22 51.37 C13.36 40.86, 22.5 30.34, 47.52 1.56 M4.22 51.37 C13.37 40.86, 22.51 30.34, 47.52 1.56 M7.9 53.24 C21.22 37.92, 34.54 22.6, 52.51 1.92 M7.9 53.24 C21.86 37.19, 35.81 21.14, 52.51 1.92 M12.23 54.36 C29.15 34.9, 46.06 15.44, 58.15 1.53 M12.23 54.36 C27.54 36.75, 42.84 19.15, 58.15 1.53 M15.91 56.23 C34.56 34.77, 53.22 13.3, 63.14 1.89 M15.91 56.23 C30.62 39.3, 45.33 22.38, 63.14 1.89 M21.55 55.83 C32.11 43.68, 42.68 31.52, 68.79 1.49 M21.55 55.83 C33.72 41.83, 45.89 27.84, 68.79 1.49 M26.54 56.19 C36.51 44.72, 46.49 33.24, 73.77 1.85 M26.54 56.19 C38.95 41.91, 51.37 27.62, 73.77 1.85 M32.18 55.8 C49.49 35.89, 66.79 15.98, 79.42 1.46 M32.18 55.8 C46.75 39.03, 61.32 22.27, 79.42 1.46 M37.17 56.16 C55.62 34.93, 74.07 13.71, 84.4 1.82 M37.17 56.16 C54.89 35.77, 72.6 15.39, 84.4 1.82 M42.15 56.52 C52.63 44.47, 63.1 32.42, 90.05 1.42 M42.15 56.52 C54.24 42.61, 66.33 28.71, 90.05 1.42 M47.8 56.12 C60.04 42.04, 72.29 27.95, 95.03 1.78 M47.8 56.12 C59.52 42.64, 71.24 29.15, 95.03 1.78 M52.78 56.48 C68.63 38.25, 84.49 20.01, 100.02 2.14 M52.78 56.48 C71.58 34.86, 90.38 13.23, 100.02 2.14 M58.43 56.09 C73.83 38.37, 89.23 20.65, 105.66 1.75 M58.43 56.09 C76.11 35.75, 93.79 15.41, 105.66 1.75 M63.41 56.45 C77.82 39.88, 92.22 23.31, 110.65 2.11 M63.41 56.45 C77.4 40.36, 91.38 24.27, 110.65 2.11 M69.06 56.05 C87.14 35.26, 105.22 14.46, 116.29 1.72 M69.06 56.05 C80.3 43.13, 91.53 30.2, 116.29 1.72 M74.04 56.41 C85.72 42.98, 97.4 29.54, 121.28 2.08 M74.04 56.41 C85.37 43.39, 96.69 30.36, 121.28 2.08 M79.69 56.02 C89.32 44.94, 98.95 33.86, 126.92 1.68 M79.69 56.02 C89.88 44.3, 100.07 32.57, 126.92 1.68 M84.67 56.38 C99.61 39.2, 114.54 22.02, 131.91 2.04 M84.67 56.38 C101.88 36.59, 119.08 16.8, 131.91 2.04 M90.32 55.99 C101.97 42.58, 113.63 29.17, 137.55 1.65 M90.32 55.99 C103.38 40.96, 116.44 25.93, 137.55 1.65 M95.3 56.35 C114.09 34.73, 132.88 13.12, 142.54 2.01 M95.3 56.35 C111.69 37.5, 128.08 18.65, 142.54 2.01 M100.95 55.95 C117.55 36.85, 134.16 17.75, 148.18 1.61 M100.95 55.95 C114.24 40.66, 127.53 25.37, 148.18 1.61 M105.93 56.31 C115.91 44.84, 125.88 33.36, 153.17 1.97 M105.93 56.31 C120.45 39.61, 134.98 22.9, 153.17 1.97 M111.58 55.92 C122.81 42.99, 134.05 30.06, 158.16 2.33 M111.58 55.92 C124.78 40.73, 137.97 25.55, 158.16 2.33 M116.56 56.28 C126.27 45.12, 135.97 33.95, 163.14 2.69 M116.56 56.28 C130.89 39.8, 145.22 23.32, 163.14 2.69 M122.21 55.88 C132.09 44.51, 141.98 33.13, 166.82 4.56 M122.21 55.88 C132.38 44.18, 142.54 32.49, 166.82 4.56 M127.19 56.24 C138.87 42.81, 150.55 29.38, 169.84 7.19 M127.19 56.24 C137.91 43.92, 148.63 31.59, 169.84 7.19 M132.84 55.85 C143.54 43.53, 154.25 31.22, 170.89 12.07 M132.84 55.85 C142.45 44.79, 152.07 33.73, 170.89 12.07 M137.82 56.21 C145.21 47.71, 152.6 39.21, 170.63 18.47 M137.82 56.21 C150.45 41.69, 163.07 27.17, 170.63 18.47 M143.47 55.81 C154.26 43.4, 165.05 30.98, 171.02 24.12 M143.47 55.81 C154.14 43.54, 164.81 31.26, 171.02 24.12 M148.45 56.17 C155.43 48.15, 162.41 40.12, 170.76 30.51 M148.45 56.17 C157.3 46, 166.14 35.83, 170.76 30.51 M155.41 54.27 C158.67 50.52, 161.93 46.77, 171.15 36.16 M155.41 54.27 C159.41 49.67, 163.4 45.07, 171.15 36.16 M161.71 53.12 C164.64 49.74, 167.58 46.36, 170.89 42.55 M161.71 53.12 C164.62 49.77, 167.52 46.43, 170.89 42.55" stroke="#ced4da" stroke-width="0.5" fill="none"></path><path d="M13.5 0 M13.5 0 C65.22 0, 116.94 0, 155.5 0 M13.5 0 C65.52 0, 117.54 0, 155.5 0 M155.5 0 C164.5 0, 169 4.5, 169 13.5 M155.5 0 C164.5 0, 169 4.5, 169 13.5 M169 13.5 C169 21.84, 169 30.18, 169 40.5 M169 13.5 C169 21.24, 169 28.99, 169 40.5 M169 40.5 C169 49.5, 164.5 54, 155.5 54 M169 40.5 C169 49.5, 164.5 54, 155.5 54 M155.5 54 C114.03 54, 72.57 54, 13.5 54 M155.5 54 C101.76 54, 48.02 54, 13.5 54 M13.5 54 C4.5 54, 0 49.5, 0 40.5 M13.5 54 C4.5 54, 0 49.5, 0 40.5 M0 40.5 C0 34.85, 0 29.21, 0 13.5 M0 40.5 C0 34.63, 0 28.76, 0 13.5 M0 13.5 C0 4.5, 4.5 0, 13.5 0 M0 13.5 C0 4.5, 4.5 0, 13.5 0" stroke="#000000" stroke-width="1" fill="none"></path></g><g transform="translate(1049 326.5) rotate(0 55.5 11.5)"><text x="55.5" y="19" font-family="Helvetica, Segoe UI Emoji" font-size="20px" fill="#000000" text-anchor="middle" style="white-space: pre;" direction="ltr">Consumer 2</text></g><g stroke-linecap="round" transform="translate(1018 424) rotate(0 84.5 27)"><path d="M1.72 5.47 C1.72 5.47, 1.72 5.47, 1.72 5.47 M1.72 5.47 C1.72 5.47, 1.72 5.47, 1.72 5.47 M1.46 11.87 C3.71 9.29, 5.95 6.71, 9.34 2.82 M1.46 11.87 C3.19 9.88, 4.92 7.9, 9.34 2.82 M1.86 17.51 C5.27 13.59, 8.68 9.66, 15.63 1.67 M1.86 17.51 C5.04 13.86, 8.22 10.2, 15.63 1.67 M1.6 23.91 C6.18 18.64, 10.77 13.36, 20.62 2.03 M1.6 23.91 C8.25 16.26, 14.9 8.6, 20.62 2.03 M1.99 29.56 C10.3 20, 18.61 10.44, 26.26 1.63 M1.99 29.56 C7.91 22.75, 13.82 15.94, 26.26 1.63 M1.73 35.95 C10.68 25.65, 19.64 15.35, 31.25 1.99 M1.73 35.95 C11.74 24.43, 21.76 12.91, 31.25 1.99 M0.16 43.86 C13.37 28.65, 26.59 13.45, 36.89 1.6 M0.16 43.86 C9.75 32.82, 19.34 21.79, 36.89 1.6 M1.86 47.99 C15.5 32.31, 29.13 16.62, 41.88 1.96 M1.86 47.99 C16.84 30.76, 31.82 13.54, 41.88 1.96 M4.22 51.37 C16.25 37.54, 28.27 23.71, 47.52 1.56 M4.22 51.37 C13.89 40.25, 23.56 29.13, 47.52 1.56 M7.9 53.24 C21.92 37.11, 35.95 20.98, 52.51 1.92 M7.9 53.24 C20.12 39.18, 32.34 25.13, 52.51 1.92 M12.23 54.36 C26.73 37.68, 41.22 21.01, 58.15 1.53 M12.23 54.36 C28.45 35.7, 44.67 17.04, 58.15 1.53 M15.91 56.23 C33.73 35.72, 51.55 15.22, 63.14 1.89 M15.91 56.23 C34.33 35.03, 52.76 13.83, 63.14 1.89 M21.55 55.83 C32.67 43.04, 43.79 30.25, 68.79 1.49 M21.55 55.83 C33.67 41.89, 45.78 27.95, 68.79 1.49 M26.54 56.19 C44.26 35.81, 61.98 15.42, 73.77 1.85 M26.54 56.19 C41.06 39.48, 55.59 22.77, 73.77 1.85 M32.18 55.8 C43.56 42.71, 54.94 29.62, 79.42 1.46 M32.18 55.8 C42.67 43.73, 53.15 31.67, 79.42 1.46 M37.17 56.16 C53.47 37.4, 69.78 18.64, 84.4 1.82 M37.17 56.16 C53.4 37.49, 69.63 18.82, 84.4 1.82 M42.15 56.52 C55.48 41.18, 68.82 25.85, 90.05 1.42 M42.15 56.52 C57.53 38.83, 72.9 21.15, 90.05 1.42 M47.8 56.12 C58.07 44.31, 68.34 32.49, 95.03 1.78 M47.8 56.12 C59.54 42.61, 71.29 29.1, 95.03 1.78 M52.78 56.48 C68.66 38.22, 84.54 19.95, 100.02 2.14 M52.78 56.48 C67.32 39.76, 81.85 23.05, 100.02 2.14 M58.43 56.09 C73.25 39.04, 88.07 21.99, 105.66 1.75 M58.43 56.09 C72.88 39.46, 87.33 22.84, 105.66 1.75 M63.41 56.45 C79.7 37.71, 95.98 18.98, 110.65 2.11 M63.41 56.45 C78.49 39.11, 93.56 21.76, 110.65 2.11 M69.06 56.05 C80.78 42.57, 92.51 29.08, 116.29 1.72 M69.06 56.05 C79.98 43.49, 90.91 30.92, 116.29 1.72 M74.04 56.41 C87.13 41.36, 100.21 26.31, 121.28 2.08 M74.04 56.41 C91.77 36.02, 109.49 15.63, 121.28 2.08 M79.69 56.02 C90.42 43.67, 101.15 31.33, 126.92 1.68 M79.69 56.02 C92.61 41.16, 105.52 26.3, 126.92 1.68 M84.67 56.38 C96.37 42.92, 108.07 29.46, 131.91 2.04 M84.67 56.38 C97.83 41.24, 111 26.1, 131.91 2.04 M90.32 55.99 C106.81 37.01, 123.3 18.04, 137.55 1.65 M90.32 55.99 C105.15 38.92, 119.99 21.85, 137.55 1.65 M95.3 56.35 C105.41 44.72, 115.52 33.09, 142.54 2.01 M95.3 56.35 C110.17 39.24, 125.04 22.14, 142.54 2.01 M100.95 55.95 C115.35 39.38, 129.75 22.81, 148.18 1.61 M100.95 55.95 C118.31 35.98, 135.67 16.01, 148.18 1.61 M105.93 56.31 C118.93 41.36, 131.93 26.41, 153.17 1.97 M105.93 56.31 C122.56 37.19, 139.18 18.06, 153.17 1.97 M111.58 55.92 C124.49 41.06, 137.4 26.21, 158.16 2.33 M111.58 55.92 C124.66 40.86, 137.75 25.81, 158.16 2.33 M116.56 56.28 C133.92 36.31, 151.28 16.34, 163.14 2.69 M116.56 56.28 C132.46 37.99, 148.35 19.71, 163.14 2.69 M122.21 55.88 C132.97 43.5, 143.73 31.12, 166.82 4.56 M122.21 55.88 C132.66 43.86, 143.11 31.83, 166.82 4.56 M127.19 56.24 C143.84 37.1, 160.48 17.95, 169.84 7.19 M127.19 56.24 C136.43 45.62, 145.67 34.99, 169.84 7.19 M132.84 55.85 C142.89 44.28, 152.94 32.72, 170.89 12.07 M132.84 55.85 C141.99 45.32, 151.14 34.79, 170.89 12.07 M137.82 56.21 C146.15 46.63, 154.47 37.06, 170.63 18.47 M137.82 56.21 C150.77 41.31, 163.72 26.42, 170.63 18.47 M143.47 55.81 C149.13 49.3, 154.79 42.79, 171.02 24.12 M143.47 55.81 C150.22 48.04, 156.98 40.27, 171.02 24.12 M148.45 56.17 C153.61 50.24, 158.77 44.31, 170.76 30.51 M148.45 56.17 C154.59 49.11, 160.73 42.05, 170.76 30.51 M155.41 54.27 C158.82 50.34, 162.24 46.41, 171.15 36.16 M155.41 54.27 C158.98 50.16, 162.55 46.06, 171.15 36.16 M161.71 53.12 C163.85 50.66, 165.98 48.2, 170.89 42.55 M161.71 53.12 C164.83 49.52, 167.96 45.93, 170.89 42.55" stroke="#ced4da" stroke-width="0.5" fill="none"></path><path d="M13.5 0 M13.5 0 C47.87 0, 82.24 0, 155.5 0 M13.5 0 C55.57 0, 97.65 0, 155.5 0 M155.5 0 C164.5 0, 169 4.5, 169 13.5 M155.5 0 C164.5 0, 169 4.5, 169 13.5 M169 13.5 C169 21.04, 169 28.59, 169 40.5 M169 13.5 C169 22.86, 169 32.23, 169 40.5 M169 40.5 C169 49.5, 164.5 54, 155.5 54 M169 40.5 C169 49.5, 164.5 54, 155.5 54 M155.5 54 C116.04 54, 76.58 54, 13.5 54 M155.5 54 C111.79 54, 68.08 54, 13.5 54 M13.5 54 C4.5 54, 0 49.5, 0 40.5 M13.5 54 C4.5 54, 0 49.5, 0 40.5 M0 40.5 C0 34.65, 0 28.8, 0 13.5 M0 40.5 C0 31.19, 0 21.88, 0 13.5 M0 13.5 C0 4.5, 4.5 0, 13.5 0 M0 13.5 C0 4.5, 4.5 0, 13.5 0" stroke="#000000" stroke-width="1" fill="none"></path></g><g transform="translate(1047 439.5) rotate(0 55.5 11.5)"><text x="55.5" y="19" font-family="Helvetica, Segoe UI Emoji" font-size="20px" fill="#000000" text-anchor="middle" style="white-space: pre;" direction="ltr">Consumer 3</text></g><g stroke-linecap="round" transform="translate(972.5 137) rotate(0 136.5 201)"><path d="M32 0 M32 0 C92.86 0, 153.72 0, 241 0 M32 0 C108.46 0, 184.93 0, 241 0 M241 0 C262.33 0, 273 10.67, 273 32 M241 0 C262.33 0, 273 10.67, 273 32 M273 32 C273 108.31, 273 184.63, 273 370 M273 32 C273 149.67, 273 267.34, 273 370 M273 370 C273 391.33, 262.33 402, 241 402 M273 370 C273 391.33, 262.33 402, 241 402 M241 402 C185.08 402, 129.17 402, 32 402 M241 402 C197.47 402, 153.93 402, 32 402 M32 402 C10.67 402, 0 391.33, 0 370 M32 402 C10.67 402, 0 391.33, 0 370 M0 370 C0 266.15, 0 162.3, 0 32 M0 370 C0 283.63, 0 197.26, 0 32 M0 32 C0 10.67, 10.67 0, 32 0 M0 32 C0 10.67, 10.67 0, 32 0" stroke="#000000" stroke-width="1" fill="none"></path></g><g stroke-linecap="round"><g transform="translate(283 385.48150001322233) rotate(0 114.5 93.9237701639831)"><path d="M0 0 C38.17 31.31, 190.83 156.54, 229 187.85 M0 0 C38.17 31.31, 190.83 156.54, 229 187.85" stroke="#000000" stroke-width="1" fill="none"></path></g><g transform="translate(283 385.48150001322233) rotate(0 114.5 93.9237701639831)"><path d="M200.7 177.9 C208.67 180.7, 216.63 183.5, 229 187.85 M200.7 177.9 C208.31 180.58, 215.93 183.25, 229 187.85" stroke="#000000" stroke-width="1" fill="none"></path></g><g transform="translate(283 385.48150001322233) rotate(0 114.5 93.9237701639831)"><path d="M213.71 162.04 C218.02 169.3, 222.32 176.57, 229 187.85 M213.71 162.04 C217.82 168.98, 221.94 175.93, 229 187.85" stroke="#000000" stroke-width="1" fill="none"></path></g></g><mask></mask><g stroke-linecap="round"><g transform="translate(285.0000000000002 324.6440072033641) rotate(0 101.49999999999989 1.4761831251009703)"><path d="M0 0 C33.83 0.49, 169.17 2.46, 203 2.95 M0 0 C33.83 0.49, 169.17 2.46, 203 2.95" stroke="#000000" stroke-width="1" fill="none"></path></g><g transform="translate(285.0000000000002 324.6440072033641) rotate(0 101.49999999999989 1.4761831251009703)"><path d="M174.66 12.8 C184.15 9.5, 193.64 6.21, 203 2.95 M174.66 12.8 C182.3 10.15, 189.93 7.5, 203 2.95" stroke="#000000" stroke-width="1" fill="none"></path></g><g transform="translate(285.0000000000002 324.6440072033641) rotate(0 101.49999999999989 1.4761831251009703)"><path d="M174.96 -7.72 C184.35 -4.14, 193.74 -0.57, 203 2.95 M174.96 -7.72 C182.51 -4.84, 190.07 -1.97, 203 2.95" stroke="#000000" stroke-width="1" fill="none"></path></g></g><mask></mask><g stroke-linecap="round"><g transform="translate(974 393) rotate(0 -103 82)"><path d="M0 0 C-34.33 27.33, -171.67 136.67, -206 164 M0 0 C-34.33 27.33, -171.67 136.67, -206 164" stroke="#000000" stroke-width="1" fill="none"></path></g><g transform="translate(974 393) rotate(0 -103 82)"><path d="M-190.34 138.41 C-195.3 146.52, -200.26 154.62, -206 164 M-190.34 138.41 C-194.44 145.12, -198.54 151.82, -206 164" stroke="#000000" stroke-width="1" fill="none"></path></g><g transform="translate(974 393) rotate(0 -103 82)"><path d="M-177.55 154.47 C-186.56 157.49, -195.58 160.51, -206 164 M-177.55 154.47 C-185.01 156.97, -192.46 159.46, -206 164" stroke="#000000" stroke-width="1" fill="none"></path></g></g><mask></mask><g stroke-linecap="round"><g transform="translate(971 328) rotate(0 -97.5 -2)"><path d="M0 0 C-32.5 -0.67, -162.5 -3.33, -195 -4 M0 0 C-32.5 -0.67, -162.5 -3.33, -195 -4" stroke="#000000" stroke-width="1" fill="none"></path></g><g transform="translate(971 328) rotate(0 -97.5 -2)"><path d="M-166.6 -13.68 C-174.7 -10.92, -182.79 -8.16, -195 -4 M-166.6 -13.68 C-176.24 -10.39, -185.88 -7.11, -195 -4" stroke="#000000" stroke-width="1" fill="none"></path></g><g transform="translate(971 328) rotate(0 -97.5 -2)"><path d="M-167.03 6.84 C-175 3.75, -182.97 0.66, -195 -4 M-167.03 6.84 C-176.52 3.16, -186.02 -0.52, -195 -4" stroke="#000000" stroke-width="1" fill="none"></path></g></g><mask></mask><g transform="translate(310 477.5) rotate(0 41 23)"><text x="41" y="19" font-family="Helvetica, Segoe UI Emoji" font-size="20px" fill="#000000" text-anchor="middle" style="white-space: pre;" direction="ltr">get kafka</text><text x="41" y="42" font-family="Helvetica, Segoe UI Emoji" font-size="20px" fill="#000000" text-anchor="middle" style="white-space: pre;" direction="ltr">broker id</text></g><g transform="translate(320.5 298.5) rotate(0 44.5 11.5)"><text x="44.5" y="19" font-family="Helvetica, Segoe UI Emoji" font-size="20px" fill="#000000" text-anchor="middle" style="white-space: pre;" direction="ltr">push msg</text></g><g transform="translate(838.5 498.5) rotate(0 58.5 11.5)"><text x="58.5" y="19" font-family="Helvetica, Segoe UI Emoji" font-size="20px" fill="#000000" text-anchor="middle" style="white-space: pre;" direction="ltr">update offset</text></g><g transform="translate(859 297.5) rotate(0 38 11.5)"><text x="38" y="19" font-family="Helvetica, Segoe UI Emoji" font-size="20px" fill="#000000" text-anchor="middle" style="white-space: pre;" direction="ltr">pull msg</text></g><g transform="translate(70 116.5) rotate(0 72 11.5)"><text x="72" y="19" font-family="Helvetica, Segoe UI Emoji" font-size="20px" fill="#000000" text-anchor="middle" style="white-space: pre;" direction="ltr">Producer Group</text></g><g transform="translate(1021.5 110.5) rotate(0 77.5 11.5)"><text x="77.5" y="19" font-family="Helvetica, Segoe UI Emoji" font-size="20px" fill="#000000" text-anchor="middle" style="white-space: pre;" direction="ltr">Consumer Group</text></g><g stroke-linecap="round" transform="translate(547 172) rotate(0 44 16.5)"><path d="M8.25 0 M8.25 0 C23.64 0, 39.03 0, 79.75 0 M8.25 0 C35.84 0, 63.43 0, 79.75 0 M79.75 0 C85.25 0, 88 2.75, 88 8.25 M79.75 0 C85.25 0, 88 2.75, 88 8.25 M88 8.25 C88 11.75, 88 15.25, 88 24.75 M88 8.25 C88 13.95, 88 19.66, 88 24.75 M88 24.75 C88 30.25, 85.25 33, 79.75 33 M88 24.75 C88 30.25, 85.25 33, 79.75 33 M79.75 33 C58.98 33, 38.22 33, 8.25 33 M79.75 33 C53.12 33, 26.49 33, 8.25 33 M8.25 33 C2.75 33, 0 30.25, 0 24.75 M8.25 33 C2.75 33, 0 30.25, 0 24.75 M0 24.75 C0 21.35, 0 17.94, 0 8.25 M0 24.75 C0 18.7, 0 12.66, 0 8.25 M0 8.25 C0 2.75, 2.75 0, 8.25 0 M0 8.25 C0 2.75, 2.75 0, 8.25 0" stroke="#000000" stroke-width="1" fill="none"></path></g><g transform="translate(564 179.5) rotate(0 27 9)"><text x="27" y="15" font-family="Helvetica, Segoe UI Emoji" font-size="16px" fill="#000000" text-anchor="middle" style="white-space: pre;" direction="ltr">Topic A</text></g><g stroke-linecap="round" transform="translate(643 172.5) rotate(0 44 16.5)"><path d="M8.25 0 M8.25 0 C23.72 0, 39.2 0, 79.75 0 M8.25 0 C35.37 0, 62.5 0, 79.75 0 M79.75 0 C85.25 0, 88 2.75, 88 8.25 M79.75 0 C85.25 0, 88 2.75, 88 8.25 M88 8.25 C88 11.99, 88 15.74, 88 24.75 M88 8.25 C88 12.75, 88 17.26, 88 24.75 M88 24.75 C88 30.25, 85.25 33, 79.75 33 M88 24.75 C88 30.25, 85.25 33, 79.75 33 M79.75 33 C60.73 33, 41.7 33, 8.25 33 M79.75 33 C63 33, 46.25 33, 8.25 33 M8.25 33 C2.75 33, 0 30.25, 0 24.75 M8.25 33 C2.75 33, 0 30.25, 0 24.75 M0 24.75 C0 19.61, 0 14.47, 0 8.25 M0 24.75 C0 19.83, 0 14.91, 0 8.25 M0 8.25 C0 2.75, 2.75 0, 8.25 0 M0 8.25 C0 2.75, 2.75 0, 8.25 0" stroke="#000000" stroke-width="1" fill="none"></path></g><g transform="translate(660 180) rotate(0 27 9)"><text x="27" y="15" font-family="Helvetica, Segoe UI Emoji" font-size="16px" fill="#000000" text-anchor="middle" style="white-space: pre;" direction="ltr">Topic B</text></g><g stroke-linecap="round" transform="translate(544 280) rotate(0 100 42)"><path d="M21 0 M21 0 C68.33 0, 115.66 0, 179 0 M21 0 C62.43 0, 103.86 0, 179 0 M179 0 C193 0, 200 7, 200 21 M179 0 C193 0, 200 7, 200 21 M200 21 C200 29.64, 200 38.27, 200 63 M200 21 C200 34.34, 200 47.69, 200 63 M200 63 C200 77, 193 84, 179 84 M200 63 C200 77, 193 84, 179 84 M179 84 C117.63 84, 56.26 84, 21 84 M179 84 C124.41 84, 69.81 84, 21 84 M21 84 C7 84, 0 77, 0 63 M21 84 C7 84, 0 77, 0 63 M0 63 C0 49.41, 0 35.82, 0 21 M0 63 C0 50.94, 0 38.88, 0 21 M0 21 C0 7, 7 0, 21 0 M0 21 C0 7, 7 0, 21 0" stroke="#000000" stroke-width="1" fill="none"></path></g><g transform="translate(605 280) rotate(0 39 11.5)"><text x="39" y="19" font-family="Helvetica, Segoe UI Emoji" font-size="20px" fill="#000000" text-anchor="middle" style="white-space: pre;" direction="ltr">Broker 2</text></g><g stroke-linecap="round" transform="translate(553 321) rotate(0 44 16.5)"><path d="M8.25 0 M8.25 0 C26.64 0, 45.03 0, 79.75 0 M8.25 0 C22.92 0, 37.6 0, 79.75 0 M79.75 0 C85.25 0, 88 2.75, 88 8.25 M79.75 0 C85.25 0, 88 2.75, 88 8.25 M88 8.25 C88 12.25, 88 16.25, 88 24.75 M88 8.25 C88 14.22, 88 20.19, 88 24.75 M88 24.75 C88 30.25, 85.25 33, 79.75 33 M88 24.75 C88 30.25, 85.25 33, 79.75 33 M79.75 33 C58.21 33, 36.67 33, 8.25 33 M79.75 33 C56.41 33, 33.06 33, 8.25 33 M8.25 33 C2.75 33, 0 30.25, 0 24.75 M8.25 33 C2.75 33, 0 30.25, 0 24.75 M0 24.75 C0 20.5, 0 16.25, 0 8.25 M0 24.75 C0 20.72, 0 16.69, 0 8.25 M0 8.25 C0 2.75, 2.75 0, 8.25 0 M0 8.25 C0 2.75, 2.75 0, 8.25 0" stroke="#000000" stroke-width="1" fill="none"></path></g><g transform="translate(570 328.5) rotate(0 27 9)"><text x="27" y="15" font-family="Helvetica, Segoe UI Emoji" font-size="16px" fill="#000000" text-anchor="middle" style="white-space: pre;" direction="ltr">Topic A</text></g><g stroke-linecap="round" transform="translate(649 321.5) rotate(0 44 16.5)"><path d="M8.25 0 M8.25 0 C28.41 0, 48.57 0, 79.75 0 M8.25 0 C36.56 0, 64.86 0, 79.75 0 M79.75 0 C85.25 0, 88 2.75, 88 8.25 M79.75 0 C85.25 0, 88 2.75, 88 8.25 M88 8.25 C88 13.14, 88 18.04, 88 24.75 M88 8.25 C88 13.94, 88 19.63, 88 24.75 M88 24.75 C88 30.25, 85.25 33, 79.75 33 M88 24.75 C88 30.25, 85.25 33, 79.75 33 M79.75 33 C51.92 33, 24.09 33, 8.25 33 M79.75 33 C52.2 33, 24.66 33, 8.25 33 M8.25 33 C2.75 33, 0 30.25, 0 24.75 M8.25 33 C2.75 33, 0 30.25, 0 24.75 M0 24.75 C0 18.39, 0 12.04, 0 8.25 M0 24.75 C0 18.79, 0 12.82, 0 8.25 M0 8.25 C0 2.75, 2.75 0, 8.25 0 M0 8.25 C0 2.75, 2.75 0, 8.25 0" stroke="#000000" stroke-width="1" fill="none"></path></g><g transform="translate(666 329) rotate(0 27 9)"><text x="27" y="15" font-family="Helvetica, Segoe UI Emoji" font-size="16px" fill="#000000" text-anchor="middle" style="white-space: pre;" direction="ltr">Topic B</text></g><g stroke-linecap="round" transform="translate(547 417) rotate(0 100 42)"><path d="M21 0 M21 0 C82.51 0, 144.01 0, 179 0 M21 0 C53.39 0, 85.79 0, 179 0 M179 0 C193 0, 200 7, 200 21 M179 0 C193 0, 200 7, 200 21 M200 21 C200 32.04, 200 43.09, 200 63 M200 21 C200 30.9, 200 40.81, 200 63 M200 63 C200 77, 193 84, 179 84 M200 63 C200 77, 193 84, 179 84 M179 84 C143.22 84, 107.45 84, 21 84 M179 84 C117.87 84, 56.74 84, 21 84 M21 84 C7 84, 0 77, 0 63 M21 84 C7 84, 0 77, 0 63 M0 63 C0 50.61, 0 38.22, 0 21 M0 63 C0 51.42, 0 39.84, 0 21 M0 21 C0 7, 7 0, 21 0 M0 21 C0 7, 7 0, 21 0" stroke="#000000" stroke-width="1" fill="none"></path></g><g transform="translate(608 417) rotate(0 39 11.5)"><text x="39" y="19" font-family="Helvetica, Segoe UI Emoji" font-size="20px" fill="#000000" text-anchor="middle" style="white-space: pre;" direction="ltr">Broker 3</text></g><g stroke-linecap="round" transform="translate(556 458) rotate(0 44 16.5)"><path d="M8.25 0 M8.25 0 C32.21 0, 56.18 0, 79.75 0 M8.25 0 C29.08 0, 49.91 0, 79.75 0 M79.75 0 C85.25 0, 88 2.75, 88 8.25 M79.75 0 C85.25 0, 88 2.75, 88 8.25 M88 8.25 C88 13.2, 88 18.15, 88 24.75 M88 8.25 C88 13.73, 88 19.2, 88 24.75 M88 24.75 C88 30.25, 85.25 33, 79.75 33 M88 24.75 C88 30.25, 85.25 33, 79.75 33 M79.75 33 C51.49 33, 23.23 33, 8.25 33 M79.75 33 C56.05 33, 32.35 33, 8.25 33 M8.25 33 C2.75 33, 0 30.25, 0 24.75 M8.25 33 C2.75 33, 0 30.25, 0 24.75 M0 24.75 C0 19.53, 0 14.32, 0 8.25 M0 24.75 C0 20.14, 0 15.52, 0 8.25 M0 8.25 C0 2.75, 2.75 0, 8.25 0 M0 8.25 C0 2.75, 2.75 0, 8.25 0" stroke="#000000" stroke-width="1" fill="none"></path></g><g transform="translate(573 465.5) rotate(0 27 9)"><text x="27" y="15" font-family="Helvetica, Segoe UI Emoji" font-size="16px" fill="#000000" text-anchor="middle" style="white-space: pre;" direction="ltr">Topic A</text></g><g stroke-linecap="round" transform="translate(652 458.5) rotate(0 44 16.5)"><path d="M8.25 0 M8.25 0 C22.68 0, 37.1 0, 79.75 0 M8.25 0 C25.83 0, 43.41 0, 79.75 0 M79.75 0 C85.25 0, 88 2.75, 88 8.25 M79.75 0 C85.25 0, 88 2.75, 88 8.25 M88 8.25 C88 11.79, 88 15.33, 88 24.75 M88 8.25 C88 13.55, 88 18.86, 88 24.75 M88 24.75 C88 30.25, 85.25 33, 79.75 33 M88 24.75 C88 30.25, 85.25 33, 79.75 33 M79.75 33 C65.43 33, 51.12 33, 8.25 33 M79.75 33 C54.84 33, 29.94 33, 8.25 33 M8.25 33 C2.75 33, 0 30.25, 0 24.75 M8.25 33 C2.75 33, 0 30.25, 0 24.75 M0 24.75 C0 18.38, 0 12.01, 0 8.25 M0 24.75 C0 18.4, 0 12.06, 0 8.25 M0 8.25 C0 2.75, 2.75 0, 8.25 0 M0 8.25 C0 2.75, 2.75 0, 8.25 0" stroke="#000000" stroke-width="1" fill="none"></path></g><g transform="translate(669 466) rotate(0 27 9)"><text x="27" y="15" font-family="Helvetica, Segoe UI Emoji" font-size="16px" fill="#000000" text-anchor="middle" style="white-space: pre;" direction="ltr">Topic B</text></g></svg>