<svg version="1.1" xmlns="http://www.w3.org/2000/svg" viewBox="0 0 941 660.25" width="941" height="660.25" filter="invert(93%) hue-rotate(180deg)">
  <!-- svg-source:excalidraw -->
  
  <defs>
    <style class="style-fonts">
      @font-face {
        font-family: "Virgil";
        src: url("https://excalidraw.com/Virgil.woff2");
      }
      @font-face {
        font-family: "Cascadia";
        src: url("https://excalidraw.com/Cascadia.woff2");
      }
    </style>
  </defs>
  <rect x="0" y="0" width="941" height="660.25" fill="#ffffff"></rect><g stroke-linecap="round" transform="translate(561 48.25) rotate(0 185 301)"><path d="M0 0 C81.18 0, 162.36 0, 370 0 M0 0 C83.44 0, 166.87 0, 370 0 M370 0 C370 205.12, 370 410.25, 370 602 M370 0 C370 128.61, 370 257.23, 370 602 M370 602 C240.45 602, 110.9 602, 0 602 M370 602 C252.38 602, 134.76 602, 0 602 M0 602 C0 448.74, 0 295.47, 0 0 M0 602 C0 462.68, 0 323.37, 0 0" stroke="#2b8a3e" stroke-width="2" fill="none"></path></g><g transform="translate(676 13.75) rotate(0 67 16)"><text x="67" y="26" font-family="Helvetica, Segoe UI Emoji" font-size="28px" fill="#2b8a3e" text-anchor="middle" style="white-space: pre;" direction="ltr">Mongo DB</text></g><g stroke-linecap="round" transform="translate(580 94.25) rotate(0 165.5 122)"><path d="M0 0 C110.41 0, 220.82 0, 331 0 M0 0 C80.43 0, 160.86 0, 331 0 M331 0 C331 60.11, 331 120.21, 331 244 M331 0 C331 68.74, 331 137.48, 331 244 M331 244 C203.25 244, 75.5 244, 0 244 M331 244 C242.33 244, 153.66 244, 0 244 M0 244 C0 186.1, 0 128.21, 0 0 M0 244 C0 155.52, 0 67.05, 0 0" stroke="#1864ab" stroke-width="1" fill="none"></path></g><g transform="translate(699 70.75) rotate(0 44 11.5)"><text x="44" y="19" font-family="Helvetica, Segoe UI Emoji" font-size="20px" fill="#1864ab" text-anchor="middle" style="white-space: pre;" direction="ltr">Database</text></g><g stroke-linecap="round" transform="translate(594 133.25) rotate(0 72 94)"><path d="M0 0 C46.14 0, 92.28 0, 144 0 M0 0 C55.47 0, 110.94 0, 144 0 M144 0 C144 73.25, 144 146.49, 144 188 M144 0 C144 40.23, 144 80.46, 144 188 M144 188 C113.9 188, 83.8 188, 0 188 M144 188 C113.35 188, 82.69 188, 0 188 M0 188 C0 131.25, 0 74.49, 0 0 M0 188 C0 115.26, 0 42.53, 0 0" stroke="#c92a2a" stroke-width="1" fill="none"></path></g><g transform="translate(629 112.25) rotate(0 36 9)"><text x="36" y="15" font-family="Helvetica, Segoe UI Emoji" font-size="16px" fill="#c92a2a" text-anchor="middle" style="white-space: pre;" direction="ltr">Collection</text></g><g stroke-linecap="round" transform="translate(601 168.25) rotate(0 64 15)"><path d="M0 0 C48.83 0, 97.65 0, 128 0 M0 0 C31.01 0, 62.03 0, 128 0 M128 0 C128 9.88, 128 19.76, 128 30 M128 0 C128 11.31, 128 22.62, 128 30 M128 30 C84.19 30, 40.38 30, 0 30 M128 30 C101.14 30, 74.28 30, 0 30 M0 30 C0 19.17, 0 8.34, 0 0 M0 30 C0 21.84, 0 13.68, 0 0" stroke="#000000" stroke-width="1" fill="none"></path></g><g transform="translate(631.5 144.75) rotate(0 37.5 9)"><text x="37.5" y="15" font-family="Helvetica, Segoe UI Emoji" font-size="16px" fill="#000000" text-anchor="middle" style="white-space: pre;" direction="ltr">Documetn</text></g><g stroke-linecap="round" transform="translate(581.5 375) rotate(0 165.5 122)"><path d="M0 0 C115.76 0, 231.51 0, 331 0 M0 0 C87.38 0, 174.76 0, 331 0 M331 0 C331 83.72, 331 167.44, 331 244 M331 0 C331 55.72, 331 111.44, 331 244 M331 244 C239.33 244, 147.67 244, 0 244 M331 244 C228.18 244, 125.35 244, 0 244 M0 244 C0 185.66, 0 127.32, 0 0 M0 244 C0 161.24, 0 78.47, 0 0" stroke="#1864ab" stroke-width="1" fill="none"></path></g><g transform="translate(700.5 351.5) rotate(0 44 11.5)"><text x="44" y="19" font-family="Helvetica, Segoe UI Emoji" font-size="20px" fill="#1864ab" text-anchor="middle" style="white-space: pre;" direction="ltr">Database</text></g><g stroke-linecap="round" transform="translate(10 44.5) rotate(0 185 301)"><path d="M0 0 C134 0, 267.99 0, 370 0 M0 0 C112.05 0, 224.11 0, 370 0 M370 0 C370 129.48, 370 258.96, 370 602 M370 0 C370 172.63, 370 345.26, 370 602 M370 602 C280.29 602, 190.57 602, 0 602 M370 602 C227 602, 84 602, 0 602 M0 602 C0 407.16, 0 212.32, 0 0 M0 602 C0 438.69, 0 275.38, 0 0" stroke="#2b8a3e" stroke-width="2" fill="none"></path></g><g transform="translate(144.5 10) rotate(0 47.5 16)"><text x="47.5" y="26" font-family="Helvetica, Segoe UI Emoji" font-size="28px" fill="#2b8a3e" text-anchor="middle" style="white-space: pre;" direction="ltr">MySQL</text></g><g stroke-linecap="round" transform="translate(29 90.5) rotate(0 165.5 122)"><path d="M0 0 C115.71 0, 231.41 0, 331 0 M0 0 C75.41 0, 150.83 0, 331 0 M331 0 C331 58.85, 331 117.69, 331 244 M331 0 C331 84.14, 331 168.29, 331 244 M331 244 C218.39 244, 105.79 244, 0 244 M331 244 C249.33 244, 167.67 244, 0 244 M0 244 C0 157.24, 0 70.47, 0 0 M0 244 C0 166.31, 0 88.61, 0 0" stroke="#1864ab" stroke-width="1" fill="none"></path></g><g transform="translate(148 67) rotate(0 44 11.5)"><text x="44" y="19" font-family="Helvetica, Segoe UI Emoji" font-size="20px" fill="#1864ab" text-anchor="middle" style="white-space: pre;" direction="ltr">Database</text></g><g stroke-linecap="round" transform="translate(204 129) rotate(0 72 94)"><path d="M0 0 C52.91 0, 105.81 0, 144 0 M0 0 C33.58 0, 67.16 0, 144 0 M144 0 C144 48.03, 144 96.07, 144 188 M144 0 C144 63.97, 144 127.93, 144 188 M144 188 C90.38 188, 36.75 188, 0 188 M144 188 C106.58 188, 69.17 188, 0 188 M0 188 C0 118.09, 0 48.19, 0 0 M0 188 C0 148.77, 0 109.54, 0 0" stroke="#c92a2a" stroke-width="1" fill="none"></path></g><g transform="translate(255 108) rotate(0 20 9)"><text x="20" y="15" font-family="Helvetica, Segoe UI Emoji" font-size="16px" fill="#c92a2a" text-anchor="middle" style="white-space: pre;" direction="ltr">Table</text></g><g stroke-linecap="round" transform="translate(211 167) rotate(0 64 15)"><path d="M0 0 C38.06 0, 76.13 0, 128 0 M0 0 C45.04 0, 90.07 0, 128 0 M128 0 C128 9.25, 128 18.5, 128 30 M128 0 C128 11.21, 128 22.42, 128 30 M128 30 C92.26 30, 56.53 30, 0 30 M128 30 C83.93 30, 39.86 30, 0 30 M0 30 C0 20.63, 0 11.27, 0 0 M0 30 C0 21.67, 0 13.34, 0 0" stroke="#000000" stroke-width="1" fill="none"></path></g><g transform="translate(242.5 173) rotate(0 32.5 9)"><text x="32.5" y="15" font-family="Helvetica, Segoe UI Emoji" font-size="16px" fill="#000000" text-anchor="middle" style="white-space: pre;" direction="ltr">Columns</text></g><g transform="translate(224 144.5) rotate(0 49 9)"><text x="49" y="15" font-family="Helvetica, Segoe UI Emoji" font-size="16px" fill="#000000" text-anchor="middle" style="white-space: pre;" direction="ltr">Register/Row</text></g><g stroke-linecap="round" transform="translate(30.5 371.25) rotate(0 165.5 122)"><path d="M0 0 C99.64 0, 199.27 0, 331 0 M0 0 C122.4 0, 244.8 0, 331 0 M331 0 C331 77.87, 331 155.74, 331 244 M331 0 C331 75.12, 331 150.24, 331 244 M331 244 C240.46 244, 149.93 244, 0 244 M331 244 C252.49 244, 173.99 244, 0 244 M0 244 C0 163.47, 0 82.94, 0 0 M0 244 C0 160.18, 0 76.36, 0 0" stroke="#1864ab" stroke-width="1" fill="none"></path></g><g transform="translate(149.5 347.75) rotate(0 44 11.5)"><text x="44" y="19" font-family="Helvetica, Segoe UI Emoji" font-size="20px" fill="#1864ab" text-anchor="middle" style="white-space: pre;" direction="ltr">Database</text></g><g stroke-linecap="round"><g transform="translate(308 118.25) rotate(0 158 1.5)"><path d="M0 0 C106.49 1.01, 212.98 2.02, 316 3 M0 0 C124.82 1.19, 249.64 2.37, 316 3" stroke="#000000" stroke-width="2" fill="none"></path></g></g><mask></mask><g stroke-linecap="round"><g transform="translate(341 154.25) rotate(0 142 1)"><path d="M0 0 C95.71 0.67, 191.42 1.35, 284 2 M0 0 C110.1 0.78, 220.19 1.55, 284 2" stroke="#000000" stroke-width="2" fill="none"></path></g></g><mask></mask><g transform="translate(643.5 173.75) rotate(0 22.5 9)"><text x="22.5" y="15" font-family="Helvetica, Segoe UI Emoji" font-size="16px" fill="#000000" text-anchor="middle" style="white-space: pre;" direction="ltr">Fields</text></g><g stroke-linecap="round" transform="translate(602 239) rotate(0 64 15)"><path d="M0 0 C30.82 0, 61.63 0, 128 0 M0 0 C48.05 0, 96.1 0, 128 0 M128 0 C128 9.04, 128 18.08, 128 30 M128 0 C128 9.62, 128 19.24, 128 30 M128 30 C81.17 30, 34.33 30, 0 30 M128 30 C94.68 30, 61.35 30, 0 30 M0 30 C0 18.23, 0 6.46, 0 0 M0 30 C0 20, 0 10.01, 0 0" stroke="#000000" stroke-width="1" fill="none"></path></g><g transform="translate(632.5 215.5) rotate(0 37.5 9)"><text x="37.5" y="15" font-family="Helvetica, Segoe UI Emoji" font-size="16px" fill="#000000" text-anchor="middle" style="white-space: pre;" direction="ltr">Documetn</text></g><g transform="translate(643.5 244.5) rotate(0 22.5 9)"><text x="22.5" y="15" font-family="Helvetica, Segoe UI Emoji" font-size="16px" fill="#000000" text-anchor="middle" style="white-space: pre;" direction="ltr">Fields</text></g><g stroke-linecap="round" transform="translate(212 245.5) rotate(0 64 15)"><path d="M0 0 C50.74 0, 101.48 0, 128 0 M0 0 C49.66 0, 99.32 0, 128 0 M128 0 C128 11.17, 128 22.34, 128 30 M128 0 C128 6.92, 128 13.83, 128 30 M128 30 C90.34 30, 52.68 30, 0 30 M128 30 C78.73 30, 29.47 30, 0 30 M0 30 C0 23.61, 0 17.23, 0 0 M0 30 C0 19.33, 0 8.66, 0 0" stroke="#000000" stroke-width="1" fill="none"></path></g><g transform="translate(243.5 251.5) rotate(0 32.5 9)"><text x="32.5" y="15" font-family="Helvetica, Segoe UI Emoji" font-size="16px" fill="#000000" text-anchor="middle" style="white-space: pre;" direction="ltr">Columns</text></g><g transform="translate(225 223) rotate(0 49 9)"><text x="49" y="15" font-family="Helvetica, Segoe UI Emoji" font-size="16px" fill="#000000" text-anchor="middle" style="white-space: pre;" direction="ltr">Register/Row</text></g><g stroke-linecap="round"><g transform="translate(324 184.25) rotate(0 157 1)"><path d="M0 0 C71.48 0.46, 142.95 0.91, 314 2 M0 0 C72.63 0.46, 145.25 0.93, 314 2" stroke="#000000" stroke-width="2" fill="none"></path></g></g><mask></mask><g stroke-linecap="round" transform="translate(43 128.75) rotate(0 72 94)"><path d="M0 0 C43.31 0, 86.62 0, 144 0 M0 0 C50.98 0, 101.96 0, 144 0 M144 0 C144 61.33, 144 122.66, 144 188 M144 0 C144 50.03, 144 100.06, 144 188 M144 188 C110.91 188, 77.83 188, 0 188 M144 188 C101.82 188, 59.64 188, 0 188 M0 188 C0 120.31, 0 52.63, 0 0 M0 188 C0 118.87, 0 49.74, 0 0" stroke="#c92a2a" stroke-width="1" fill="none"></path></g><g transform="translate(94 107.75) rotate(0 20 9)"><text x="20" y="15" font-family="Helvetica, Segoe UI Emoji" font-size="16px" fill="#c92a2a" text-anchor="middle" style="white-space: pre;" direction="ltr">Table</text></g><g stroke-linecap="round" transform="translate(50 166.75) rotate(0 64 15)"><path d="M0 0 C45.44 0, 90.89 0, 128 0 M0 0 C31.31 0, 62.62 0, 128 0 M128 0 C128 7.27, 128 14.53, 128 30 M128 0 C128 8.27, 128 16.53, 128 30 M128 30 C102.11 30, 76.23 30, 0 30 M128 30 C87.57 30, 47.14 30, 0 30 M0 30 C0 19.24, 0 8.47, 0 0 M0 30 C0 23.9, 0 17.79, 0 0" stroke="#000000" stroke-width="1" fill="none"></path></g><g transform="translate(81.5 172.75) rotate(0 32.5 9)"><text x="32.5" y="15" font-family="Helvetica, Segoe UI Emoji" font-size="16px" fill="#000000" text-anchor="middle" style="white-space: pre;" direction="ltr">Columns</text></g><g transform="translate(63 144.25) rotate(0 49 9)"><text x="49" y="15" font-family="Helvetica, Segoe UI Emoji" font-size="16px" fill="#000000" text-anchor="middle" style="white-space: pre;" direction="ltr">Register/Row</text></g><g stroke-linecap="round" transform="translate(51 245.25) rotate(0 64 15)"><path d="M0 0 C26.14 0, 52.29 0, 128 0 M0 0 C32.07 0, 64.14 0, 128 0 M128 0 C128 11.45, 128 22.9, 128 30 M128 0 C128 9.25, 128 18.5, 128 30 M128 30 C82.75 30, 37.5 30, 0 30 M128 30 C97.9 30, 67.8 30, 0 30 M0 30 C0 22.26, 0 14.51, 0 0 M0 30 C0 21.21, 0 12.42, 0 0" stroke="#000000" stroke-width="1" fill="none"></path></g><g transform="translate(82.5 251.25) rotate(0 32.5 9)"><text x="32.5" y="15" font-family="Helvetica, Segoe UI Emoji" font-size="16px" fill="#000000" text-anchor="middle" style="white-space: pre;" direction="ltr">Columns</text></g><g transform="translate(64 222.75) rotate(0 49 9)"><text x="49" y="15" font-family="Helvetica, Segoe UI Emoji" font-size="16px" fill="#000000" text-anchor="middle" style="white-space: pre;" direction="ltr">Register/Row</text></g><g stroke-linecap="round" transform="translate(43 408.75) rotate(0 72 94)"><path d="M0 0 C48.59 0, 97.18 0, 144 0 M0 0 C41.61 0, 83.21 0, 144 0 M144 0 C144 62.41, 144 124.81, 144 188 M144 0 C144 54.62, 144 109.24, 144 188 M144 188 C94.29 188, 44.57 188, 0 188 M144 188 C98.37 188, 52.75 188, 0 188 M0 188 C0 116.59, 0 45.17, 0 0 M0 188 C0 135.45, 0 82.89, 0 0" stroke="#c92a2a" stroke-width="1" fill="none"></path></g><g transform="translate(94 387.75) rotate(0 20 9)"><text x="20" y="15" font-family="Helvetica, Segoe UI Emoji" font-size="16px" fill="#c92a2a" text-anchor="middle" style="white-space: pre;" direction="ltr">Table</text></g><g stroke-linecap="round" transform="translate(50 446.75) rotate(0 64 15)"><path d="M0 0 C42.99 0, 85.98 0, 128 0 M0 0 C33.88 0, 67.76 0, 128 0 M128 0 C128 7.96, 128 15.92, 128 30 M128 0 C128 6.01, 128 12.02, 128 30 M128 30 C84.34 30, 40.68 30, 0 30 M128 30 C98.31 30, 68.62 30, 0 30 M0 30 C0 22.45, 0 14.89, 0 0 M0 30 C0 23.08, 0 16.17, 0 0" stroke="#000000" stroke-width="1" fill="none"></path></g><g transform="translate(81.5 452.75) rotate(0 32.5 9)"><text x="32.5" y="15" font-family="Helvetica, Segoe UI Emoji" font-size="16px" fill="#000000" text-anchor="middle" style="white-space: pre;" direction="ltr">Columns</text></g><g transform="translate(63 424.25) rotate(0 49 9)"><text x="49" y="15" font-family="Helvetica, Segoe UI Emoji" font-size="16px" fill="#000000" text-anchor="middle" style="white-space: pre;" direction="ltr">Register/Row</text></g><g stroke-linecap="round" transform="translate(51 525.25) rotate(0 64 15)"><path d="M0 0 C26.41 0, 52.81 0, 128 0 M0 0 C38.67 0, 77.35 0, 128 0 M128 0 C128 6.49, 128 12.99, 128 30 M128 0 C128 9.22, 128 18.45, 128 30 M128 30 C86.14 30, 44.29 30, 0 30 M128 30 C97.45 30, 66.9 30, 0 30 M0 30 C0 19.43, 0 8.85, 0 0 M0 30 C0 21.82, 0 13.65, 0 0" stroke="#000000" stroke-width="1" fill="none"></path></g><g transform="translate(82.5 531.25) rotate(0 32.5 9)"><text x="32.5" y="15" font-family="Helvetica, Segoe UI Emoji" font-size="16px" fill="#000000" text-anchor="middle" style="white-space: pre;" direction="ltr">Columns</text></g><g transform="translate(64 502.75) rotate(0 49 9)"><text x="49" y="15" font-family="Helvetica, Segoe UI Emoji" font-size="16px" fill="#000000" text-anchor="middle" style="white-space: pre;" direction="ltr">Register/Row</text></g><g stroke-linecap="round" transform="translate(204 409.75) rotate(0 72 94)"><path d="M0 0 C56.45 0, 112.9 0, 144 0 M0 0 C35.57 0, 71.14 0, 144 0 M144 0 C144 59.72, 144 119.45, 144 188 M144 0 C144 45.83, 144 91.65, 144 188 M144 188 C114.29 188, 84.57 188, 0 188 M144 188 C91.29 188, 38.58 188, 0 188 M0 188 C0 122.43, 0 56.86, 0 0 M0 188 C0 122.13, 0 56.26, 0 0" stroke="#c92a2a" stroke-width="1" fill="none"></path></g><g transform="translate(255 388.75) rotate(0 20 9)"><text x="20" y="15" font-family="Helvetica, Segoe UI Emoji" font-size="16px" fill="#c92a2a" text-anchor="middle" style="white-space: pre;" direction="ltr">Table</text></g><g stroke-linecap="round" transform="translate(211 447.75) rotate(0 64 15)"><path d="M0 0 C26.29 0, 52.57 0, 128 0 M0 0 C30.21 0, 60.43 0, 128 0 M128 0 C128 6.97, 128 13.94, 128 30 M128 0 C128 11.04, 128 22.09, 128 30 M128 30 C101.66 30, 75.33 30, 0 30 M128 30 C80.95 30, 33.9 30, 0 30 M0 30 C0 22.66, 0 15.32, 0 0 M0 30 C0 18.83, 0 7.66, 0 0" stroke="#000000" stroke-width="1" fill="none"></path></g><g transform="translate(242.5 453.75) rotate(0 32.5 9)"><text x="32.5" y="15" font-family="Helvetica, Segoe UI Emoji" font-size="16px" fill="#000000" text-anchor="middle" style="white-space: pre;" direction="ltr">Columns</text></g><g transform="translate(224 425.25) rotate(0 49 9)"><text x="49" y="15" font-family="Helvetica, Segoe UI Emoji" font-size="16px" fill="#000000" text-anchor="middle" style="white-space: pre;" direction="ltr">Register/Row</text></g><g stroke-linecap="round" transform="translate(212 526.25) rotate(0 64 15)"><path d="M0 0 C31.93 0, 63.86 0, 128 0 M0 0 C25.78 0, 51.56 0, 128 0 M128 0 C128 11.02, 128 22.04, 128 30 M128 0 C128 10.72, 128 21.44, 128 30 M128 30 C90.53 30, 53.05 30, 0 30 M128 30 C97.31 30, 66.61 30, 0 30 M0 30 C0 21.7, 0 13.4, 0 0 M0 30 C0 21.66, 0 13.33, 0 0" stroke="#000000" stroke-width="1" fill="none"></path></g><g transform="translate(243.5 532.25) rotate(0 32.5 9)"><text x="32.5" y="15" font-family="Helvetica, Segoe UI Emoji" font-size="16px" fill="#000000" text-anchor="middle" style="white-space: pre;" direction="ltr">Columns</text></g><g transform="translate(225 503.75) rotate(0 49 9)"><text x="49" y="15" font-family="Helvetica, Segoe UI Emoji" font-size="16px" fill="#000000" text-anchor="middle" style="white-space: pre;" direction="ltr">Register/Row</text></g><g stroke-linecap="round" transform="translate(751 132.75) rotate(0 72 94)"><path d="M0 0 C42.9 0, 85.8 0, 144 0 M0 0 C41.18 0, 82.35 0, 144 0 M144 0 C144 72.62, 144 145.24, 144 188 M144 0 C144 70.04, 144 140.08, 144 188 M144 188 C87.19 188, 30.39 188, 0 188 M144 188 C111.47 188, 78.95 188, 0 188 M0 188 C0 145.99, 0 103.97, 0 0 M0 188 C0 139.17, 0 90.34, 0 0" stroke="#c92a2a" stroke-width="1" fill="none"></path></g><g transform="translate(786 111.75) rotate(0 36 9)"><text x="36" y="15" font-family="Helvetica, Segoe UI Emoji" font-size="16px" fill="#c92a2a" text-anchor="middle" style="white-space: pre;" direction="ltr">Collection</text></g><g stroke-linecap="round" transform="translate(758 167.75) rotate(0 64 15)"><path d="M0 0 C41.9 0, 83.8 0, 128 0 M0 0 C36.71 0, 73.42 0, 128 0 M128 0 C128 6.66, 128 13.32, 128 30 M128 0 C128 7.44, 128 14.87, 128 30 M128 30 C83.15 30, 38.31 30, 0 30 M128 30 C96.05 30, 64.11 30, 0 30 M0 30 C0 20.5, 0 11, 0 0 M0 30 C0 23.03, 0 16.07, 0 0" stroke="#000000" stroke-width="1" fill="none"></path></g><g transform="translate(788.5 144.25) rotate(0 37.5 9)"><text x="37.5" y="15" font-family="Helvetica, Segoe UI Emoji" font-size="16px" fill="#000000" text-anchor="middle" style="white-space: pre;" direction="ltr">Documetn</text></g><g transform="translate(800.5 173.25) rotate(0 22.5 9)"><text x="22.5" y="15" font-family="Helvetica, Segoe UI Emoji" font-size="16px" fill="#000000" text-anchor="middle" style="white-space: pre;" direction="ltr">Fields</text></g><g stroke-linecap="round" transform="translate(759 238.5) rotate(0 64 15)"><path d="M0 0 C48.86 0, 97.72 0, 128 0 M0 0 C31.5 0, 63 0, 128 0 M128 0 C128 8.95, 128 17.91, 128 30 M128 0 C128 10.91, 128 21.82, 128 30 M128 30 C87.32 30, 46.63 30, 0 30 M128 30 C88.51 30, 49.03 30, 0 30 M0 30 C0 18.21, 0 6.41, 0 0 M0 30 C0 20.41, 0 10.82, 0 0" stroke="#000000" stroke-width="1" fill="none"></path></g><g transform="translate(789.5 215) rotate(0 37.5 9)"><text x="37.5" y="15" font-family="Helvetica, Segoe UI Emoji" font-size="16px" fill="#000000" text-anchor="middle" style="white-space: pre;" direction="ltr">Documetn</text></g><g transform="translate(800.5 244) rotate(0 22.5 9)"><text x="22.5" y="15" font-family="Helvetica, Segoe UI Emoji" font-size="16px" fill="#000000" text-anchor="middle" style="white-space: pre;" direction="ltr">Fields</text></g><g stroke-linecap="round" transform="translate(596 414.75) rotate(0 72 94)"><path d="M0 0 C54.9 0, 109.81 0, 144 0 M0 0 C44.2 0, 88.39 0, 144 0 M144 0 C144 66.08, 144 132.16, 144 188 M144 0 C144 37.83, 144 75.65, 144 188 M144 188 C113.07 188, 82.14 188, 0 188 M144 188 C99.65 188, 55.29 188, 0 188 M0 188 C0 125.8, 0 63.6, 0 0 M0 188 C0 127.95, 0 67.91, 0 0" stroke="#c92a2a" stroke-width="1" fill="none"></path></g><g transform="translate(631 393.75) rotate(0 36 9)"><text x="36" y="15" font-family="Helvetica, Segoe UI Emoji" font-size="16px" fill="#c92a2a" text-anchor="middle" style="white-space: pre;" direction="ltr">Collection</text></g><g stroke-linecap="round" transform="translate(603 449.75) rotate(0 64 15)"><path d="M0 0 C39.11 0, 78.22 0, 128 0 M0 0 C41.74 0, 83.48 0, 128 0 M128 0 C128 11.42, 128 22.83, 128 30 M128 0 C128 6.63, 128 13.25, 128 30 M128 30 C96.33 30, 64.67 30, 0 30 M128 30 C97.18 30, 66.35 30, 0 30 M0 30 C0 20.2, 0 10.4, 0 0 M0 30 C0 22.13, 0 14.26, 0 0" stroke="#000000" stroke-width="1" fill="none"></path></g><g transform="translate(633.5 426.25) rotate(0 37.5 9)"><text x="37.5" y="15" font-family="Helvetica, Segoe UI Emoji" font-size="16px" fill="#000000" text-anchor="middle" style="white-space: pre;" direction="ltr">Documetn</text></g><g transform="translate(645.5 455.25) rotate(0 22.5 9)"><text x="22.5" y="15" font-family="Helvetica, Segoe UI Emoji" font-size="16px" fill="#000000" text-anchor="middle" style="white-space: pre;" direction="ltr">Fields</text></g><g stroke-linecap="round" transform="translate(604 520.5) rotate(0 64 15)"><path d="M0 0 C44.09 0, 88.18 0, 128 0 M0 0 C43.86 0, 87.73 0, 128 0 M128 0 C128 10.3, 128 20.6, 128 30 M128 0 C128 7.64, 128 15.29, 128 30 M128 30 C82.42 30, 36.83 30, 0 30 M128 30 C97.82 30, 67.64 30, 0 30 M0 30 C0 20.91, 0 11.83, 0 0 M0 30 C0 23.41, 0 16.82, 0 0" stroke="#000000" stroke-width="1" fill="none"></path></g><g transform="translate(634.5 497) rotate(0 37.5 9)"><text x="37.5" y="15" font-family="Helvetica, Segoe UI Emoji" font-size="16px" fill="#000000" text-anchor="middle" style="white-space: pre;" direction="ltr">Documetn</text></g><g transform="translate(645.5 526) rotate(0 22.5 9)"><text x="22.5" y="15" font-family="Helvetica, Segoe UI Emoji" font-size="16px" fill="#000000" text-anchor="middle" style="white-space: pre;" direction="ltr">Fields</text></g><g stroke-linecap="round" transform="translate(756 413.75) rotate(0 72 94)"><path d="M0 0 C39.48 0, 78.96 0, 144 0 M0 0 C40.06 0, 80.13 0, 144 0 M144 0 C144 66.19, 144 132.38, 144 188 M144 0 C144 62.05, 144 124.11, 144 188 M144 188 C93.79 188, 43.58 188, 0 188 M144 188 C114.34 188, 84.67 188, 0 188 M0 188 C0 129.22, 0 70.45, 0 0 M0 188 C0 124.22, 0 60.43, 0 0" stroke="#c92a2a" stroke-width="1" fill="none"></path></g><g transform="translate(791 392.75) rotate(0 36 9)"><text x="36" y="15" font-family="Helvetica, Segoe UI Emoji" font-size="16px" fill="#c92a2a" text-anchor="middle" style="white-space: pre;" direction="ltr">Collection</text></g><g stroke-linecap="round" transform="translate(763 448.75) rotate(0 64 15)"><path d="M0 0 C28.58 0, 57.15 0, 128 0 M0 0 C32.07 0, 64.14 0, 128 0 M128 0 C128 8.54, 128 17.09, 128 30 M128 0 C128 10.48, 128 20.96, 128 30 M128 30 C81.95 30, 35.91 30, 0 30 M128 30 C93.83 30, 59.67 30, 0 30 M0 30 C0 21.84, 0 13.69, 0 0 M0 30 C0 19.77, 0 9.53, 0 0" stroke="#000000" stroke-width="1" fill="none"></path></g><g transform="translate(793.5 425.25) rotate(0 37.5 9)"><text x="37.5" y="15" font-family="Helvetica, Segoe UI Emoji" font-size="16px" fill="#000000" text-anchor="middle" style="white-space: pre;" direction="ltr">Documetn</text></g><g transform="translate(805.5 454.25) rotate(0 22.5 9)"><text x="22.5" y="15" font-family="Helvetica, Segoe UI Emoji" font-size="16px" fill="#000000" text-anchor="middle" style="white-space: pre;" direction="ltr">Fields</text></g><g stroke-linecap="round" transform="translate(764 519.5) rotate(0 64 15)"><path d="M0 0 C49.86 0, 99.71 0, 128 0 M0 0 C28.17 0, 56.33 0, 128 0 M128 0 C128 9.67, 128 19.33, 128 30 M128 0 C128 9.16, 128 18.32, 128 30 M128 30 C94.87 30, 61.73 30, 0 30 M128 30 C89.58 30, 51.16 30, 0 30 M0 30 C0 22.87, 0 15.74, 0 0 M0 30 C0 19, 0 8, 0 0" stroke="#000000" stroke-width="1" fill="none"></path></g><g transform="translate(794.5 496) rotate(0 37.5 9)"><text x="37.5" y="15" font-family="Helvetica, Segoe UI Emoji" font-size="16px" fill="#000000" text-anchor="middle" style="white-space: pre;" direction="ltr">Documetn</text></g><g transform="translate(805.5 525) rotate(0 22.5 9)"><text x="22.5" y="15" font-family="Helvetica, Segoe UI Emoji" font-size="16px" fill="#000000" text-anchor="middle" style="white-space: pre;" direction="ltr">Fields</text></g></svg>