<svg version="1.1" xmlns="http://www.w3.org/2000/svg" viewBox="0 0 809.4285714285709 593.7142857142857" width="809.4285714285709" height="593.7142857142857" filter="invert(93%) hue-rotate(180deg)">
  <!-- svg-source:excalidraw -->
  
  <defs>
    <style class="style-fonts">
      @font-face {
        font-family: "Virgil";
        src: url("https://excalidraw.com/Virgil.woff2");
      }
      @font-face {
        font-family: "Cascadia";
        src: url("https://excalidraw.com/Cascadia.woff2");
      }
    </style>
  </defs>
  <rect x="0" y="0" width="809.4285714285709" height="593.7142857142857" fill="#ffffff"></rect><g stroke-linecap="round" transform="translate(10 10) rotate(0 139 40.5)"><path d="M5.39 4.69 C5.39 4.69, 5.39 4.69, 5.39 4.69 M5.39 4.69 C5.39 4.69, 5.39 4.69, 5.39 4.69 M1.19 15.61 C5.21 10.99, 9.22 6.38, 13 2.03 M1.19 15.61 C5.29 10.9, 9.38 6.19, 13 2.03 M0.93 22.01 C4.59 17.8, 8.26 13.58, 18.64 1.63 M0.93 22.01 C7.07 14.95, 13.2 7.9, 18.64 1.63 M0.67 28.41 C7.66 20.36, 14.65 12.32, 22.98 2.75 M0.67 28.41 C7.59 20.45, 14.51 12.49, 22.98 2.75 M1.06 34.05 C9.24 24.65, 17.41 15.25, 28.62 2.35 M1.06 34.05 C8.91 25.02, 16.76 16, 28.62 2.35 M0.8 40.45 C7.75 32.45, 14.7 24.46, 33.61 2.71 M0.8 40.45 C12.76 26.69, 24.72 12.94, 33.61 2.71 M0.54 46.85 C13.12 32.37, 25.71 17.9, 39.25 2.32 M0.54 46.85 C10.26 35.67, 19.98 24.49, 39.25 2.32 M0.94 52.49 C9.69 42.41, 18.45 32.34, 44.24 2.68 M0.94 52.49 C14.48 36.91, 28.02 21.33, 44.24 2.68 M0.67 58.89 C15.47 41.86, 30.28 24.83, 49.88 2.28 M0.67 58.89 C17.61 39.41, 34.54 19.93, 49.88 2.28 M1.07 64.53 C15.03 48.46, 29 32.4, 54.87 2.64 M1.07 64.53 C13.17 50.61, 25.28 36.68, 54.87 2.64 M3.43 67.91 C19.99 48.86, 36.55 29.82, 60.51 2.25 M3.43 67.91 C19.42 49.52, 35.4 31.13, 60.51 2.25 M3.83 73.55 C20.27 54.64, 36.71 35.73, 65.5 2.61 M3.83 73.55 C24.69 49.55, 45.55 25.55, 65.5 2.61 M6.19 76.93 C26.78 53.24, 47.38 29.55, 71.14 2.21 M6.19 76.93 C25.16 55.1, 44.14 33.28, 71.14 2.21 M9.86 78.8 C30.65 54.88, 51.45 30.97, 76.13 2.57 M9.86 78.8 C33.52 51.58, 57.18 24.37, 76.13 2.57 M12.88 81.42 C31.05 60.53, 49.22 39.63, 81.77 2.18 M12.88 81.42 C28.78 63.13, 44.68 44.84, 81.77 2.18 M17.87 81.78 C45.39 50.12, 72.91 18.46, 86.76 2.54 M17.87 81.78 C42.18 53.82, 66.48 25.86, 86.76 2.54 M22.2 82.9 C47.92 53.31, 73.64 23.73, 91.74 2.9 M22.2 82.9 C40.54 61.8, 58.88 40.71, 91.74 2.9 M27.84 82.5 C50.79 56.1, 73.74 29.7, 97.39 2.51 M27.84 82.5 C46.23 61.35, 64.62 40.2, 97.39 2.51 M32.83 82.86 C55.98 56.23, 79.13 29.6, 102.37 2.87 M32.83 82.86 C58.96 52.81, 85.09 22.75, 102.37 2.87 M38.47 82.47 C53.72 64.93, 68.97 47.39, 108.02 2.47 M38.47 82.47 C66.13 50.66, 93.78 18.84, 108.02 2.47 M43.46 82.83 C57.96 66.16, 72.45 49.48, 113 2.83 M43.46 82.83 C62.16 61.32, 80.85 39.82, 113 2.83 M49.1 82.44 C76.16 51.31, 103.21 20.19, 118.65 2.44 M49.1 82.44 C71.76 56.38, 94.41 30.32, 118.65 2.44 M54.09 82.8 C75.62 58.03, 97.15 33.27, 123.63 2.8 M54.09 82.8 C72.33 61.81, 90.57 40.83, 123.63 2.8 M59.08 83.16 C77.96 61.44, 96.84 39.72, 129.28 2.4 M59.08 83.16 C86.38 51.75, 113.69 20.34, 129.28 2.4 M64.72 82.76 C86.09 58.18, 107.46 33.59, 134.26 2.76 M64.72 82.76 C92.01 51.37, 119.3 19.97, 134.26 2.76 M69.71 83.12 C90.52 59.18, 111.33 35.24, 139.91 2.37 M69.71 83.12 C97.42 51.24, 125.14 19.36, 139.91 2.37 M75.35 82.73 C98.34 56.28, 121.33 29.84, 144.89 2.73 M75.35 82.73 C97.11 57.69, 118.88 32.66, 144.89 2.73 M80.34 83.09 C95.56 65.58, 110.77 48.07, 150.54 2.33 M80.34 83.09 C102.66 57.41, 124.98 31.74, 150.54 2.33 M85.98 82.69 C104.47 61.42, 122.97 40.15, 155.52 2.69 M85.98 82.69 C113.42 51.13, 140.85 19.57, 155.52 2.69 M90.97 83.05 C117.85 52.13, 144.74 21.2, 161.17 2.3 M90.97 83.05 C105.03 66.88, 119.09 50.71, 161.17 2.3 M96.61 82.66 C114.54 62.03, 132.47 41.4, 166.15 2.66 M96.61 82.66 C112.27 64.65, 127.93 46.63, 166.15 2.66 M101.6 83.02 C119.56 62.35, 137.53 41.69, 171.8 2.26 M101.6 83.02 C119.21 62.76, 136.81 42.51, 171.8 2.26 M107.24 82.62 C121.75 65.93, 136.26 49.24, 176.78 2.62 M107.24 82.62 C128.8 57.82, 150.36 33.02, 176.78 2.62 M112.23 82.98 C133.59 58.41, 154.94 33.85, 182.43 2.23 M112.23 82.98 C136.51 55.05, 160.79 27.12, 182.43 2.23 M117.87 82.59 C137.23 60.32, 156.58 38.06, 187.41 2.59 M117.87 82.59 C143.7 52.88, 169.53 23.16, 187.41 2.59 M122.86 82.95 C144.23 58.36, 165.61 33.77, 193.06 2.2 M122.86 82.95 C145.94 56.4, 169.02 29.84, 193.06 2.2 M128.5 82.55 C155.27 51.77, 182.03 20.98, 198.04 2.56 M128.5 82.55 C145.81 62.64, 163.12 42.73, 198.04 2.56 M133.49 82.91 C150.4 63.46, 167.31 44, 203.69 2.16 M133.49 82.91 C155.27 57.86, 177.06 32.8, 203.69 2.16 M139.13 82.52 C160.27 58.21, 181.4 33.89, 208.67 2.52 M139.13 82.52 C166.89 50.59, 194.65 18.66, 208.67 2.52 M144.12 82.88 C158.42 66.43, 172.73 49.97, 213.66 2.88 M144.12 82.88 C169.72 53.43, 195.32 23.98, 213.66 2.88 M149.76 82.49 C175.43 52.96, 201.09 23.44, 219.3 2.49 M149.76 82.49 C177.31 50.8, 204.85 19.11, 219.3 2.49 M154.75 82.85 C175.52 58.95, 196.29 35.06, 224.29 2.85 M154.75 82.85 C171.95 63.06, 189.14 43.28, 224.29 2.85 M160.39 82.45 C186.23 52.73, 212.07 23, 229.93 2.45 M160.39 82.45 C176.44 63.98, 192.5 45.52, 229.93 2.45 M165.38 82.81 C188.16 56.6, 210.95 30.39, 234.92 2.81 M165.38 82.81 C183.46 62.01, 201.54 41.21, 234.92 2.81 M171.02 82.42 C189.14 61.57, 207.27 40.72, 240.56 2.42 M171.02 82.42 C185.74 65.49, 200.46 48.56, 240.56 2.42 M176.01 82.78 C197.44 58.12, 218.87 33.47, 245.55 2.78 M176.01 82.78 C202.82 51.93, 229.63 21.09, 245.55 2.78 M181 83.14 C198.06 63.5, 215.13 43.87, 251.19 2.38 M181 83.14 C199.52 61.82, 218.05 40.51, 251.19 2.38 M186.64 82.74 C212.64 52.83, 238.64 22.92, 258.15 0.48 M186.64 82.74 C213.14 52.26, 239.64 21.77, 258.15 0.48 M191.63 83.1 C211.93 59.75, 232.23 36.39, 263.14 0.84 M191.63 83.1 C208.1 64.15, 224.58 45.19, 263.14 0.84 M197.27 82.71 C213.07 64.53, 228.87 46.36, 267.47 1.95 M197.27 82.71 C213.33 64.23, 229.39 45.76, 267.47 1.95 M202.26 83.07 C216.41 66.78, 230.57 50.5, 271.14 3.82 M202.26 83.07 C227.81 53.68, 253.35 24.29, 271.14 3.82 M207.9 82.67 C229.87 57.39, 251.85 32.12, 274.16 6.45 M207.9 82.67 C230.5 56.67, 253.11 30.67, 274.16 6.45 M212.89 83.03 C237.86 54.31, 262.83 25.58, 277.18 9.07 M212.89 83.03 C229.76 63.62, 246.63 44.22, 277.18 9.07 M218.53 82.64 C238.23 59.97, 257.94 37.3, 278.23 13.96 M218.53 82.64 C239.76 58.21, 261 33.78, 278.23 13.96 M223.52 83 C238.79 65.43, 254.06 47.86, 279.94 18.09 M223.52 83 C240.4 63.58, 257.28 44.16, 279.94 18.09 M229.16 82.6 C248.35 60.53, 267.53 38.46, 280.33 23.74 M229.16 82.6 C243.89 65.66, 258.62 48.72, 280.33 23.74 M234.15 82.96 C245.56 69.84, 256.97 56.71, 280.07 30.13 M234.15 82.96 C252.18 62.22, 270.21 41.48, 280.07 30.13 M239.79 82.57 C249.09 71.87, 258.4 61.16, 280.47 35.78 M239.79 82.57 C248.74 72.28, 257.69 61.98, 280.47 35.78 M244.78 82.93 C258.08 67.62, 271.39 52.32, 280.2 42.18 M244.78 82.93 C254.39 71.87, 264 60.82, 280.2 42.18 M250.42 82.54 C261.34 69.98, 272.25 57.42, 280.6 47.82 M250.42 82.54 C256.51 75.53, 262.61 68.52, 280.6 47.82 M255.41 82.9 C261.98 75.34, 268.55 67.78, 280.34 54.22 M255.41 82.9 C264.9 71.97, 274.4 61.04, 280.34 54.22 M260.39 83.26 C265.19 77.74, 269.98 72.23, 279.42 61.37 M260.39 83.26 C267.06 75.59, 273.73 67.92, 279.42 61.37 M269.97 78.33 C272.73 75.16, 275.49 71.99, 277.19 70.03 M269.97 78.33 C272.75 75.14, 275.52 71.95, 277.19 70.03" stroke="#ced4da" stroke-width="0.5" fill="none"></path><path d="M20.25 0 M20.25 0 C87.95 0, 155.65 0, 257.75 0 M20.25 0 C103.27 0, 186.29 0, 257.75 0 M257.75 0 C271.25 0, 278 6.75, 278 20.25 M257.75 0 C271.25 0, 278 6.75, 278 20.25 M278 20.25 C278 35.98, 278 51.71, 278 60.75 M278 20.25 C278 31, 278 41.75, 278 60.75 M278 60.75 C278 74.25, 271.25 81, 257.75 81 M278 60.75 C278 74.25, 271.25 81, 257.75 81 M257.75 81 C208.25 81, 158.74 81, 20.25 81 M257.75 81 C171.91 81, 86.08 81, 20.25 81 M20.25 81 C6.75 81, 0 74.25, 0 60.75 M20.25 81 C6.75 81, 0 74.25, 0 60.75 M0 60.75 C0 51.38, 0 42, 0 20.25 M0 60.75 C0 52.26, 0 43.77, 0 20.25 M0 20.25 C0 6.75, 6.75 0, 20.25 0 M0 20.25 C0 6.75, 6.75 0, 20.25 0" stroke="#000000" stroke-width="1" fill="none"></path></g><g transform="translate(89.5 34.5) rotate(0 59.5 16)"><text x="59.5" y="26" font-family="Helvetica, Segoe UI Emoji" font-size="28px" fill="#000000" text-anchor="middle" style="white-space: pre;" direction="ltr">Publisher</text></g><g stroke-linecap="round" transform="translate(521.4285714285709 11.714285714285694) rotate(0 139 40.5)"><path d="M5.39 4.69 C5.39 4.69, 5.39 4.69, 5.39 4.69 M5.39 4.69 C5.39 4.69, 5.39 4.69, 5.39 4.69 M1.19 15.61 C5.81 10.3, 10.42 4.99, 13 2.03 M1.19 15.61 C5.51 10.65, 9.82 5.69, 13 2.03 M0.93 22.01 C7.87 14.02, 14.81 6.04, 18.64 1.63 M0.93 22.01 C6.54 15.56, 12.15 9.1, 18.64 1.63 M0.67 28.41 C5.84 22.46, 11 16.52, 22.98 2.75 M0.67 28.41 C5.55 22.79, 10.43 17.17, 22.98 2.75 M1.06 34.05 C11.45 22.1, 21.84 10.15, 28.62 2.35 M1.06 34.05 C8.6 25.38, 16.14 16.7, 28.62 2.35 M0.8 40.45 C12.86 26.58, 24.92 12.7, 33.61 2.71 M0.8 40.45 C8.27 31.86, 15.73 23.28, 33.61 2.71 M0.54 46.85 C12.38 33.22, 24.22 19.6, 39.25 2.32 M0.54 46.85 C9.49 36.55, 18.45 26.25, 39.25 2.32 M0.94 52.49 C11.67 40.14, 22.41 27.79, 44.24 2.68 M0.94 52.49 C18.23 32.59, 35.52 12.7, 44.24 2.68 M0.67 58.89 C15.15 42.24, 29.62 25.59, 49.88 2.28 M0.67 58.89 C13.91 43.66, 27.15 28.43, 49.88 2.28 M1.07 64.53 C21.49 41.04, 41.92 17.54, 54.87 2.64 M1.07 64.53 C20.43 42.25, 39.8 19.97, 54.87 2.64 M3.43 67.91 C24.27 43.94, 45.11 19.96, 60.51 2.25 M3.43 67.91 C16.76 52.58, 30.08 37.25, 60.51 2.25 M3.83 73.55 C17.85 57.42, 31.87 41.29, 65.5 2.61 M3.83 73.55 C19.36 55.68, 34.9 37.81, 65.5 2.61 M6.19 76.93 C28.92 50.78, 51.65 24.63, 71.14 2.21 M6.19 76.93 C21.66 59.13, 37.13 41.33, 71.14 2.21 M9.86 78.8 C30.66 54.88, 51.45 30.96, 76.13 2.57 M9.86 78.8 C25.44 60.88, 41.02 42.96, 76.13 2.57 M12.88 81.42 C39.59 50.7, 66.3 19.98, 81.77 2.18 M12.88 81.42 C37.98 52.56, 63.07 23.69, 81.77 2.18 M17.87 81.78 C39.86 56.49, 61.85 31.19, 86.76 2.54 M17.87 81.78 C44.49 51.16, 71.11 20.54, 86.76 2.54 M22.2 82.9 C37.86 64.89, 53.51 46.88, 91.74 2.9 M22.2 82.9 C47.22 54.11, 72.25 25.33, 91.74 2.9 M27.84 82.5 C54.4 51.95, 80.97 21.4, 97.39 2.51 M27.84 82.5 C41.77 66.49, 55.69 50.47, 97.39 2.51 M32.83 82.86 C54.86 57.52, 76.89 32.18, 102.37 2.87 M32.83 82.86 C56.48 55.66, 80.13 28.46, 102.37 2.87 M38.47 82.47 C66.15 50.64, 93.82 18.8, 108.02 2.47 M38.47 82.47 C58.49 59.44, 78.51 36.41, 108.02 2.47 M43.46 82.83 C66.08 56.81, 88.69 30.79, 113 2.83 M43.46 82.83 C63.46 59.83, 83.45 36.82, 113 2.83 M49.1 82.44 C71.43 56.75, 93.75 31.07, 118.65 2.44 M49.1 82.44 C68.43 60.2, 87.76 37.97, 118.65 2.44 M54.09 82.8 C69.43 65.15, 84.77 47.5, 123.63 2.8 M54.09 82.8 C78.57 54.64, 103.04 26.48, 123.63 2.8 M59.08 83.16 C77.53 61.93, 95.99 40.7, 129.28 2.4 M59.08 83.16 C81.27 57.62, 103.47 32.09, 129.28 2.4 M64.72 82.76 C91.22 52.28, 117.71 21.8, 134.26 2.76 M64.72 82.76 C89.07 54.75, 113.42 26.74, 134.26 2.76 M69.71 83.12 C97.29 51.39, 124.88 19.66, 139.91 2.37 M69.71 83.12 C95.37 53.6, 121.04 24.07, 139.91 2.37 M75.35 82.73 C95.68 59.35, 116 35.97, 144.89 2.73 M75.35 82.73 C93.86 61.43, 112.37 40.14, 144.89 2.73 M80.34 83.09 C97.08 63.83, 113.82 44.57, 150.54 2.33 M80.34 83.09 C101.85 58.35, 123.35 33.61, 150.54 2.33 M85.98 82.69 C103.23 62.85, 120.48 43, 155.52 2.69 M85.98 82.69 C110.41 54.59, 134.84 26.49, 155.52 2.69 M90.97 83.05 C117.97 51.99, 144.97 20.93, 161.17 2.3 M90.97 83.05 C107.52 64.01, 124.07 44.97, 161.17 2.3 M96.61 82.66 C113.99 62.66, 131.37 42.67, 166.15 2.66 M96.61 82.66 C112.18 64.74, 127.76 46.83, 166.15 2.66 M101.6 83.02 C127.87 52.8, 154.14 22.58, 171.8 2.26 M101.6 83.02 C127.46 53.27, 153.32 23.52, 171.8 2.26 M107.24 82.62 C128.6 58.05, 149.96 33.48, 176.78 2.62 M107.24 82.62 C132.95 53.05, 158.66 23.47, 176.78 2.62 M112.23 82.98 C126.83 66.19, 141.43 49.39, 182.43 2.23 M112.23 82.98 C135.81 55.86, 159.38 28.74, 182.43 2.23 M117.87 82.59 C141.29 55.65, 164.71 28.71, 187.41 2.59 M117.87 82.59 C134.66 63.27, 151.45 43.96, 187.41 2.59 M122.86 82.95 C140.02 63.21, 157.18 43.47, 193.06 2.2 M122.86 82.95 C143.02 59.76, 163.18 36.57, 193.06 2.2 M128.5 82.55 C146.85 61.45, 165.19 40.34, 198.04 2.56 M128.5 82.55 C153.48 53.82, 178.45 25.09, 198.04 2.56 M133.49 82.91 C154.54 58.69, 175.6 34.47, 203.69 2.16 M133.49 82.91 C160.75 51.55, 188.01 20.19, 203.69 2.16 M139.13 82.52 C161.45 56.84, 183.77 31.16, 208.67 2.52 M139.13 82.52 C153.73 65.72, 168.33 48.93, 208.67 2.52 M144.12 82.88 C168.36 54.99, 192.61 27.1, 213.66 2.88 M144.12 82.88 C166.56 57.06, 189 31.25, 213.66 2.88 M149.76 82.49 C174.02 54.58, 198.28 26.68, 219.3 2.49 M149.76 82.49 C173.98 54.63, 198.2 26.76, 219.3 2.49 M154.75 82.85 C170.22 65.05, 185.68 47.26, 224.29 2.85 M154.75 82.85 C181.92 51.59, 209.08 20.34, 224.29 2.85 M160.39 82.45 C180.95 58.8, 201.52 35.14, 229.93 2.45 M160.39 82.45 C180.95 58.8, 201.51 35.15, 229.93 2.45 M165.38 82.81 C187.01 57.92, 208.65 33.04, 234.92 2.81 M165.38 82.81 C179.98 66.02, 194.58 49.22, 234.92 2.81 M171.02 82.42 C193.12 56.99, 215.22 31.57, 240.56 2.42 M171.02 82.42 C187.77 63.15, 204.51 43.89, 240.56 2.42 M176.01 82.78 C194.25 61.8, 212.49 40.81, 245.55 2.78 M176.01 82.78 C190.98 65.55, 205.95 48.33, 245.55 2.78 M181 83.14 C200.59 60.6, 220.18 38.06, 251.19 2.38 M181 83.14 C204.84 55.71, 228.69 28.27, 251.19 2.38 M186.64 82.74 C206.76 59.6, 226.87 36.46, 258.15 0.48 M186.64 82.74 C212.3 53.23, 237.96 23.71, 258.15 0.48 M191.63 83.1 C209.6 62.42, 227.58 41.74, 263.14 0.84 M191.63 83.1 C207.03 65.38, 222.44 47.66, 263.14 0.84 M197.27 82.71 C213.52 64.02, 229.77 45.33, 267.47 1.95 M197.27 82.71 C211.99 65.77, 226.71 48.84, 267.47 1.95 M202.26 83.07 C217.02 66.09, 231.78 49.1, 271.14 3.82 M202.26 83.07 C220.05 62.59, 237.85 42.12, 271.14 3.82 M207.9 82.67 C230.01 57.24, 252.12 31.8, 274.16 6.45 M207.9 82.67 C224.75 63.29, 241.6 43.9, 274.16 6.45 M212.89 83.03 C235.73 56.76, 258.57 30.48, 277.18 9.07 M212.89 83.03 C233.84 58.93, 254.8 34.82, 277.18 9.07 M218.53 82.64 C234.46 64.31, 250.4 45.98, 278.23 13.96 M218.53 82.64 C242.19 55.42, 265.85 28.2, 278.23 13.96 M223.52 83 C244.36 59.02, 265.21 35.03, 279.94 18.09 M223.52 83 C237.22 67.24, 250.92 51.48, 279.94 18.09 M229.16 82.6 C242.86 66.85, 256.55 51.09, 280.33 23.74 M229.16 82.6 C242.28 67.51, 255.4 52.41, 280.33 23.74 M234.15 82.96 C250.68 63.94, 267.22 44.91, 280.07 30.13 M234.15 82.96 C247.97 67.07, 261.79 51.17, 280.07 30.13 M239.79 82.57 C249.16 71.78, 258.54 61, 280.47 35.78 M239.79 82.57 C250.88 69.81, 261.97 57.06, 280.47 35.78 M244.78 82.93 C256.75 69.16, 268.72 55.39, 280.2 42.18 M244.78 82.93 C257.51 68.29, 270.24 53.64, 280.2 42.18 M250.42 82.54 C256.69 75.33, 262.95 68.12, 280.6 47.82 M250.42 82.54 C256.46 75.59, 262.49 68.64, 280.6 47.82 M255.41 82.9 C263.42 73.67, 271.44 64.45, 280.34 54.22 M255.41 82.9 C263.99 73.02, 272.57 63.15, 280.34 54.22 M260.39 83.26 C266.28 76.49, 272.16 69.72, 279.42 61.37 M260.39 83.26 C264.41 78.64, 268.43 74.02, 279.42 61.37 M269.97 78.33 C271.69 76.36, 273.4 74.39, 277.19 70.03 M269.97 78.33 C272.49 75.43, 275.01 72.54, 277.19 70.03" stroke="#ced4da" stroke-width="0.5" fill="none"></path><path d="M20.25 0 M20.25 0 C68.46 0, 116.66 0, 257.75 0 M20.25 0 C114.11 0, 207.98 0, 257.75 0 M257.75 0 C271.25 0, 278 6.75, 278 20.25 M257.75 0 C271.25 0, 278 6.75, 278 20.25 M278 20.25 C278 31.18, 278 42.1, 278 60.75 M278 20.25 C278 29.05, 278 37.84, 278 60.75 M278 60.75 C278 74.25, 271.25 81, 257.75 81 M278 60.75 C278 74.25, 271.25 81, 257.75 81 M257.75 81 C182.14 81, 106.52 81, 20.25 81 M257.75 81 C163.94 81, 70.12 81, 20.25 81 M20.25 81 C6.75 81, 0 74.25, 0 60.75 M20.25 81 C6.75 81, 0 74.25, 0 60.75 M0 60.75 C0 50.61, 0 40.46, 0 20.25 M0 60.75 C0 52.03, 0 43.31, 0 20.25 M0 20.25 C0 6.75, 6.75 0, 20.25 0 M0 20.25 C0 6.75, 6.75 0, 20.25 0" stroke="#000000" stroke-width="1" fill="none"></path></g><g transform="translate(592.4285714285709 36.214285714285694) rotate(0 68 16)"><text x="68" y="26" font-family="Helvetica, Segoe UI Emoji" font-size="28px" fill="#000000" text-anchor="middle" style="white-space: pre;" direction="ltr">Subscriber</text></g><g stroke-linecap="round"><g transform="translate(141.42857142857133 91.2142857142857) rotate(0 -2 242)"><path d="M0 0 C-0.67 80.67, -3.33 403.33, -4 484 M0 0 C-0.67 80.67, -3.33 403.33, -4 484" stroke="#000000" stroke-width="1" fill="none"></path></g></g><mask></mask><g stroke-linecap="round"><g transform="translate(674.4285714285713 93.7142857142857) rotate(0 0 245)"><path d="M0 0 C0 81.67, 0 408.33, 0 490 M0 0 C0 81.67, 0 408.33, 0 490" stroke="#000000" stroke-width="1" fill="none"></path></g></g><mask></mask><g stroke-linecap="round"><g transform="translate(674.4285714285713 151.2142857142857) rotate(0 -266.5 1.5)"><path d="M0 0 C-88.83 0.5, -444.17 2.5, -533 3 M0 0 C-88.83 0.5, -444.17 2.5, -533 3" stroke="#000000" stroke-width="1" fill="none"></path></g><g transform="translate(674.4285714285713 151.2142857142857) rotate(0 -266.5 1.5)"><path d="M-504.87 -7.42 C-515.79 -3.37, -526.72 0.67, -533 3 M-504.87 -7.42 C-513.2 -4.33, -521.54 -1.24, -533 3" stroke="#000000" stroke-width="1" fill="none"></path></g><g transform="translate(674.4285714285713 151.2142857142857) rotate(0 -266.5 1.5)"><path d="M-504.75 13.1 C-515.72 9.18, -526.69 5.26, -533 3 M-504.75 13.1 C-513.12 10.11, -521.49 7.12, -533 3" stroke="#000000" stroke-width="1" fill="none"></path></g></g><mask></mask><g transform="translate(339.92857142857133 124.7142857142857) rotate(0 60.5 11.5)"><text x="60.5" y="19" font-family="Helvetica, Segoe UI Emoji" font-size="20px" fill="#000000" text-anchor="middle" style="white-space: pre;" direction="ltr">1.Subscribe()</text></g><g stroke-linecap="round"><g transform="translate(142.42857142857133 208.2142857142857) rotate(0 266.5 0)"><path d="M0 0 C88.83 0, 444.17 0, 533 0 M0 0 C88.83 0, 444.17 0, 533 0" stroke="#000000" stroke-width="1" fill="none"></path></g><g transform="translate(142.42857142857133 208.2142857142857) rotate(0 266.5 0)"><path d="M504.81 10.26 C512.76 7.37, 520.72 4.47, 533 0 M504.81 10.26 C514.49 6.74, 524.17 3.21, 533 0" stroke="#000000" stroke-width="1" fill="none"></path></g><g transform="translate(142.42857142857133 208.2142857142857) rotate(0 266.5 0)"><path d="M504.81 -10.26 C512.76 -7.37, 520.72 -4.47, 533 0 M504.81 -10.26 C514.49 -6.74, 524.17 -3.21, 533 0" stroke="#000000" stroke-width="1" fill="none"></path></g></g><mask></mask><g transform="translate(339.42857142857133 180.7142857142857) rotate(0 74 11.5)"><text x="74" y="19" font-family="Helvetica, Segoe UI Emoji" font-size="20px" fill="#000000" text-anchor="middle" style="white-space: pre;" direction="ltr">2. Subscription()</text></g><g stroke-linecap="round"><g transform="translate(674.4285714285713 275.21428571428567) rotate(0 -266.5 -1)"><path d="M0 0 C-88.83 -0.33, -444.17 -1.67, -533 -2 M0 0 C-88.83 -0.33, -444.17 -1.67, -533 -2" stroke="#000000" stroke-width="1" fill="none"></path></g><g transform="translate(674.4285714285713 275.21428571428567) rotate(0 -266.5 -1)"><path d="M-504.77 -12.15 C-515.62 -8.25, -526.48 -4.35, -533 -2 M-504.77 -12.15 C-513.79 -8.91, -522.81 -5.66, -533 -2" stroke="#000000" stroke-width="1" fill="none"></path></g><g transform="translate(674.4285714285713 275.21428571428567) rotate(0 -266.5 -1)"><path d="M-504.85 8.37 C-515.67 4.38, -526.49 0.4, -533 -2 M-504.85 8.37 C-513.84 5.05, -522.84 1.74, -533 -2" stroke="#000000" stroke-width="1" fill="none"></path></g></g><mask></mask><g transform="translate(349.42857142857133 247.7142857142857) rotate(0 56 11.5)"><text x="56" y="19" font-family="Helvetica, Segoe UI Emoji" font-size="20px" fill="#000000" text-anchor="middle" style="white-space: pre;" direction="ltr">3. Request()</text></g><g stroke-linecap="round"><g transform="translate(142.42857142857133 349.21428571428567) rotate(0 266.5 2)"><path d="M0 0 C88.83 0.67, 444.17 3.33, 533 4 M0 0 C88.83 0.67, 444.17 3.33, 533 4" stroke="#000000" stroke-width="1" fill="none"></path></g><g transform="translate(142.42857142857133 349.21428571428567) rotate(0 266.5 2)"><path d="M504.73 14.05 C512.69 11.22, 520.65 8.39, 533 4 M504.73 14.05 C514.5 10.58, 524.28 7.1, 533 4" stroke="#000000" stroke-width="1" fill="none"></path></g><g transform="translate(142.42857142857133 349.21428571428567) rotate(0 266.5 2)"><path d="M504.89 -6.47 C512.8 -3.52, 520.71 -0.58, 533 4 M504.89 -6.47 C514.61 -2.85, 524.32 0.77, 533 4" stroke="#000000" stroke-width="1" fill="none"></path></g></g><mask></mask><g transform="translate(353.42857142857133 323.71428571428567) rotate(0 70 11.5)"><text x="70" y="19" font-family="Helvetica, Segoe UI Emoji" font-size="20px" fill="#000000" text-anchor="middle" style="white-space: pre;" direction="ltr">4. onNext(data)</text></g><g stroke-linecap="round"><g transform="translate(139.42857142857133 425.21428571428567) rotate(0 268 0.5)"><path d="M0 0 C89.33 0.17, 446.67 0.83, 536 1 M0 0 C89.33 0.17, 446.67 0.83, 536 1" stroke="#000000" stroke-width="1" fill="none"></path></g><g transform="translate(139.42857142857133 425.21428571428567) rotate(0 268 0.5)"><path d="M507.79 11.21 C516.85 7.93, 525.92 4.65, 536 1 M507.79 11.21 C518.86 7.2, 529.94 3.19, 536 1" stroke="#000000" stroke-width="1" fill="none"></path></g><g transform="translate(139.42857142857133 425.21428571428567) rotate(0 268 0.5)"><path d="M507.83 -9.31 C516.88 -6, 525.93 -2.69, 536 1 M507.83 -9.31 C518.89 -5.26, 529.94 -1.22, 536 1" stroke="#000000" stroke-width="1" fill="none"></path></g></g><mask></mask><g transform="translate(349.42857142857133 397.71428571428567) rotate(0 77 11.5)"><text x="77" y="19" font-family="Helvetica, Segoe UI Emoji" font-size="20px" fill="#000000" text-anchor="middle" style="white-space: pre;" direction="ltr">4.N onNext(data)</text></g><g mask="url(#mask-UvQc9zDmHa1KFToPb-ffM)" stroke-linecap="round"><g transform="translate(556.4285714285713 423.21428571428567) rotate(0 -1 -35.5)"><path d="M0 0 C-0.33 -11.83, -1.67 -59.17, -2 -71 M0 0 C-0.33 -11.83, -1.67 -59.17, -2 -71" stroke="#000000" stroke-width="1" fill="none"></path></g><g transform="translate(556.4285714285713 423.21428571428567) rotate(0 -1 -35.5)"><path d="M0 0 L-6.72 -13.41 L5.95 -13.77 L0 0" stroke="none" stroke-width="0" fill="#000000" fill-rule="evenodd"></path><path d="M0 0 C-2.66 -5.31, -5.32 -10.62, -6.72 -13.41 M0 0 C-2.51 -5, -5.01 -10, -6.72 -13.41 M-6.72 -13.41 C-1.85 -13.55, 3.03 -13.69, 5.95 -13.77 M-6.72 -13.41 C-2.67 -13.52, 1.38 -13.64, 5.95 -13.77 M5.95 -13.77 C4.62 -10.69, 3.3 -7.62, 0 0 M5.95 -13.77 C4.17 -9.65, 2.39 -5.53, 0 0 M0 0 C0 0, 0 0, 0 0 M0 0 C0 0, 0 0, 0 0" stroke="#000000" stroke-width="1" fill="none"></path></g><g transform="translate(556.4285714285713 423.21428571428567) rotate(0 -1 -35.5)"><path d="M-2 -71 L4.72 -57.59 L-7.95 -57.23 L-2 -71" stroke="none" stroke-width="0" fill="#000000" fill-rule="evenodd"></path><path d="M-2 -71 C0.66 -65.69, 3.32 -60.38, 4.72 -57.59 M-2 -71 C0.51 -66, 3.01 -61, 4.72 -57.59 M4.72 -57.59 C-0.15 -57.45, -5.03 -57.31, -7.95 -57.23 M4.72 -57.59 C0.67 -57.48, -3.38 -57.36, -7.95 -57.23 M-7.95 -57.23 C-6.62 -60.31, -5.3 -63.38, -2 -71 M-7.95 -57.23 C-6.17 -61.35, -4.39 -65.47, -2 -71 M-2 -71 C-2 -71, -2 -71, -2 -71 M-2 -71 C-2 -71, -2 -71, -2 -71" stroke="#000000" stroke-width="1" fill="none"></path></g></g><mask id="mask-UvQc9zDmHa1KFToPb-ffM"><rect x="0" y="0" fill="#fff" width="658.4285714285713" height="594.2142857142857"></rect><rect x="514.9285714285711" y="376.21428571428567" fill="#000" width="81" height="23" opacity="1"></rect></mask><g transform="translate(514.9285714285711 376.21428571428567) rotate(0 40.5 11.5)"><text x="40.5" y="19" font-family="Helvetica, Segoe UI Emoji" font-size="20px" fill="#000000" text-anchor="middle" style="white-space: pre;" direction="ltr">N events</text></g><g stroke-linecap="round"><g transform="translate(140.42857142857133 515.2142857142857) rotate(0 267 0.5)"><path d="M0 0 C89 0.17, 445 0.83, 534 1 M0 0 C89 0.17, 445 0.83, 534 1" stroke="#000000" stroke-width="1" fill="none"></path></g><g transform="translate(140.42857142857133 515.2142857142857) rotate(0 267 0.5)"><path d="M505.79 11.21 C513.97 8.25, 522.15 5.29, 534 1 M505.79 11.21 C512.31 8.85, 518.82 6.49, 534 1" stroke="#000000" stroke-width="1" fill="none"></path></g><g transform="translate(140.42857142857133 515.2142857142857) rotate(0 267 0.5)"><path d="M505.83 -9.31 C514 -6.32, 522.16 -3.33, 534 1 M505.83 -9.31 C512.34 -6.93, 518.84 -4.55, 534 1" stroke="#000000" stroke-width="1" fill="none"></path></g></g><mask></mask><g transform="translate(300.42857142857133 486.71428571428567) rotate(0 127 11.5)"><text x="127" y="19" font-family="Helvetica, Segoe UI Emoji" font-size="20px" fill="#000000" text-anchor="middle" style="white-space: pre;" direction="ltr">5. onComplete() or onError()</text></g></svg>