<svg version="1.1" xmlns="http://www.w3.org/2000/svg" viewBox="0 0 2309.47415467923 1131.1850541474364" width="2309.47415467923" height="1131.1850541474364" filter="invert(93%) hue-rotate(180deg)">
  <!-- svg-source:excalidraw -->
  
  <defs>
    <style class="style-fonts">
      @font-face {
        font-family: "Virgil";
        src: url("https://excalidraw.com/Virgil.woff2");
      }
      @font-face {
        font-family: "Cascadia";
        src: url("https://excalidraw.com/Cascadia.woff2");
      }
    </style>
  </defs>
  <rect x="0" y="0" width="2309.47415467923" height="1131.1850541474364" fill="#ffffff"></rect><g stroke-linecap="round" transform="translate(13.404124578756523 475.98726408145757) rotate(0 149.2774224800997 89.3408543731966)"><path d="M1.19 1.07 C65.96 1.28, 131.38 -0.73, 299.27 -0.49 M-0.43 0.03 C103.18 0.11, 205.72 0.24, 298.54 0.33 M298.19 -1.94 C298.44 68.98, 299.07 142.89, 299.07 179.69 M299.07 -0.79 C296.35 63.71, 297.36 127.77, 297.98 178.06 M298.25 178.37 C183.55 178.15, 67.52 177.49, 0.52 177.99 M298.55 178.52 C185 179.83, 72.56 179.64, 0.28 178.33 M0.45 179.56 C0.02 115.89, 1.76 52.32, 1.19 0.09 M0.44 179.1 C-0.49 117.81, -0.17 58.08, -0.69 1" stroke="#000000" stroke-width="1" fill="none"></path></g><g stroke-linecap="round"><g transform="translate(10.8930572658345 501.0058541610405) rotate(0 150.23711937161443 0.46190264320068763)"><path d="M0.97 0.87 C51.08 1.05, 250.67 1.4, 300.45 1.18 M0.03 0.28 C49.96 0.15, 249 -0.38, 299.32 -0.32" stroke="#000000" stroke-width="1" fill="none"></path></g></g><mask></mask><g stroke-linecap="round" transform="translate(23.88179539570217 485.9595788159757) rotate(0 5.8387259468057096 5.838725946805724)"><path d="M11.68 5.84 C11.68 6.18, 11.65 6.52, 11.59 6.85 C11.53 7.19, 11.44 7.52, 11.33 7.84 C11.21 8.15, 11.06 8.47, 10.9 8.76 C10.73 9.05, 10.53 9.33, 10.31 9.59 C10.09 9.85, 9.85 10.09, 9.59 10.31 C9.33 10.53, 9.05 10.73, 8.76 10.9 C8.47 11.06, 8.15 11.21, 7.84 11.33 C7.52 11.44, 7.19 11.53, 6.85 11.59 C6.52 11.65, 6.18 11.68, 5.84 11.68 C5.5 11.68, 5.16 11.65, 4.82 11.59 C4.49 11.53, 4.16 11.44, 3.84 11.33 C3.52 11.21, 3.21 11.06, 2.92 10.9 C2.63 10.73, 2.34 10.53, 2.09 10.31 C1.83 10.09, 1.58 9.85, 1.37 9.59 C1.15 9.33, 0.95 9.05, 0.78 8.76 C0.61 8.47, 0.47 8.15, 0.35 7.84 C0.24 7.52, 0.15 7.19, 0.09 6.85 C0.03 6.52, 0 6.18, 0 5.84 C0 5.5, 0.03 5.16, 0.09 4.82 C0.15 4.49, 0.24 4.16, 0.35 3.84 C0.47 3.52, 0.61 3.21, 0.78 2.92 C0.95 2.63, 1.15 2.34, 1.37 2.09 C1.58 1.83, 1.83 1.58, 2.09 1.37 C2.34 1.15, 2.63 0.95, 2.92 0.78 C3.21 0.61, 3.52 0.47, 3.84 0.35 C4.16 0.24, 4.49 0.15, 4.82 0.09 C5.16 0.03, 5.5 0, 5.84 0 C6.18 0, 6.52 0.03, 6.85 0.09 C7.19 0.15, 7.52 0.24, 7.84 0.35 C8.15 0.47, 8.47 0.61, 8.76 0.78 C9.05 0.95, 9.33 1.15, 9.59 1.37 C9.85 1.58, 10.09 1.83, 10.31 2.09 C10.53 2.34, 10.73 2.63, 10.9 2.92 C11.06 3.21, 11.21 3.52, 11.33 3.84 C11.44 4.16, 11.53 4.49, 11.59 4.82 C11.65 5.16, 11.66 5.67, 11.68 5.84 C11.69 6.01, 11.69 5.67, 11.68 5.84" stroke="none" stroke-width="0" fill="#fa5252"></path><path d="M11.68 5.84 C11.68 6.18, 11.65 6.52, 11.59 6.85 C11.53 7.19, 11.44 7.52, 11.33 7.84 C11.21 8.15, 11.06 8.47, 10.9 8.76 C10.73 9.05, 10.53 9.33, 10.31 9.59 C10.09 9.85, 9.85 10.09, 9.59 10.31 C9.33 10.53, 9.05 10.73, 8.76 10.9 C8.47 11.06, 8.15 11.21, 7.84 11.33 C7.52 11.44, 7.19 11.53, 6.85 11.59 C6.52 11.65, 6.18 11.68, 5.84 11.68 C5.5 11.68, 5.16 11.65, 4.82 11.59 C4.49 11.53, 4.16 11.44, 3.84 11.33 C3.52 11.21, 3.21 11.06, 2.92 10.9 C2.63 10.73, 2.34 10.53, 2.09 10.31 C1.83 10.09, 1.58 9.85, 1.37 9.59 C1.15 9.33, 0.95 9.05, 0.78 8.76 C0.61 8.47, 0.47 8.15, 0.35 7.84 C0.24 7.52, 0.15 7.19, 0.09 6.85 C0.03 6.52, 0 6.18, 0 5.84 C0 5.5, 0.03 5.16, 0.09 4.82 C0.15 4.49, 0.24 4.16, 0.35 3.84 C0.47 3.52, 0.61 3.21, 0.78 2.92 C0.95 2.63, 1.15 2.34, 1.37 2.09 C1.58 1.83, 1.83 1.58, 2.09 1.37 C2.34 1.15, 2.63 0.95, 2.92 0.78 C3.21 0.61, 3.52 0.47, 3.84 0.35 C4.16 0.24, 4.49 0.15, 4.82 0.09 C5.16 0.03, 5.5 0, 5.84 0 C6.18 0, 6.52 0.03, 6.85 0.09 C7.19 0.15, 7.52 0.24, 7.84 0.35 C8.15 0.47, 8.47 0.61, 8.76 0.78 C9.05 0.95, 9.33 1.15, 9.59 1.37 C9.85 1.58, 10.09 1.83, 10.31 2.09 C10.53 2.34, 10.73 2.63, 10.9 2.92 C11.06 3.21, 11.21 3.52, 11.33 3.84 C11.44 4.16, 11.53 4.49, 11.59 4.82 C11.65 5.16, 11.66 5.67, 11.68 5.84 C11.69 6.01, 11.69 5.67, 11.68 5.84" stroke="#000000" stroke-width="1" fill="none"></path></g><g stroke-linecap="round" transform="translate(47.840862547198185 485.9595788159757) rotate(0 5.8387259468057096 5.838725946805724)"><path d="M11.68 5.84 C11.68 6.18, 11.65 6.52, 11.59 6.85 C11.53 7.19, 11.44 7.52, 11.33 7.84 C11.21 8.15, 11.06 8.47, 10.9 8.76 C10.73 9.05, 10.53 9.33, 10.31 9.59 C10.09 9.85, 9.85 10.09, 9.59 10.31 C9.33 10.53, 9.05 10.73, 8.76 10.9 C8.47 11.06, 8.15 11.21, 7.84 11.33 C7.52 11.44, 7.19 11.53, 6.85 11.59 C6.52 11.65, 6.18 11.68, 5.84 11.68 C5.5 11.68, 5.16 11.65, 4.82 11.59 C4.49 11.53, 4.16 11.44, 3.84 11.33 C3.52 11.21, 3.21 11.06, 2.92 10.9 C2.63 10.73, 2.34 10.53, 2.09 10.31 C1.83 10.09, 1.58 9.85, 1.37 9.59 C1.15 9.33, 0.95 9.05, 0.78 8.76 C0.61 8.47, 0.47 8.15, 0.35 7.84 C0.24 7.52, 0.15 7.19, 0.09 6.85 C0.03 6.52, 0 6.18, 0 5.84 C0 5.5, 0.03 5.16, 0.09 4.82 C0.15 4.49, 0.24 4.16, 0.35 3.84 C0.47 3.52, 0.61 3.21, 0.78 2.92 C0.95 2.63, 1.15 2.34, 1.37 2.09 C1.58 1.83, 1.83 1.58, 2.09 1.37 C2.34 1.15, 2.63 0.95, 2.92 0.78 C3.21 0.61, 3.52 0.47, 3.84 0.35 C4.16 0.24, 4.49 0.15, 4.82 0.09 C5.16 0.03, 5.5 0, 5.84 0 C6.18 0, 6.52 0.03, 6.85 0.09 C7.19 0.15, 7.52 0.24, 7.84 0.35 C8.15 0.47, 8.47 0.61, 8.76 0.78 C9.05 0.95, 9.33 1.15, 9.59 1.37 C9.85 1.58, 10.09 1.83, 10.31 2.09 C10.53 2.34, 10.73 2.63, 10.9 2.92 C11.06 3.21, 11.21 3.52, 11.33 3.84 C11.44 4.16, 11.53 4.49, 11.59 4.82 C11.65 5.16, 11.66 5.67, 11.68 5.84 C11.69 6.01, 11.69 5.67, 11.68 5.84" stroke="none" stroke-width="0" fill="#fab005"></path><path d="M11.68 5.84 C11.68 6.18, 11.65 6.52, 11.59 6.85 C11.53 7.19, 11.44 7.52, 11.33 7.84 C11.21 8.15, 11.06 8.47, 10.9 8.76 C10.73 9.05, 10.53 9.33, 10.31 9.59 C10.09 9.85, 9.85 10.09, 9.59 10.31 C9.33 10.53, 9.05 10.73, 8.76 10.9 C8.47 11.06, 8.15 11.21, 7.84 11.33 C7.52 11.44, 7.19 11.53, 6.85 11.59 C6.52 11.65, 6.18 11.68, 5.84 11.68 C5.5 11.68, 5.16 11.65, 4.82 11.59 C4.49 11.53, 4.16 11.44, 3.84 11.33 C3.52 11.21, 3.21 11.06, 2.92 10.9 C2.63 10.73, 2.34 10.53, 2.09 10.31 C1.83 10.09, 1.58 9.85, 1.37 9.59 C1.15 9.33, 0.95 9.05, 0.78 8.76 C0.61 8.47, 0.47 8.15, 0.35 7.84 C0.24 7.52, 0.15 7.19, 0.09 6.85 C0.03 6.52, 0 6.18, 0 5.84 C0 5.5, 0.03 5.16, 0.09 4.82 C0.15 4.49, 0.24 4.16, 0.35 3.84 C0.47 3.52, 0.61 3.21, 0.78 2.92 C0.95 2.63, 1.15 2.34, 1.37 2.09 C1.58 1.83, 1.83 1.58, 2.09 1.37 C2.34 1.15, 2.63 0.95, 2.92 0.78 C3.21 0.61, 3.52 0.47, 3.84 0.35 C4.16 0.24, 4.49 0.15, 4.82 0.09 C5.16 0.03, 5.5 0, 5.84 0 C6.18 0, 6.52 0.03, 6.85 0.09 C7.19 0.15, 7.52 0.24, 7.84 0.35 C8.15 0.47, 8.47 0.61, 8.76 0.78 C9.05 0.95, 9.33 1.15, 9.59 1.37 C9.85 1.58, 10.09 1.83, 10.31 2.09 C10.53 2.34, 10.73 2.63, 10.9 2.92 C11.06 3.21, 11.21 3.52, 11.33 3.84 C11.44 4.16, 11.53 4.49, 11.59 4.82 C11.65 5.16, 11.66 5.67, 11.68 5.84 C11.69 6.01, 11.69 5.67, 11.68 5.84" stroke="#000000" stroke-width="1" fill="none"></path></g><g stroke-linecap="round" transform="translate(72.85217358422085 487.01182270150224) rotate(0 5.8387259468057096 5.838725946805724)"><path d="M11.68 5.84 C11.68 6.18, 11.65 6.52, 11.59 6.85 C11.53 7.19, 11.44 7.52, 11.33 7.84 C11.21 8.15, 11.06 8.47, 10.9 8.76 C10.73 9.05, 10.53 9.33, 10.31 9.59 C10.09 9.85, 9.85 10.09, 9.59 10.31 C9.33 10.53, 9.05 10.73, 8.76 10.9 C8.47 11.06, 8.15 11.21, 7.84 11.33 C7.52 11.44, 7.19 11.53, 6.85 11.59 C6.52 11.65, 6.18 11.68, 5.84 11.68 C5.5 11.68, 5.16 11.65, 4.82 11.59 C4.49 11.53, 4.16 11.44, 3.84 11.33 C3.52 11.21, 3.21 11.06, 2.92 10.9 C2.63 10.73, 2.34 10.53, 2.09 10.31 C1.83 10.09, 1.58 9.85, 1.37 9.59 C1.15 9.33, 0.95 9.05, 0.78 8.76 C0.61 8.47, 0.47 8.15, 0.35 7.84 C0.24 7.52, 0.15 7.19, 0.09 6.85 C0.03 6.52, 0 6.18, 0 5.84 C0 5.5, 0.03 5.16, 0.09 4.82 C0.15 4.49, 0.24 4.16, 0.35 3.84 C0.47 3.52, 0.61 3.21, 0.78 2.92 C0.95 2.63, 1.15 2.34, 1.37 2.09 C1.58 1.83, 1.83 1.58, 2.09 1.37 C2.34 1.15, 2.63 0.95, 2.92 0.78 C3.21 0.61, 3.52 0.47, 3.84 0.35 C4.16 0.24, 4.49 0.15, 4.82 0.09 C5.16 0.03, 5.5 0, 5.84 0 C6.18 0, 6.52 0.03, 6.85 0.09 C7.19 0.15, 7.52 0.24, 7.84 0.35 C8.15 0.47, 8.47 0.61, 8.76 0.78 C9.05 0.95, 9.33 1.15, 9.59 1.37 C9.85 1.58, 10.09 1.83, 10.31 2.09 C10.53 2.34, 10.73 2.63, 10.9 2.92 C11.06 3.21, 11.21 3.52, 11.33 3.84 C11.44 4.16, 11.53 4.49, 11.59 4.82 C11.65 5.16, 11.66 5.67, 11.68 5.84 C11.69 6.01, 11.69 5.67, 11.68 5.84" stroke="none" stroke-width="0" fill="#40c057"></path><path d="M11.68 5.84 C11.68 6.18, 11.65 6.52, 11.59 6.85 C11.53 7.19, 11.44 7.52, 11.33 7.84 C11.21 8.15, 11.06 8.47, 10.9 8.76 C10.73 9.05, 10.53 9.33, 10.31 9.59 C10.09 9.85, 9.85 10.09, 9.59 10.31 C9.33 10.53, 9.05 10.73, 8.76 10.9 C8.47 11.06, 8.15 11.21, 7.84 11.33 C7.52 11.44, 7.19 11.53, 6.85 11.59 C6.52 11.65, 6.18 11.68, 5.84 11.68 C5.5 11.68, 5.16 11.65, 4.82 11.59 C4.49 11.53, 4.16 11.44, 3.84 11.33 C3.52 11.21, 3.21 11.06, 2.92 10.9 C2.63 10.73, 2.34 10.53, 2.09 10.31 C1.83 10.09, 1.58 9.85, 1.37 9.59 C1.15 9.33, 0.95 9.05, 0.78 8.76 C0.61 8.47, 0.47 8.15, 0.35 7.84 C0.24 7.52, 0.15 7.19, 0.09 6.85 C0.03 6.52, 0 6.18, 0 5.84 C0 5.5, 0.03 5.16, 0.09 4.82 C0.15 4.49, 0.24 4.16, 0.35 3.84 C0.47 3.52, 0.61 3.21, 0.78 2.92 C0.95 2.63, 1.15 2.34, 1.37 2.09 C1.58 1.83, 1.83 1.58, 2.09 1.37 C2.34 1.15, 2.63 0.95, 2.92 0.78 C3.21 0.61, 3.52 0.47, 3.84 0.35 C4.16 0.24, 4.49 0.15, 4.82 0.09 C5.16 0.03, 5.5 0, 5.84 0 C6.18 0, 6.52 0.03, 6.85 0.09 C7.19 0.15, 7.52 0.24, 7.84 0.35 C8.15 0.47, 8.47 0.61, 8.76 0.78 C9.05 0.95, 9.33 1.15, 9.59 1.37 C9.85 1.58, 10.09 1.83, 10.31 2.09 C10.53 2.34, 10.73 2.63, 10.9 2.92 C11.06 3.21, 11.21 3.52, 11.33 3.84 C11.44 4.16, 11.53 4.49, 11.59 4.82 C11.65 5.16, 11.66 5.67, 11.68 5.84 C11.69 6.01, 11.69 5.67, 11.68 5.84" stroke="#000000" stroke-width="1" fill="none"></path></g><g stroke-opacity="0.9" fill-opacity="0.9" stroke-linecap="round" transform="translate(110.2686045313518 524.4873368990759) rotate(0 49.86683177272852 49.86683177272852)"><path d="M59.02 1.18 C66.8 1.66, 74.83 5.58, 81.02 10.72 C87.2 15.86, 93.24 23.88, 96.12 32.03 C98.99 40.17, 99.58 51.38, 98.28 59.58 C96.97 67.79, 93.46 75.21, 88.28 81.27 C83.1 87.32, 75.09 93.01, 67.2 95.91 C59.31 98.81, 49.14 100.03, 40.95 98.67 C32.76 97.3, 24.36 93.14, 18.05 87.74 C11.74 82.33, 6.03 74.01, 3.1 66.24 C0.16 58.47, -1.12 49.28, 0.42 41.12 C1.95 32.96, 7.01 23.56, 12.3 17.28 C17.59 11, 23.37 6.03, 32.16 3.45 C40.95 0.87, 58.54 1.27, 65.04 1.78 C71.53 2.29, 71.3 5.52, 71.13 6.52 M63.43 0.79 C71.19 2.14, 78.67 8.25, 84.32 14.09 C89.97 19.92, 95.19 27.85, 97.32 35.8 C99.44 43.76, 99.27 53.83, 97.08 61.81 C94.9 69.79, 89.6 77.57, 84.2 83.69 C78.81 89.81, 72.62 96.23, 64.7 98.53 C56.78 100.84, 44.92 99.47, 36.68 97.53 C28.43 95.59, 20.82 92.67, 15.24 86.88 C9.66 81.09, 5.57 71.19, 3.18 62.8 C0.79 54.41, -0.9 44.71, 0.89 36.54 C2.69 28.38, 7.84 19.76, 13.97 13.81 C20.1 7.86, 29.44 2.84, 37.69 0.83 C45.94 -1.18, 59.22 1.57, 63.49 1.76 C67.77 1.94, 63.61 1, 63.35 1.94" stroke="none" stroke-width="0" fill="#04aaf7"></path><path d="M61.64 1.38 C69.44 2.51, 77.8 8.23, 83.89 14 C89.97 19.76, 95.78 27.96, 98.15 35.95 C100.53 43.94, 100.19 53.77, 98.12 61.93 C96.06 70.09, 91.34 78.96, 85.75 84.91 C80.17 90.87, 72.52 95.47, 64.62 97.67 C56.72 99.86, 46.73 100.06, 38.34 98.08 C29.95 96.11, 20.51 91.5, 14.3 85.82 C8.09 80.15, 3.1 71.98, 1.08 64.03 C-0.93 56.07, -0.02 46.14, 2.21 38.11 C4.44 30.08, 8.97 22, 14.46 15.87 C19.95 9.73, 26.76 3.71, 35.16 1.3 C43.57 -1.12, 59.76 1.04, 64.89 1.37 C70.01 1.69, 66.17 2.49, 65.91 3.25 M34.24 0.76 C41.71 -2.45, 52.77 -1.33, 61.19 1.06 C69.61 3.45, 78.65 9.19, 84.75 15.08 C90.84 20.98, 95.39 28.81, 97.75 36.42 C100.11 44.04, 100.65 52.94, 98.89 60.8 C97.14 68.66, 92.91 77.44, 87.22 83.59 C81.52 89.74, 72.92 95.44, 64.7 97.68 C56.48 99.92, 46.03 99.04, 37.9 97.04 C29.77 95.04, 21.89 91.07, 15.91 85.67 C9.93 80.26, 4.57 72.38, 2.03 64.61 C-0.51 56.83, -1.15 47.19, 0.67 39.03 C2.48 30.86, 7.03 21.68, 12.92 15.62 C18.82 9.57, 32.31 4.78, 36.04 2.72 C39.77 0.65, 35.03 2.57, 35.31 3.24" stroke="#000000" stroke-width="1" fill="none"></path></g><g stroke-linecap="round"><g transform="translate(173.48470238333596 562.3643593347308) rotate(0 -8.087189002919445 15.129122761383357)" fill-rule="evenodd"><path d="M0 0 L-1.3 0.37 L-4.27 -0.97 L-14.43 -12.2 L-17.68 -14.64 L-22.75 -14.23 L-26.52 -10.15 L-28.73 -2.66 L-29.44 5.54 L-26 13.68 L-26.31 15.74 L-40.68 20.75 L-42.02 26.65 L-40.16 31.85 L-35.04 32.77 L-28.9 31.17 L-22.62 22.57 L-20.3 22.13 L-17.46 25.45 L-8.45 41.71 L-3.48 45.24 L-1.66 44.93 L-0.97 42.42 L-7.9 17.64 L-8.82 11.21 L-7.02 8.71 L-3.54 8.51 L3.24 10.15 L7.38 13.7 L18.52 14.64 L21.56 13.7 L23.66 11.19 L25.89 3.89 L25.22 1.48 L22.28 1.22 L12.85 3.21 L9.85 2.59 L9.54 -0.61 L12.81 -13.45 L11.73 -14.62 L9.87 -14.61 L5.77 -12.48 L-0.55 -2.15 L-0.67 -0.43 L0 0" stroke="none" stroke-width="0" fill="#40c057" fill-rule="evenodd"></path><path d="M0 0 C-0.71 -0.16, -1.33 1.47, -4.27 -0.97 C-7.22 -3.41, -13.97 -13.11, -17.68 -14.64 C-21.38 -16.17, -24.55 -13.51, -26.52 -10.15 C-28.48 -6.79, -29.48 1.23, -29.44 5.54 C-29.41 9.85, -24.44 13.2, -26.31 15.74 C-28.18 18.27, -38.37 18.06, -40.68 20.75 C-42.99 23.43, -42.12 30.11, -40.16 31.85 C-38.2 33.59, -32.21 32.79, -28.9 31.17 C-25.59 29.55, -23.71 20.37, -20.3 22.13 C-16.89 23.88, -11.67 38.33, -8.45 41.71 C-5.23 45.1, -0.91 47.5, -0.97 42.42 C-1.03 37.33, -9.52 16.59, -8.82 11.21 C-8.12 5.83, 0.54 9.73, 3.24 10.15 C5.94 10.57, 4.33 13.11, 7.38 13.7 C10.44 14.29, 18.59 15.73, 21.56 13.7 C24.53 11.66, 27.17 3.33, 25.22 1.48 C23.27 -0.37, 11.92 5.08, 9.85 2.59 C7.79 0.1, 13.49 -10.93, 12.81 -13.45 C12.13 -15.96, 8 -14.36, 5.77 -12.48 C3.55 -10.6, 0.41 -4.23, -0.55 -2.15 C-1.52 -0.07, -0.09 -0.36, 0 0 M0 0 C-0.71 -0.16, -1.33 1.47, -4.27 -0.97 C-7.22 -3.41, -13.97 -13.11, -17.68 -14.64 C-21.38 -16.17, -24.55 -13.51, -26.52 -10.15 C-28.48 -6.79, -29.48 1.23, -29.44 5.54 C-29.41 9.85, -24.44 13.2, -26.31 15.74 C-28.18 18.27, -38.37 18.06, -40.68 20.75 C-42.99 23.43, -42.12 30.11, -40.16 31.85 C-38.2 33.59, -32.21 32.79, -28.9 31.17 C-25.59 29.55, -23.71 20.37, -20.3 22.13 C-16.89 23.88, -11.67 38.33, -8.45 41.71 C-5.23 45.1, -0.91 47.5, -0.97 42.42 C-1.03 37.33, -9.52 16.59, -8.82 11.21 C-8.12 5.83, 0.54 9.73, 3.24 10.15 C5.94 10.57, 4.33 13.11, 7.38 13.7 C10.44 14.29, 18.59 15.73, 21.56 13.7 C24.53 11.66, 27.17 3.33, 25.22 1.48 C23.27 -0.37, 11.92 5.08, 9.85 2.59 C7.79 0.1, 13.49 -10.93, 12.81 -13.45 C12.13 -15.96, 8 -14.36, 5.77 -12.48 C3.55 -10.6, 0.41 -4.23, -0.55 -2.15 C-1.52 -0.07, -0.09 -0.36, 0 0" stroke="#087f5b" stroke-width="1" fill="none"></path></g></g><mask></mask><g stroke-linecap="round"><g stroke-opacity="0.9" fill-opacity="0.9" transform="translate(112.74106894349791 573.4268094347976) rotate(0 49.12103321433915 -0.2730078324582479)"><path d="M0.58 -0.4 C17.24 -0.37, 82.55 -0.23, 98.81 -0.28 M-0.57 -1.65 C16.07 -1.4, 81.83 0.79, 98.14 1.1" stroke="#000000" stroke-width="1" fill="none"></path></g></g><mask></mask><g stroke-linecap="round"><g stroke-opacity="0.9" fill-opacity="0.9" transform="translate(124.63651421065276 537.3936910626215) rotate(0 34.223293346452635 6.134373455668992)"><path d="M0 0 C0.3 0.89, 0.21 3.69, 1.8 5.31 C3.4 6.94, 6.56 8.58, 9.58 9.77 C12.6 10.97, 15.5 11.98, 19.93 12.47 C24.35 12.97, 30.28 12.97, 36.14 12.72 C42 12.47, 50.06 12.33, 55.06 11 C60.05 9.67, 63.88 6.68, 66.11 4.75 C68.34 2.81, 68.06 0.28, 68.45 -0.61 M0 0 C0.3 0.89, 0.21 3.69, 1.8 5.31 C3.4 6.94, 6.56 8.58, 9.58 9.77 C12.6 10.97, 15.5 11.98, 19.93 12.47 C24.35 12.97, 30.28 12.97, 36.14 12.72 C42 12.47, 50.06 12.33, 55.06 11 C60.05 9.67, 63.88 6.68, 66.11 4.75 C68.34 2.81, 68.06 0.28, 68.45 -0.61" stroke="#000000" stroke-width="1" fill="none"></path></g></g><mask></mask><g stroke-opacity="0.9" fill-opacity="0.9" stroke-linecap="round" transform="translate(143.48570420473789 521.2597130414331) rotate(0 18.126173977451742 52.320592002231535)"><path d="M17.67 -0.07 C21.1 -1.21, 25.06 2.95, 27.96 8.69 C30.86 14.43, 33.64 24.79, 35.07 34.35 C36.5 43.92, 37.42 56.31, 36.56 66.09 C35.7 75.87, 33.02 86.6, 29.92 93.03 C26.83 99.45, 21.76 104.08, 17.98 104.64 C14.21 105.19, 9.97 101.98, 7.29 96.37 C4.61 90.76, 2.92 80.55, 1.9 70.99 C0.88 61.44, 0.49 49.07, 1.15 39.03 C1.82 29, 2.77 17.4, 5.91 10.79 C9.04 4.17, 17.47 0.93, 19.98 -0.65 C22.49 -2.22, 21 0.5, 20.96 1.34 M11.52 0.86 C14.79 -2.86, 20.18 -1.19, 23.86 2.68 C27.54 6.55, 31.54 15.45, 33.62 24.07 C35.7 32.7, 36.41 44.51, 36.32 54.41 C36.22 64.31, 35.02 75.55, 33.04 83.46 C31.06 91.37, 27.83 98.85, 24.45 101.88 C21.07 104.91, 16.34 105.18, 12.74 101.64 C9.14 98.1, 4.92 89.15, 2.86 80.64 C0.79 72.13, 0.23 60.51, 0.37 50.58 C0.51 40.65, 1.73 28.98, 3.72 21.05 C5.7 13.11, 10.83 5.92, 12.27 2.95 C13.7 -0.01, 12.05 2.42, 12.31 3.24" stroke="#000000" stroke-width="1" fill="none"></path></g><g stroke-linecap="round"><g stroke-opacity="0.9" fill-opacity="0.9" transform="translate(128.17562191204775 611.4864217408126) rotate(0 34.223293346452635 -6.332932265580354)"><path d="M0 0 C1.6 -1.68, 6.26 -7.94, 9.58 -10.09 C12.9 -12.24, 15.5 -12.37, 19.93 -12.88 C24.35 -13.39, 30.28 -13.39, 36.14 -13.13 C42 -12.88, 50.06 -12.73, 55.06 -11.36 C60.05 -9.99, 63.88 -6.9, 66.11 -4.9 C68.34 -2.9, 68.06 -0.29, 68.45 0.63 M0 0 C1.6 -1.68, 6.26 -7.94, 9.58 -10.09 C12.9 -12.24, 15.5 -12.37, 19.93 -12.88 C24.35 -13.39, 30.28 -13.39, 36.14 -13.13 C42 -12.88, 50.06 -12.73, 55.06 -11.36 C60.05 -9.99, 63.88 -6.9, 66.11 -4.9 C68.34 -2.9, 68.06 -0.29, 68.45 0.63" stroke="#000000" stroke-width="1" fill="none"></path></g></g><mask></mask><g transform="translate(26.068502047967968 441.55010249810533) rotate(0 136.5 16)"><text x="0" y="26" font-family="Helvetica, Segoe UI Emoji" font-size="28px" fill="#000000" text-anchor="start" style="white-space: pre;" direction="ltr">FRONT-END CLIENT</text></g><g stroke-linecap="round" transform="translate(10 434.51627124074986) rotate(0 150.9998033413956 19.231107029328683)"><path d="M9.62 0 M9.62 0 C119.74 0, 229.86 0, 292.38 0 M9.62 0 C120.52 0, 231.42 0, 292.38 0 M292.38 0 C298.79 0, 302 3.21, 302 9.62 M292.38 0 C298.79 0, 302 3.21, 302 9.62 M302 9.62 C302 16.28, 302 22.94, 302 28.85 M302 9.62 C302 15.72, 302 21.82, 302 28.85 M302 28.85 C302 35.26, 298.79 38.46, 292.38 38.46 M302 28.85 C302 35.26, 298.79 38.46, 292.38 38.46 M292.38 38.46 C215.22 38.46, 138.06 38.46, 9.62 38.46 M292.38 38.46 C213.96 38.46, 135.54 38.46, 9.62 38.46 M9.62 38.46 C3.21 38.46, 0 35.26, 0 28.85 M9.62 38.46 C3.21 38.46, 0 35.26, 0 28.85 M0 28.85 C0 21.44, 0 14.04, 0 9.62 M0 28.85 C0 22.58, 0 16.31, 0 9.62 M0 9.62 C0 3.21, 3.21 0, 9.62 0 M0 9.62 C0 3.21, 3.21 0, 9.62 0" stroke="#000000" stroke-width="1" fill="none"></path></g><g stroke-linecap="round" transform="translate(799.1876514257845 64.13939512034551) rotate(0 750.1432516267228 528.5228295135455)"><path d="M32 0 M32 0 C453.28 0, 874.56 0, 1468.29 0 M1468.29 0 C1489.62 0, 1500.29 10.67, 1500.29 32 M1500.29 32 C1500.29 355.79, 1500.29 679.58, 1500.29 1025.05 M1500.29 1025.05 C1500.29 1046.38, 1489.62 1057.05, 1468.29 1057.05 M1468.29 1057.05 C1083.71 1057.05, 699.14 1057.05, 32 1057.05 M32 1057.05 C10.67 1057.05, 0 1046.38, 0 1025.05 M0 1025.05 C0 778.19, 0 531.33, 0 32 M0 32 C0 10.67, 10.67 0, 32 0" stroke="#000000" stroke-width="1.5" fill="none" stroke-dasharray="8 9"></path></g><g stroke-linecap="round" transform="translate(866.1403944167803 351.9727050598512) rotate(0 101.14137770980255 216.1539938806253)"><path d="M32 0 M32 0 C60.81 0, 89.62 0, 170.28 0 M32 0 C68.12 0, 104.24 0, 170.28 0 M170.28 0 C191.62 0, 202.28 10.67, 202.28 32 M170.28 0 C191.62 0, 202.28 10.67, 202.28 32 M202.28 32 C202.28 139.89, 202.28 247.78, 202.28 400.31 M202.28 32 C202.28 175.46, 202.28 318.93, 202.28 400.31 M202.28 400.31 C202.28 421.64, 191.62 432.31, 170.28 432.31 M202.28 400.31 C202.28 421.64, 191.62 432.31, 170.28 432.31 M170.28 432.31 C119.11 432.31, 67.94 432.31, 32 432.31 M170.28 432.31 C124.01 432.31, 77.74 432.31, 32 432.31 M32 432.31 C10.67 432.31, 0 421.64, 0 400.31 M32 432.31 C10.67 432.31, 0 421.64, 0 400.31 M0 400.31 C0 321.41, 0 242.52, 0 32 M0 400.31 C0 298.97, 0 197.63, 0 32 M0 32 C0 10.67, 10.67 0, 32 0 M0 32 C0 10.67, 10.67 0, 32 0" stroke="#000000" stroke-width="1" fill="none"></path></g><g transform="translate(886.0616136656063 544.0123727352732) rotate(0.07935509352816887 73 32)"><text x="73" y="26" font-family="Helvetica, Segoe UI Emoji" font-size="28px" fill="#000000" text-anchor="middle" style="white-space: pre;" direction="ltr">Publication </text><text x="73" y="58" font-family="Helvetica, Segoe UI Emoji" font-size="28px" fill="#000000" text-anchor="middle" style="white-space: pre;" direction="ltr">Service</text></g><g transform="translate(835.0976204707413 16.92080804609884) rotate(0 131 16)"><text x="0" y="26" font-family="Helvetica, Segoe UI Emoji" font-size="28px" fill="#000000" text-anchor="start" style="white-space: pre;" direction="ltr">SPRING BACK-END</text></g><g stroke-linecap="round" transform="translate(815.1768124246423 10) rotate(0 150.40210074804645 21.912888850708754)"><path d="M10.96 0 M10.96 0 C109.35 0, 207.74 0, 289.85 0 M10.96 0 C73.59 0, 136.22 0, 289.85 0 M289.85 0 C297.15 0, 300.8 3.65, 300.8 10.96 M289.85 0 C297.15 0, 300.8 3.65, 300.8 10.96 M300.8 10.96 C300.8 17.14, 300.8 23.33, 300.8 32.87 M300.8 10.96 C300.8 17.2, 300.8 23.44, 300.8 32.87 M300.8 32.87 C300.8 40.17, 297.15 43.83, 289.85 43.83 M300.8 32.87 C300.8 40.17, 297.15 43.83, 289.85 43.83 M289.85 43.83 C227.79 43.83, 165.73 43.83, 10.96 43.83 M289.85 43.83 C184.93 43.83, 80.01 43.83, 10.96 43.83 M10.96 43.83 C3.65 43.83, 0 40.17, 0 32.87 M10.96 43.83 C3.65 43.83, 0 40.17, 0 32.87 M0 32.87 C0 24.9, 0 16.94, 0 10.96 M0 32.87 C0 27.51, 0 22.16, 0 10.96 M0 10.96 C0 3.65, 3.65 0, 10.96 0 M0 10.96 C0 3.65, 3.65 0, 10.96 0" stroke="#000000" stroke-width="1" fill="none"></path></g><g stroke-linecap="round" transform="translate(1560.21503334874 127.53276747198328) rotate(0 153.39022195496136 105.58028264432403)"><path d="M7.86 8.16 C7.86 8.16, 7.86 8.16, 7.86 8.16 M7.86 8.16 C7.86 8.16, 7.86 8.16, 7.86 8.16 M2.75 26.24 C7.66 20.59, 12.57 14.94, 25.05 0.58 M2.75 26.24 C9.26 18.74, 15.78 11.24, 25.05 0.58 M2.88 38.28 C15.29 24, 27.7 9.72, 34.37 2.05 M2.88 38.28 C12.23 27.52, 21.59 16.76, 34.37 2.05 M2.36 51.07 C11.12 40.99, 19.88 30.92, 45 2.02 M2.36 51.07 C15.98 35.4, 29.61 19.73, 45 2.02 M2.49 63.11 C23.24 39.24, 44 15.36, 55.63 1.98 M2.49 63.11 C22.5 40.09, 42.52 17.07, 55.63 1.98 M2.62 75.16 C24.85 49.59, 47.08 24.02, 66.26 1.95 M2.62 75.16 C25.29 49.07, 47.97 22.99, 66.26 1.95 M2.76 87.2 C26.94 59.38, 51.12 31.56, 76.89 1.91 M2.76 87.2 C27.67 58.54, 52.58 29.88, 76.89 1.91 M2.23 99.99 C35.66 61.54, 69.09 23.08, 87.52 1.88 M2.23 99.99 C27.98 70.38, 53.72 40.76, 87.52 1.88 M2.37 112.03 C23.86 87.31, 45.35 62.59, 98.15 1.85 M2.37 112.03 C27.93 82.63, 53.49 53.22, 98.15 1.85 M2.5 124.07 C33.29 88.65, 64.08 53.23, 108.78 1.81 M2.5 124.07 C43.95 76.39, 85.41 28.7, 108.78 1.81 M1.98 136.87 C28.28 106.61, 54.58 76.36, 119.41 1.78 M1.98 136.87 C36.62 97.01, 71.27 57.16, 119.41 1.78 M2.11 148.91 C29.51 117.39, 56.91 85.87, 130.04 1.74 M2.11 148.91 C51.86 91.68, 101.61 34.44, 130.04 1.74 M2.24 160.95 C54.78 100.51, 107.32 40.07, 140.67 1.71 M2.24 160.95 C54.96 100.31, 107.68 39.66, 140.67 1.71 M2.38 172.99 C54.68 112.82, 106.98 52.65, 150.65 2.43 M2.38 172.99 C32.17 138.72, 61.96 104.45, 150.65 2.43 M0.54 187.3 C42.53 138.99, 84.53 90.68, 161.28 2.39 M0.54 187.3 C51.81 128.32, 103.07 69.35, 161.28 2.39 M4.61 194.81 C56.21 135.45, 107.81 76.1, 171.91 2.36 M4.61 194.81 C48.61 144.19, 92.61 93.57, 171.91 2.36 M8.68 202.32 C70.38 131.34, 132.08 60.36, 182.54 2.32 M8.68 202.32 C67.52 134.64, 126.36 66.95, 182.54 2.32 M14.06 208.33 C67.75 146.56, 121.44 84.8, 193.17 2.29 M14.06 208.33 C76.1 136.96, 138.14 65.59, 193.17 2.29 M21.41 212.06 C69.18 157.12, 116.94 102.17, 203.8 2.26 M21.41 212.06 C76.62 148.55, 131.83 85.04, 203.8 2.26 M32.7 211.28 C98.31 135.8, 163.92 60.32, 214.43 2.22 M32.7 211.28 C97.51 136.71, 162.33 62.15, 214.43 2.22 M43.33 211.24 C97.71 148.68, 152.1 86.12, 225.06 2.19 M43.33 211.24 C99.59 146.52, 155.86 81.79, 225.06 2.19 M53.96 211.21 C116.12 139.7, 178.28 68.19, 235.69 2.15 M53.96 211.21 C114.62 141.42, 175.29 71.63, 235.69 2.15 M63.93 211.93 C118.59 149.05, 173.25 86.17, 246.32 2.12 M63.93 211.93 C117.05 150.82, 170.18 89.71, 246.32 2.12 M74.56 211.89 C130.8 147.2, 187.03 82.51, 256.95 2.08 M74.56 211.89 C120.57 158.97, 166.57 106.05, 256.95 2.08 M85.19 211.86 C123.76 167.49, 162.33 123.12, 267.58 2.05 M85.19 211.86 C124.27 166.91, 163.34 121.95, 267.58 2.05 M95.82 211.82 C157.78 140.54, 219.75 69.26, 277.55 2.77 M95.82 211.82 C135.92 165.69, 176.02 119.56, 277.55 2.77 M106.45 211.79 C160.89 149.16, 215.33 86.54, 288.84 1.98 M106.45 211.79 C157.43 153.15, 208.4 94.51, 288.84 1.98 M117.08 211.75 C177.38 142.39, 237.68 73.02, 296.19 5.72 M117.08 211.75 C167.62 153.61, 218.16 95.47, 296.19 5.72 M127.71 211.72 C187.1 143.4, 246.49 75.08, 302.22 10.97 M127.71 211.72 C183.96 147.02, 240.2 82.31, 302.22 10.97 M138.34 211.69 C173.11 171.69, 207.87 131.7, 305.64 19.23 M138.34 211.69 C174.2 170.44, 210.05 129.2, 305.64 19.23 M148.97 211.65 C186.13 168.9, 223.29 126.16, 309.05 27.5 M148.97 211.65 C182.96 172.55, 216.95 133.45, 309.05 27.5 M159.6 211.62 C202.58 162.18, 245.55 112.74, 311.81 36.52 M159.6 211.62 C209.66 154.03, 259.73 96.44, 311.81 36.52 M170.23 211.58 C224.75 148.87, 279.26 86.16, 311.94 48.56 M170.23 211.58 C206.18 170.23, 242.13 128.88, 311.94 48.56 M180.86 211.55 C220.74 165.68, 260.61 119.81, 312.07 60.61 M180.86 211.55 C216.58 170.46, 252.3 129.37, 312.07 60.61 M191.49 211.51 C230.66 166.46, 269.82 121.41, 312.21 72.65 M191.49 211.51 C237.93 158.09, 284.38 104.66, 312.21 72.65 M202.12 211.48 C227.51 182.28, 252.89 153.07, 311.68 85.44 M202.12 211.48 C226.76 183.14, 251.39 154.8, 311.68 85.44 M212.75 211.44 C241.82 178.01, 270.88 144.58, 311.82 97.48 M212.75 211.44 C250.23 168.33, 287.7 125.22, 311.82 97.48 M223.38 211.41 C244.69 186.9, 266 162.38, 311.95 109.52 M223.38 211.41 C250.11 180.66, 276.84 149.92, 311.95 109.52 M234.01 211.37 C253.47 188.99, 272.92 166.61, 312.08 121.56 M234.01 211.37 C252.87 189.68, 271.73 167.99, 312.08 121.56 M244.64 211.34 C266.13 186.63, 287.61 161.91, 311.56 134.36 M244.64 211.34 C268.22 184.21, 291.8 157.09, 311.56 134.36 M255.27 211.31 C270.24 194.09, 285.2 176.88, 311.69 146.4 M255.27 211.31 C267.46 197.28, 279.66 183.26, 311.69 146.4 M265.9 211.27 C278.73 196.52, 291.55 181.77, 311.83 158.44 M265.9 211.27 C282.46 192.23, 299.01 173.19, 311.83 158.44 M275.88 211.99 C287.8 198.28, 299.71 184.57, 311.96 170.48 M275.88 211.99 C289.51 196.31, 303.14 180.63, 311.96 170.48 M289.13 208.94 C295.32 201.82, 301.5 194.71, 307.5 187.81 M289.13 208.94 C293.61 203.78, 298.1 198.63, 307.5 187.81" stroke="#99bcff" stroke-width="1" fill="none"></path><path d="M32 0 M32 0 C116.73 0, 201.47 0, 274.78 0 M32 0 C89.53 0, 147.06 0, 274.78 0 M274.78 0 C296.11 0, 306.78 10.67, 306.78 32 M274.78 0 C296.11 0, 306.78 10.67, 306.78 32 M306.78 32 C306.78 81.85, 306.78 131.7, 306.78 179.16 M306.78 32 C306.78 87.26, 306.78 142.51, 306.78 179.16 M306.78 179.16 C306.78 200.49, 296.11 211.16, 274.78 211.16 M306.78 179.16 C306.78 200.49, 296.11 211.16, 274.78 211.16 M274.78 211.16 C219.44 211.16, 164.1 211.16, 32 211.16 M274.78 211.16 C196.32 211.16, 117.85 211.16, 32 211.16 M32 211.16 C10.67 211.16, 0 200.49, 0 179.16 M32 211.16 C10.67 211.16, 0 200.49, 0 179.16 M0 179.16 C0 136.79, 0 94.41, 0 32 M0 179.16 C0 135.35, 0 91.53, 0 32 M0 32 C0 10.67, 10.67 0, 32 0 M0 32 C0 10.67, 10.67 0, 32 0" stroke="#000000" stroke-width="2" fill="none"></path></g><g transform="translate(1623.1052553037014 217.1130501163073) rotate(0 90.5 16)"><text x="90.5" y="26" font-family="Helvetica, Segoe UI Emoji" font-size="28px" fill="#000000" text-anchor="middle" style="white-space: pre;" direction="ltr">Image Service</text></g><g stroke-linecap="round" transform="translate(1566.1912757625698 466.18650425566415) rotate(0 153.39022195496136 105.58028264432403)"><path d="M7.86 8.16 C7.86 8.16, 7.86 8.16, 7.86 8.16 M7.86 8.16 C7.86 8.16, 7.86 8.16, 7.86 8.16 M2.75 26.24 C9.46 18.51, 16.18 10.79, 25.05 0.58 M2.75 26.24 C11.66 15.99, 20.57 5.74, 25.05 0.58 M2.88 38.28 C11.47 28.4, 20.05 18.52, 34.37 2.05 M2.88 38.28 C11.13 28.79, 19.38 19.3, 34.37 2.05 M2.36 51.07 C15.06 36.46, 27.77 21.84, 45 2.02 M2.36 51.07 C13.76 37.96, 25.16 24.84, 45 2.02 M2.49 63.11 C19.2 43.89, 35.91 24.67, 55.63 1.98 M2.49 63.11 C19.11 44, 35.73 24.88, 55.63 1.98 M2.62 75.16 C19.22 56.06, 35.82 36.97, 66.26 1.95 M2.62 75.16 C17.17 58.42, 31.72 41.69, 66.26 1.95 M2.76 87.2 C21.86 65.22, 40.97 43.24, 76.89 1.91 M2.76 87.2 C24.81 61.82, 46.87 36.45, 76.89 1.91 M2.23 99.99 C35.46 61.77, 68.68 23.56, 87.52 1.88 M2.23 99.99 C34.05 63.39, 65.87 26.78, 87.52 1.88 M2.37 112.03 C29.68 80.61, 56.99 49.19, 98.15 1.85 M2.37 112.03 C40.53 68.13, 78.7 24.22, 98.15 1.85 M2.5 124.07 C34.34 87.45, 66.18 50.82, 108.78 1.81 M2.5 124.07 C37.07 84.31, 71.64 44.54, 108.78 1.81 M1.98 136.87 C36.62 97.02, 71.27 57.16, 119.41 1.78 M1.98 136.87 C29.24 105.5, 56.51 74.14, 119.41 1.78 M2.11 148.91 C30.52 116.23, 58.94 83.54, 130.04 1.74 M2.11 148.91 C33.3 113.02, 64.5 77.14, 130.04 1.74 M2.24 160.95 C43.94 112.98, 85.64 65.02, 140.67 1.71 M2.24 160.95 C36.79 121.21, 71.33 81.48, 140.67 1.71 M2.38 172.99 C32.59 138.24, 62.8 103.48, 150.65 2.43 M2.38 172.99 C35.28 135.14, 68.19 97.29, 150.65 2.43 M0.54 187.3 C38.04 144.15, 75.55 101.01, 161.28 2.39 M0.54 187.3 C54.52 125.2, 108.51 63.09, 161.28 2.39 M4.61 194.81 C55.97 135.73, 107.32 76.66, 171.91 2.36 M4.61 194.81 C52.63 139.57, 100.65 84.33, 171.91 2.36 M8.68 202.32 C67.18 135.02, 125.68 67.73, 182.54 2.32 M8.68 202.32 C45.33 160.16, 81.99 117.99, 182.54 2.32 M14.06 208.33 C51.62 165.13, 89.17 121.92, 193.17 2.29 M14.06 208.33 C50.06 166.91, 86.06 125.5, 193.17 2.29 M21.41 212.06 C89.17 134.12, 156.93 56.17, 203.8 2.26 M21.41 212.06 C63.08 164.13, 104.76 116.19, 203.8 2.26 M32.7 211.28 C70.04 168.32, 107.38 125.36, 214.43 2.22 M32.7 211.28 C79.96 156.9, 127.23 102.53, 214.43 2.22 M43.33 211.24 C82.36 166.34, 121.4 121.43, 225.06 2.19 M43.33 211.24 C111.89 132.37, 180.45 53.5, 225.06 2.19 M53.96 211.21 C90.96 168.64, 127.97 126.07, 235.69 2.15 M53.96 211.21 C107.55 149.56, 161.14 87.91, 235.69 2.15 M63.93 211.93 C111.06 157.71, 158.18 103.5, 246.32 2.12 M63.93 211.93 C115 153.18, 166.06 94.44, 246.32 2.12 M74.56 211.89 C134.56 142.87, 194.56 73.85, 256.95 2.08 M74.56 211.89 C123.88 155.15, 173.21 98.41, 256.95 2.08 M85.19 211.86 C123.49 167.81, 161.78 123.75, 267.58 2.05 M85.19 211.86 C157.02 129.23, 228.84 46.61, 267.58 2.05 M95.82 211.82 C154.33 144.51, 212.84 77.21, 277.55 2.77 M95.82 211.82 C147.81 152.02, 199.79 92.22, 277.55 2.77 M106.45 211.79 C159.85 150.36, 213.26 88.93, 288.84 1.98 M106.45 211.79 C144.8 167.67, 183.15 123.55, 288.84 1.98 M117.08 211.75 C177.75 141.96, 238.42 72.17, 296.19 5.72 M117.08 211.75 C184.33 134.39, 251.59 57.03, 296.19 5.72 M127.71 211.72 C170.61 162.37, 213.51 113.02, 302.22 10.97 M127.71 211.72 C172.27 160.46, 216.83 109.2, 302.22 10.97 M138.34 211.69 C197.06 144.13, 255.79 76.58, 305.64 19.23 M138.34 211.69 C189.68 152.63, 241.02 93.57, 305.64 19.23 M148.97 211.65 C200.77 152.07, 252.56 92.49, 309.05 27.5 M148.97 211.65 C195.28 158.38, 241.59 105.11, 309.05 27.5 M159.6 211.62 C212.29 151.01, 264.97 90.4, 311.81 36.52 M159.6 211.62 C217.85 144.61, 276.09 77.61, 311.81 36.52 M170.23 211.58 C212.2 163.3, 254.18 115.02, 311.94 48.56 M170.23 211.58 C213.71 161.57, 257.19 111.55, 311.94 48.56 M180.86 211.55 C223.78 162.17, 266.7 112.8, 312.07 60.61 M180.86 211.55 C212.33 175.35, 243.79 139.16, 312.07 60.61 M191.49 211.51 C221.61 176.87, 251.73 142.22, 312.21 72.65 M191.49 211.51 C232.17 164.72, 272.84 117.94, 312.21 72.65 M202.12 211.48 C236.36 172.09, 270.6 132.71, 311.68 85.44 M202.12 211.48 C229.45 180.04, 256.78 148.6, 311.68 85.44 M212.75 211.44 C250.88 167.58, 289.01 123.72, 311.82 97.48 M212.75 211.44 C236.84 183.74, 260.92 156.03, 311.82 97.48 M223.38 211.41 C253.19 177.12, 283 142.83, 311.95 109.52 M223.38 211.41 C251.48 179.09, 279.57 146.77, 311.95 109.52 M234.01 211.37 C251.15 191.67, 268.28 171.96, 312.08 121.56 M234.01 211.37 C259.24 182.35, 284.47 153.33, 312.08 121.56 M244.64 211.34 C261.31 192.16, 277.98 172.99, 311.56 134.36 M244.64 211.34 C263.59 189.54, 282.54 167.75, 311.56 134.36 M255.27 211.31 C277.04 186.27, 298.81 161.23, 311.69 146.4 M255.27 211.31 C272.72 191.24, 290.16 171.17, 311.69 146.4 M265.9 211.27 C280.4 194.59, 294.9 177.92, 311.83 158.44 M265.9 211.27 C280.67 194.28, 295.44 177.29, 311.83 158.44 M275.88 211.99 C284.26 202.35, 292.64 192.71, 311.96 170.48 M275.88 211.99 C289.15 196.72, 302.42 181.46, 311.96 170.48 M289.13 208.94 C293.12 204.34, 297.12 199.75, 307.5 187.81 M289.13 208.94 C295.4 201.73, 301.67 194.51, 307.5 187.81" stroke="#99bcff" stroke-width="1" fill="none"></path><path d="M32 0 M32 0 C86.06 0, 140.12 0, 274.78 0 M32 0 C104.82 0, 177.65 0, 274.78 0 M274.78 0 C296.11 0, 306.78 10.67, 306.78 32 M274.78 0 C296.11 0, 306.78 10.67, 306.78 32 M306.78 32 C306.78 63.6, 306.78 95.2, 306.78 179.16 M306.78 32 C306.78 85.24, 306.78 138.48, 306.78 179.16 M306.78 179.16 C306.78 200.49, 296.11 211.16, 274.78 211.16 M306.78 179.16 C306.78 200.49, 296.11 211.16, 274.78 211.16 M274.78 211.16 C214.87 211.16, 154.97 211.16, 32 211.16 M274.78 211.16 C184.22 211.16, 93.66 211.16, 32 211.16 M32 211.16 C10.67 211.16, 0 200.49, 0 179.16 M32 211.16 C10.67 211.16, 0 200.49, 0 179.16 M0 179.16 C0 137.46, 0 95.76, 0 32 M0 179.16 C0 140.29, 0 101.42, 0 32 M0 32 C0 10.67, 10.67 0, 32 0 M0 32 C0 10.67, 10.67 0, 32 0" stroke="#000000" stroke-width="2" fill="none"></path></g><g transform="translate(1600.5814977175307 555.7667868999881) rotate(0 119 16)"><text x="119" y="26" font-family="Helvetica, Segoe UI Emoji" font-size="28px" fill="#000000" text-anchor="middle" style="white-space: pre;" direction="ltr">Comments Service</text></g><g stroke-linecap="round" transform="translate(1578.1437605902295 806.8323218439548) rotate(0 153.39022195496136 105.58028264432403)"><path d="M7.86 8.16 C7.86 8.16, 7.86 8.16, 7.86 8.16 M7.86 8.16 C7.86 8.16, 7.86 8.16, 7.86 8.16 M2.75 26.24 C11.42 16.26, 20.1 6.27, 25.05 0.58 M2.75 26.24 C9.76 18.17, 16.77 10.1, 25.05 0.58 M2.88 38.28 C12.37 27.36, 21.86 16.44, 34.37 2.05 M2.88 38.28 C12.27 27.48, 21.65 16.68, 34.37 2.05 M2.36 51.07 C16.18 35.17, 30 19.27, 45 2.02 M2.36 51.07 C16.45 34.86, 30.54 18.65, 45 2.02 M2.49 63.11 C14.77 48.99, 27.05 34.86, 55.63 1.98 M2.49 63.11 C23.49 38.96, 44.49 14.8, 55.63 1.98 M2.62 75.16 C23.99 50.57, 45.36 25.99, 66.26 1.95 M2.62 75.16 C25.01 49.4, 47.41 23.64, 66.26 1.95 M2.76 87.2 C18.33 69.28, 33.9 51.37, 76.89 1.91 M2.76 87.2 C26.29 60.13, 49.82 33.06, 76.89 1.91 M2.23 99.99 C19.55 80.07, 36.86 60.16, 87.52 1.88 M2.23 99.99 C23.32 75.74, 44.4 51.48, 87.52 1.88 M2.37 112.03 C36.8 72.42, 71.24 32.8, 98.15 1.85 M2.37 112.03 C32.66 77.18, 62.96 42.32, 98.15 1.85 M2.5 124.07 C38.56 82.6, 74.61 41.12, 108.78 1.81 M2.5 124.07 C34.47 87.3, 66.43 50.53, 108.78 1.81 M1.98 136.87 C41.33 91.6, 80.69 46.32, 119.41 1.78 M1.98 136.87 C44.12 88.39, 86.27 39.91, 119.41 1.78 M2.11 148.91 C52.3 91.17, 102.49 33.44, 130.04 1.74 M2.11 148.91 C29.28 117.65, 56.45 86.4, 130.04 1.74 M2.24 160.95 C47.49 108.9, 92.73 56.86, 140.67 1.71 M2.24 160.95 C47.62 108.75, 92.99 56.56, 140.67 1.71 M2.38 172.99 C38.61 131.31, 74.84 89.63, 150.65 2.43 M2.38 172.99 C46.49 122.25, 90.6 71.5, 150.65 2.43 M0.54 187.3 C42.17 139.41, 83.8 91.51, 161.28 2.39 M0.54 187.3 C36.11 146.38, 71.68 105.46, 161.28 2.39 M4.61 194.81 C40.07 154.01, 75.54 113.22, 171.91 2.36 M4.61 194.81 C52.67 139.52, 100.73 84.23, 171.91 2.36 M8.68 202.32 C76.55 124.24, 144.43 46.16, 182.54 2.32 M8.68 202.32 C70.11 131.65, 131.55 60.98, 182.54 2.32 M14.06 208.33 C58.13 157.63, 102.2 106.93, 193.17 2.29 M14.06 208.33 C72.88 140.66, 131.7 73, 193.17 2.29 M21.41 212.06 C78.7 146.16, 135.99 80.25, 203.8 2.26 M21.41 212.06 C85.89 137.89, 150.36 63.72, 203.8 2.26 M32.7 211.28 C93.02 141.89, 153.33 72.5, 214.43 2.22 M32.7 211.28 C102.34 131.16, 171.99 51.04, 214.43 2.22 M43.33 211.24 C108.32 136.47, 173.32 61.7, 225.06 2.19 M43.33 211.24 C110 134.54, 176.68 57.83, 225.06 2.19 M53.96 211.21 C106.52 150.74, 159.08 90.28, 235.69 2.15 M53.96 211.21 C95.71 163.17, 137.47 115.14, 235.69 2.15 M63.93 211.93 C133.76 131.59, 203.6 51.26, 246.32 2.12 M63.93 211.93 C110.32 158.56, 156.71 105.2, 246.32 2.12 M74.56 211.89 C142.42 133.83, 210.28 55.77, 256.95 2.08 M74.56 211.89 C122.27 157.01, 169.98 102.12, 256.95 2.08 M85.19 211.86 C155.6 130.86, 226.01 49.87, 267.58 2.05 M85.19 211.86 C156.73 129.56, 228.27 47.27, 267.58 2.05 M95.82 211.82 C144.67 155.63, 193.52 99.43, 277.55 2.77 M95.82 211.82 C148.15 151.63, 200.47 91.43, 277.55 2.77 M106.45 211.79 C160.75 149.32, 215.06 86.85, 288.84 1.98 M106.45 211.79 C156.17 154.59, 205.89 97.39, 288.84 1.98 M117.08 211.75 C171.23 149.47, 225.37 87.18, 296.19 5.72 M117.08 211.75 C176.84 143.01, 236.6 74.26, 296.19 5.72 M127.71 211.72 C194.54 134.84, 261.37 57.96, 302.22 10.97 M127.71 211.72 C180.62 150.86, 233.52 90, 302.22 10.97 M138.34 211.69 C176.77 167.47, 215.21 123.26, 305.64 19.23 M138.34 211.69 C178.36 165.64, 218.39 119.6, 305.64 19.23 M148.97 211.65 C187.56 167.26, 226.16 122.86, 309.05 27.5 M148.97 211.65 C182.14 173.5, 215.3 135.35, 309.05 27.5 M159.6 211.62 C196.53 169.14, 233.46 126.66, 311.81 36.52 M159.6 211.62 C199.29 165.96, 238.98 120.3, 311.81 36.52 M170.23 211.58 C199.4 178.03, 228.57 144.47, 311.94 48.56 M170.23 211.58 C201.91 175.14, 233.59 138.7, 311.94 48.56 M180.86 211.55 C229 156.17, 277.15 100.79, 312.07 60.61 M180.86 211.55 C216.29 170.79, 251.71 130.04, 312.07 60.61 M191.49 211.51 C233.18 163.56, 274.87 115.6, 312.21 72.65 M191.49 211.51 C228.53 168.91, 265.57 126.3, 312.21 72.65 M202.12 211.48 C230.92 178.35, 259.73 145.21, 311.68 85.44 M202.12 211.48 C240.93 166.83, 279.75 122.18, 311.68 85.44 M212.75 211.44 C238.72 181.57, 264.68 151.7, 311.82 97.48 M212.75 211.44 C245.17 174.16, 277.58 136.87, 311.82 97.48 M223.38 211.41 C243.33 188.46, 263.28 165.51, 311.95 109.52 M223.38 211.41 C242.56 189.35, 261.74 167.29, 311.95 109.52 M234.01 211.37 C256.88 185.06, 279.76 158.75, 312.08 121.56 M234.01 211.37 C255.12 187.09, 276.24 162.8, 312.08 121.56 M244.64 211.34 C270.28 181.85, 295.91 152.37, 311.56 134.36 M244.64 211.34 C269.77 182.44, 294.89 153.54, 311.56 134.36 M255.27 211.31 C272.72 191.24, 290.16 171.17, 311.69 146.4 M255.27 211.31 C268.7 195.86, 282.12 180.42, 311.69 146.4 M265.9 211.27 C279.67 195.44, 293.43 179.61, 311.83 158.44 M265.9 211.27 C282.67 191.98, 299.44 172.69, 311.83 158.44 M275.88 211.99 C287.29 198.86, 298.71 185.73, 311.96 170.48 M275.88 211.99 C284.78 201.75, 293.68 191.51, 311.96 170.48 M289.13 208.94 C295.98 201.06, 302.84 193.17, 307.5 187.81 M289.13 208.94 C295.3 201.85, 301.46 194.75, 307.5 187.81" stroke="#99bcff" stroke-width="1" fill="none"></path><path d="M32 0 M32 0 C93.78 0, 155.56 0, 274.78 0 M32 0 C87.74 0, 143.48 0, 274.78 0 M274.78 0 C296.11 0, 306.78 10.67, 306.78 32 M274.78 0 C296.11 0, 306.78 10.67, 306.78 32 M306.78 32 C306.78 80.74, 306.78 129.48, 306.78 179.16 M306.78 32 C306.78 90.82, 306.78 149.65, 306.78 179.16 M306.78 179.16 C306.78 200.49, 296.11 211.16, 274.78 211.16 M306.78 179.16 C306.78 200.49, 296.11 211.16, 274.78 211.16 M274.78 211.16 C194.73 211.16, 114.68 211.16, 32 211.16 M274.78 211.16 C184.9 211.16, 95.01 211.16, 32 211.16 M32 211.16 C10.67 211.16, 0 200.49, 0 179.16 M32 211.16 C10.67 211.16, 0 200.49, 0 179.16 M0 179.16 C0 135.65, 0 92.15, 0 32 M0 179.16 C0 133.36, 0 87.56, 0 32 M0 32 C0 10.67, 10.67 0, 32 0 M0 32 C0 10.67, 10.67 0, 32 0" stroke="#000000" stroke-width="2" fill="none"></path></g><g transform="translate(1654.5339825451904 896.4126044882787) rotate(0 77 16)"><text x="77" y="26" font-family="Helvetica, Segoe UI Emoji" font-size="28px" fill="#000000" text-anchor="middle" style="white-space: pre;" direction="ltr">Like Service</text></g><g stroke-linecap="round"><g transform="translate(313.17244966295084 531.9251708077904) rotate(0 267.9348682200298 0.9960404023049705)"><path d="M0 0 C89.31 0.33, 446.56 1.66, 535.87 1.99 M0 0 C89.31 0.33, 446.56 1.66, 535.87 1.99" stroke="#000000" stroke-width="2" fill="none"></path></g><g transform="translate(313.17244966295084 531.9251708077904) rotate(0 267.9348682200298 0.9960404023049705)"><path d="M507.64 12.15 C513.72 9.96, 519.79 7.78, 535.87 1.99 M507.64 12.15 C515.21 9.43, 522.78 6.7, 535.87 1.99" stroke="#000000" stroke-width="2" fill="none"></path></g><g transform="translate(313.17244966295084 531.9251708077904) rotate(0 267.9348682200298 0.9960404023049705)"><path d="M507.72 -8.37 C513.78 -6.14, 519.84 -3.91, 535.87 1.99 M507.72 -8.37 C515.26 -5.59, 522.81 -2.82, 535.87 1.99" stroke="#000000" stroke-width="2" fill="none"></path></g></g><mask></mask><g stroke-linecap="round"><g transform="translate(851.0342669076203 573.7588677045981) rotate(0 -263.95070661081 0)"><path d="M0 0 C-87.98 0, -439.92 0, -527.9 0 M0 0 C-87.98 0, -439.92 0, -527.9 0" stroke="#000000" stroke-width="2" fill="none"></path></g><g transform="translate(851.0342669076203 573.7588677045981) rotate(0 -263.95070661081 0)"><path d="M-499.71 -10.26 C-510.67 -6.27, -521.63 -2.28, -527.9 0 M-499.71 -10.26 C-510.4 -6.37, -521.08 -2.48, -527.9 0" stroke="#000000" stroke-width="2" fill="none"></path></g><g transform="translate(851.0342669076203 573.7588677045981) rotate(0 -263.95070661081 0)"><path d="M-499.71 10.26 C-510.67 6.27, -521.63 2.28, -527.9 0 M-499.71 10.26 C-510.4 6.37, -521.08 2.48, -527.9 0" stroke="#000000" stroke-width="2" fill="none"></path></g></g><mask></mask><g stroke-linecap="round"><g transform="translate(1086.099801851587 404.43199931275757) rotate(0 226.10117132322205 -109.56444425354374)"><path d="M0 0 C75.37 -36.52, 376.84 -182.61, 452.2 -219.13 M0 0 C75.37 -36.52, 376.84 -182.61, 452.2 -219.13" stroke="#000000" stroke-width="2" fill="none"></path></g><g transform="translate(1086.099801851587 404.43199931275757) rotate(0 226.10117132322205 -109.56444425354374)"><path d="M431.31 -197.6 C436.24 -202.69, 441.18 -207.77, 452.2 -219.13 M431.31 -197.6 C437.44 -203.92, 443.57 -210.23, 452.2 -219.13" stroke="#000000" stroke-width="2" fill="none"></path></g><g transform="translate(1086.099801851587 404.43199931275757) rotate(0 226.10117132322205 -109.56444425354374)"><path d="M422.36 -216.07 C429.41 -216.79, 436.46 -217.51, 452.2 -219.13 M422.36 -216.07 C431.11 -216.97, 439.87 -217.86, 452.2 -219.13" stroke="#000000" stroke-width="2" fill="none"></path></g></g><mask></mask><g stroke-linecap="round"><g transform="translate(1540.294225302641 219.16848448403817) rotate(0 -226.10117132322205 110.56048465584871)"><path d="M0 0 C-75.37 36.85, -376.84 184.27, -452.2 221.12 M0 0 C-75.37 36.85, -376.84 184.27, -452.2 221.12" stroke="#000000" stroke-width="2" fill="none"></path></g><g transform="translate(1540.294225302641 219.16848448403817) rotate(0 -226.10117132322205 110.56048465584871)"><path d="M-431.38 199.52 C-436.67 205, -441.95 210.48, -452.2 221.12 M-431.38 199.52 C-439.5 207.94, -447.62 216.37, -452.2 221.12" stroke="#000000" stroke-width="2" fill="none"></path></g><g transform="translate(1540.294225302641 219.16848448403817) rotate(0 -226.10117132322205 110.56048465584871)"><path d="M-422.37 217.95 C-429.94 218.76, -437.51 219.56, -452.2 221.12 M-422.37 217.95 C-434 219.19, -445.64 220.42, -452.2 221.12" stroke="#000000" stroke-width="2" fill="none"></path></g></g><mask></mask><g stroke-linecap="round"><g transform="translate(1084.107721046977 537.90141322162) rotate(0 230.08533293244193 0.9960404023049136)"><path d="M0 0 C76.7 0.33, 383.48 1.66, 460.17 1.99 M0 0 C76.7 0.33, 383.48 1.66, 460.17 1.99" stroke="#000000" stroke-width="2" fill="none"></path></g><g transform="translate(1084.107721046977 537.90141322162) rotate(0 230.08533293244193 0.9960404023049136)"><path d="M431.94 12.13 C442.99 8.16, 454.04 4.19, 460.17 1.99 M431.94 12.13 C442.24 8.43, 452.55 4.73, 460.17 1.99" stroke="#000000" stroke-width="2" fill="none"></path></g><g transform="translate(1084.107721046977 537.90141322162) rotate(0 230.08533293244193 0.9960404023049136)"><path d="M432.02 -8.39 C443.04 -4.33, 454.06 -0.26, 460.17 1.99 M432.02 -8.39 C442.3 -4.6, 452.57 -0.81, 460.17 1.99" stroke="#000000" stroke-width="2" fill="none"></path></g></g><mask></mask><g stroke-linecap="round"><g transform="translate(1538.302144498031 577.7430293138177) rotate(0 -229.08929253013685 -1.9920808046098841)"><path d="M0 0 C-76.36 -0.66, -381.82 -3.32, -458.18 -3.98 M0 0 C-76.36 -0.66, -381.82 -3.32, -458.18 -3.98" stroke="#000000" stroke-width="2" fill="none"></path></g><g transform="translate(1538.302144498031 577.7430293138177) rotate(0 -229.08929253013685 -1.9920808046098841)"><path d="M-429.9 -14 C-438.01 -11.13, -446.11 -8.26, -458.18 -3.98 M-429.9 -14 C-438.35 -11.01, -446.79 -8.02, -458.18 -3.98" stroke="#000000" stroke-width="2" fill="none"></path></g><g transform="translate(1538.302144498031 577.7430293138177) rotate(0 -229.08929253013685 -1.9920808046098841)"><path d="M-430.08 6.52 C-438.13 3.51, -446.19 0.5, -458.18 -3.98 M-430.08 6.52 C-438.47 3.38, -446.87 0.25, -458.18 -3.98" stroke="#000000" stroke-width="2" fill="none"></path></g></g><mask></mask><g stroke-linecap="round"><g transform="translate(1090.083963460807 703.2441200042406) rotate(0 236.06157534627152 77.69115137978565)"><path d="M0 0 C78.69 25.9, 393.44 129.49, 472.12 155.38 M0 0 C78.69 25.9, 393.44 129.49, 472.12 155.38" stroke="#000000" stroke-width="2" fill="none"></path></g><g transform="translate(1090.083963460807 703.2441200042406) rotate(0 236.06157534627152 77.69115137978565)"><path d="M442.14 156.32 C449.01 156.1, 455.88 155.89, 472.12 155.38 M442.14 156.32 C450.78 156.05, 459.42 155.78, 472.12 155.38" stroke="#000000" stroke-width="2" fill="none"></path></g><g transform="translate(1090.083963460807 703.2441200042406) rotate(0 236.06157534627152 77.69115137978565)"><path d="M448.55 136.82 C453.95 141.07, 459.35 145.33, 472.12 155.38 M448.55 136.82 C455.35 142.17, 462.14 147.52, 472.12 155.38" stroke="#000000" stroke-width="2" fill="none"></path></g></g><mask></mask><g stroke-linecap="round"><g transform="translate(1556.2308717395201 896.4759580513996) rotate(0 -233.0734541393566 -78.68719178209051)"><path d="M0 0 C-77.69 -26.23, -388.46 -131.15, -466.15 -157.37 M0 0 C-77.69 -26.23, -388.46 -131.15, -466.15 -157.37" stroke="#000000" stroke-width="2" fill="none"></path></g><g transform="translate(1556.2308717395201 896.4759580513996) rotate(0 -233.0734541393566 -78.68719178209051)"><path d="M-436.16 -158.08 C-443.11 -157.92, -450.07 -157.75, -466.15 -157.37 M-436.16 -158.08 C-447.25 -157.82, -458.34 -157.56, -466.15 -157.37" stroke="#000000" stroke-width="2" fill="none"></path></g><g transform="translate(1556.2308717395201 896.4759580513996) rotate(0 -233.0734541393566 -78.68719178209051)"><path d="M-442.72 -138.64 C-448.16 -142.98, -453.59 -147.33, -466.15 -157.37 M-442.72 -138.64 C-451.38 -145.56, -460.05 -152.49, -466.15 -157.37" stroke="#000000" stroke-width="2" fill="none"></path></g></g><mask></mask><g stroke-linecap="round" transform="translate(1169.532736700653 303.47639240846587) rotate(333.3088847182222 18.0843660119383 21)"><path d="M36.17 21 C36.17 22.22, 36.08 23.45, 35.89 24.65 C35.71 25.84, 35.44 27.04, 35.08 28.18 C34.72 29.32, 34.27 30.45, 33.75 31.5 C33.22 32.55, 32.61 33.57, 31.94 34.5 C31.26 35.43, 30.51 36.31, 29.71 37.09 C28.91 37.87, 28.03 38.58, 27.13 39.19 C26.22 39.79, 25.25 40.32, 24.27 40.73 C23.29 41.15, 22.26 41.47, 21.22 41.68 C20.19 41.89, 19.13 42, 18.08 42 C17.04 42, 15.97 41.89, 14.94 41.68 C13.91 41.47, 12.88 41.15, 11.9 40.73 C10.92 40.32, 9.95 39.79, 9.04 39.19 C8.14 38.58, 7.26 37.87, 6.46 37.09 C5.66 36.31, 4.9 35.43, 4.23 34.5 C3.56 33.57, 2.95 32.55, 2.42 31.5 C1.9 30.45, 1.45 29.32, 1.09 28.18 C0.73 27.04, 0.46 25.84, 0.27 24.65 C0.09 23.45, 0 22.22, 0 21 C0 19.78, 0.09 18.55, 0.27 17.35 C0.46 16.16, 0.73 14.96, 1.09 13.82 C1.45 12.68, 1.9 11.55, 2.42 10.5 C2.95 9.45, 3.56 8.43, 4.23 7.5 C4.9 6.57, 5.66 5.69, 6.46 4.91 C7.26 4.13, 8.14 3.42, 9.04 2.81 C9.95 2.21, 10.92 1.68, 11.9 1.27 C12.88 0.85, 13.91 0.53, 14.94 0.32 C15.97 0.11, 17.04 0, 18.08 0 C19.13 0, 20.19 0.11, 21.22 0.32 C22.26 0.53, 23.29 0.85, 24.27 1.27 C25.25 1.68, 26.22 2.21, 27.13 2.81 C28.03 3.42, 28.91 4.13, 29.71 4.91 C30.51 5.69, 31.26 6.57, 31.94 7.5 C32.61 8.43, 33.22 9.45, 33.75 10.5 C34.27 11.55, 34.72 12.68, 35.08 13.82 C35.44 14.96, 35.71 16.16, 35.89 17.35 C36.08 18.55, 36.12 20.39, 36.17 21 C36.21 21.61, 36.21 20.39, 36.17 21" stroke="#000000" stroke-width="2" fill="none"></path></g><g stroke-linecap="round" transform="translate(1216.4536625211988 491.2194007003187) rotate(359.7756374628327 18.0843660119383 21)"><path d="M36.17 21 C36.17 22.22, 36.08 23.45, 35.89 24.65 C35.71 25.84, 35.44 27.04, 35.08 28.18 C34.72 29.32, 34.27 30.45, 33.75 31.5 C33.22 32.55, 32.61 33.57, 31.94 34.5 C31.26 35.43, 30.51 36.31, 29.71 37.09 C28.91 37.87, 28.03 38.58, 27.13 39.19 C26.22 39.79, 25.25 40.32, 24.27 40.73 C23.29 41.15, 22.26 41.47, 21.22 41.68 C20.19 41.89, 19.13 42, 18.08 42 C17.04 42, 15.97 41.89, 14.94 41.68 C13.91 41.47, 12.88 41.15, 11.9 40.73 C10.92 40.32, 9.95 39.79, 9.04 39.19 C8.14 38.58, 7.26 37.87, 6.46 37.09 C5.66 36.31, 4.9 35.43, 4.23 34.5 C3.56 33.57, 2.95 32.55, 2.42 31.5 C1.9 30.45, 1.45 29.32, 1.09 28.18 C0.73 27.04, 0.46 25.84, 0.27 24.65 C0.09 23.45, 0 22.22, 0 21 C0 19.78, 0.09 18.55, 0.27 17.35 C0.46 16.16, 0.73 14.96, 1.09 13.82 C1.45 12.68, 1.9 11.55, 2.42 10.5 C2.95 9.45, 3.56 8.43, 4.23 7.5 C4.9 6.57, 5.66 5.69, 6.46 4.91 C7.26 4.13, 8.14 3.42, 9.04 2.81 C9.95 2.21, 10.92 1.68, 11.9 1.27 C12.88 0.85, 13.91 0.53, 14.94 0.32 C15.97 0.11, 17.04 0, 18.08 0 C19.13 0, 20.19 0.11, 21.22 0.32 C22.26 0.53, 23.29 0.85, 24.27 1.27 C25.25 1.68, 26.22 2.21, 27.13 2.81 C28.03 3.42, 28.91 4.13, 29.71 4.91 C30.51 5.69, 31.26 6.57, 31.94 7.5 C32.61 8.43, 33.22 9.45, 33.75 10.5 C34.27 11.55, 34.72 12.68, 35.08 13.82 C35.44 14.96, 35.71 16.16, 35.89 17.35 C36.08 18.55, 36.12 20.39, 36.17 21 C36.21 21.61, 36.21 20.39, 36.17 21" stroke="#000000" stroke-width="2" fill="none"></path></g><g stroke-linecap="round" transform="translate(1235.2989346664285 707.4818023361775) rotate(378.6829771685455 18.084366011938414 21)"><path d="M36.17 21 C36.17 22.22, 36.08 23.45, 35.89 24.65 C35.71 25.84, 35.44 27.04, 35.08 28.18 C34.72 29.32, 34.27 30.45, 33.75 31.5 C33.22 32.55, 32.61 33.57, 31.94 34.5 C31.26 35.43, 30.51 36.31, 29.71 37.09 C28.91 37.87, 28.03 38.58, 27.13 39.19 C26.22 39.79, 25.25 40.32, 24.27 40.73 C23.29 41.15, 22.26 41.47, 21.22 41.68 C20.19 41.89, 19.13 42, 18.08 42 C17.04 42, 15.97 41.89, 14.94 41.68 C13.91 41.47, 12.88 41.15, 11.9 40.73 C10.92 40.32, 9.95 39.79, 9.04 39.19 C8.14 38.58, 7.26 37.87, 6.46 37.09 C5.66 36.31, 4.9 35.43, 4.23 34.5 C3.56 33.57, 2.95 32.55, 2.42 31.5 C1.9 30.45, 1.45 29.32, 1.09 28.18 C0.73 27.04, 0.46 25.84, 0.27 24.65 C0.09 23.45, 0 22.22, 0 21 C0 19.78, 0.09 18.55, 0.27 17.35 C0.46 16.16, 0.73 14.96, 1.09 13.82 C1.45 12.68, 1.9 11.55, 2.42 10.5 C2.95 9.45, 3.56 8.43, 4.23 7.5 C4.9 6.57, 5.66 5.69, 6.46 4.91 C7.26 4.13, 8.14 3.42, 9.04 2.81 C9.95 2.21, 10.92 1.68, 11.9 1.27 C12.88 0.85, 13.91 0.53, 14.94 0.32 C15.97 0.11, 17.04 0, 18.08 0 C19.13 0, 20.19 0.11, 21.22 0.32 C22.26 0.53, 23.29 0.85, 24.27 1.27 C25.25 1.68, 26.22 2.21, 27.13 2.81 C28.03 3.42, 28.91 4.13, 29.71 4.91 C30.51 5.69, 31.26 6.57, 31.94 7.5 C32.61 8.43, 33.22 9.45, 33.75 10.5 C34.27 11.55, 34.72 12.68, 35.08 13.82 C35.44 14.96, 35.71 16.16, 35.89 17.35 C36.08 18.55, 36.12 20.39, 36.17 21 C36.21 21.61, 36.21 20.39, 36.17 21" stroke="#000000" stroke-width="2" fill="none"></path></g><g transform="translate(1178.6171027125913 308.47639240846587) rotate(333.3088847182222 9 16)"><text x="9" y="26" font-family="Helvetica, Segoe UI Emoji" font-size="28px" fill="#000000" text-anchor="middle" style="white-space: pre;" direction="ltr">1</text></g><g transform="translate(1225.538028533137 496.2194007003187) rotate(359.7756374628327 9.000000000000114 16)"><text x="9" y="26" font-family="Helvetica, Segoe UI Emoji" font-size="28px" fill="#000000" text-anchor="middle" style="white-space: pre;" direction="ltr">2</text></g><g transform="translate(1244.3833006783664 712.4818023361775) rotate(378.6829771685455 9 16)"><text x="9" y="26" font-family="Helvetica, Segoe UI Emoji" font-size="28px" fill="#000000" text-anchor="middle" style="white-space: pre;" direction="ltr">3</text></g><g transform="translate(1208.2502966928603 264.57282846603755) rotate(333.3088847182222 65 16)"><text x="0" y="26" font-family="Helvetica, Segoe UI Emoji" font-size="28px" fill="#000000" text-anchor="start" style="white-space: pre;" direction="ltr">3 seconds</text></g><g transform="translate(1265.5528753777564 495.03265152520504) rotate(359.7756374628327 65 16)"><text x="0" y="26" font-family="Helvetica, Segoe UI Emoji" font-size="28px" fill="#000000" text-anchor="start" style="white-space: pre;" direction="ltr">2 seconds</text></g><g transform="translate(1279.6021092310568 742.4716031762614) rotate(378.6829771685455 65 16)"><text x="0" y="26" font-family="Helvetica, Segoe UI Emoji" font-size="28px" fill="#000000" text-anchor="start" style="white-space: pre;" direction="ltr">2 seconds</text></g><g stroke-linecap="round"><g transform="translate(2063.0550472389414 173.40045312486663) rotate(0 43.71374930039974 47.47585889733071)" fill-rule="evenodd"><path d="M1.42 -1.72 L1.72 96.79 L-0.41 98.21 L20.92 105.38 L47.96 103.92 L73.45 102.85 L79.66 102.63 L89.11 96.14 L86.17 0.26 L85.63 0.75 L85.96 -1.01 L75.44 -6.97 L43.6 -7.24 L9.98 -5.94 L5.58 -5.66 L-0.85 -1.75" stroke="none" stroke-width="0" fill="#228be6" fill-rule="evenodd"></path><path d="M-1.07 0.81 C-0.71 15.05, 1.14 69.34, 1.46 85.31 C1.79 101.28, 0.45 94.18, 0.88 96.63 C1.31 99.08, 0.8 98.66, 4.06 100.01 C7.32 101.35, 13.35 103.8, 20.44 104.7 C27.53 105.59, 37.85 105.51, 46.62 105.35 C55.38 105.19, 66.29 105, 73.01 103.75 C79.74 102.49, 84.65 99.33, 86.97 97.81 C89.28 96.3, 86.77 96.48, 86.9 94.67 C87.03 92.87, 87.61 101.61, 87.73 86.99 C87.86 72.38, 87.67 21.72, 87.64 6.97 C87.6 -7.77, 88.51 0.52, 87.51 -1.49 C86.51 -3.5, 84.37 -4.05, 81.63 -5.11 C78.89 -6.17, 77.68 -7.11, 71.06 -7.86 C64.44 -8.61, 50.13 -9.64, 41.9 -9.61 C33.67 -9.57, 28.01 -8.81, 21.69 -7.66 C15.37 -6.5, 7.54 -4.05, 3.99 -2.67 C0.44 -1.28, 0.95 0.03, 0.39 0.64 C-0.17 1.24, 0.59 0.9, 0.64 0.96 M0.57 0.19 C0.93 14.57, 1.13 70.7, 1.13 86.45 C1.13 102.2, 0.08 92.25, 0.57 94.69 C1.05 97.13, 0.97 99.86, 4.05 101.07 C7.13 102.28, 11.74 101.38, 19.03 101.97 C26.33 102.56, 38.68 104.47, 47.84 104.61 C56.99 104.75, 67.51 104.07, 73.94 102.8 C80.38 101.53, 84.05 98, 86.45 96.99 C88.85 95.97, 88.06 98.46, 88.36 96.7 C88.66 94.93, 88.37 101.21, 88.27 86.4 C88.18 71.59, 88.15 22.04, 87.79 7.83 C87.43 -6.38, 87.12 3.49, 86.11 1.15 C85.11 -1.2, 84.28 -4.61, 81.76 -6.22 C79.24 -7.82, 77.62 -7.78, 70.97 -8.49 C64.31 -9.19, 50.39 -10.81, 41.81 -10.44 C33.22 -10.08, 25.97 -7.21, 19.47 -6.31 C12.98 -5.4, 6.2 -6.32, 2.84 -5.04 C-0.51 -3.76, -0.13 0.24, -0.67 1.36 C-1.21 2.49, -0.78 1.99, -0.4 1.72" stroke="#0a11d3" stroke-width="1" fill="none"></path></g></g><mask></mask><g stroke-linecap="round"><g transform="translate(2063.742408828439 238.69058115565423) rotate(0 44.65138533064305 4.519262964205808)"><path d="M0.81 1.17 C1.09 2.14, -0.47 3.85, 1.58 4.77 C3.64 5.69, 9.13 5.94, 13.14 6.7 C17.15 7.45, 19.88 8.91, 25.64 9.29 C31.39 9.67, 40 9.09, 47.66 8.98 C55.32 8.87, 65.21 9.39, 71.6 8.64 C78 7.89, 83.41 6.14, 86.04 4.46 C88.67 2.78, 87.08 -0.56, 87.38 -1.45 M-0.23 0.74 C0.45 1.48, 1.73 1.93, 3.9 3.1 C6.07 4.27, 9.12 6.53, 12.78 7.76 C16.43 8.98, 20.19 10.22, 25.84 10.46 C31.5 10.69, 39.42 9.61, 46.73 9.18 C54.03 8.75, 62.93 8.81, 69.66 7.89 C76.38 6.96, 83.76 4.72, 87.07 3.63 C90.39 2.54, 89.11 1.75, 89.53 1.34" stroke="#0a11d3" stroke-width="1" fill="none"></path></g></g><mask></mask><g stroke-linecap="round"><g transform="translate(2062.648667316377 205.61642659358242) rotate(0 44.86973050286201 4.544224848997359)"><path d="M1.17 -0.75 C1.88 -0.1, 1.41 3.37, 3.19 4.68 C4.98 5.99, 8.1 6.19, 11.87 7.11 C15.65 8.03, 20.1 9.73, 25.83 10.2 C31.56 10.67, 38.64 10.14, 46.26 9.92 C53.89 9.69, 64.92 10.06, 71.59 8.83 C78.26 7.61, 83.64 4.19, 86.26 2.56 C88.88 0.93, 87.04 -0.38, 87.31 -0.93 M0.33 1.48 C1.05 1.71, 0.94 1.82, 2.7 2.97 C4.45 4.12, 6.95 7.52, 10.85 8.39 C14.76 9.25, 19.91 7.81, 26.14 8.18 C32.38 8.55, 41.01 10.61, 48.26 10.61 C55.51 10.61, 63.72 9.22, 69.63 8.19 C75.55 7.15, 80.46 6.01, 83.76 4.39 C87.06 2.77, 88.43 -0.41, 89.41 -1.52" stroke="#0a11d3" stroke-width="1" fill="none"></path></g></g><mask></mask><g stroke-linecap="round" transform="translate(2061.5278446302154 165.37575689776995) rotate(0 43.82537305427104 8.863351988406833)"><path d="M63.04 1.77 C71.39 2.53, 79.05 3.75, 83.04 5.16 C87.03 6.57, 89.44 8.53, 86.99 10.22 C84.53 11.91, 76.32 14.1, 68.31 15.28 C60.31 16.46, 48.13 17.47, 38.95 17.32 C29.77 17.17, 19.85 15.73, 13.23 14.37 C6.61 13.01, 0.02 10.91, -0.77 9.17 C-1.55 7.43, 2.88 5.39, 8.53 3.92 C14.18 2.45, 22.78 0.54, 33.14 0.34 C43.51 0.15, 63.66 2.17, 70.72 2.73 C77.78 3.3, 75.87 3.76, 75.48 3.71 M35.14 0.06 C43.28 -0.78, 54.35 -0.67, 62.29 0.39 C70.22 1.44, 78.79 4.33, 82.74 6.36 C86.7 8.39, 88.27 10.77, 86.02 12.56 C83.77 14.36, 76.99 16.45, 69.24 17.12 C61.49 17.79, 49.07 16.85, 39.53 16.57 C29.99 16.3, 18.7 16.87, 12.01 15.49 C5.33 14.1, 0.07 10.49, -0.56 8.26 C-1.18 6.03, 2.34 3.42, 8.27 2.09 C14.19 0.75, 30.63 0.62, 35.02 0.25 C39.41 -0.12, 34.56 -0.28, 34.59 -0.14" stroke="none" stroke-width="0" fill="#fff"></path><path d="M57.85 1.32 C66.5 1.87, 75.93 3.13, 80.9 4.71 C85.86 6.29, 88.83 9.13, 87.63 10.8 C86.42 12.47, 80.91 13.64, 73.66 14.73 C66.41 15.82, 53.7 17.19, 44.12 17.33 C34.54 17.47, 23.42 16.72, 16.17 15.57 C8.91 14.42, 2.41 12.41, 0.61 10.42 C-1.2 8.44, 0.84 5.39, 5.34 3.68 C9.84 1.97, 17.66 0.73, 27.62 0.17 C37.59 -0.39, 58.26 0.1, 65.13 0.31 C72 0.53, 69.25 1.19, 68.86 1.46 M48.55 0.84 C57.47 0.95, 69.35 2.11, 76.05 3.5 C82.75 4.89, 88.36 7.18, 88.75 9.17 C89.14 11.15, 83.86 14.26, 78.41 15.43 C72.96 16.59, 64.91 15.84, 56.04 16.16 C47.16 16.48, 33.6 17.82, 25.15 17.34 C16.71 16.87, 9.43 15.01, 5.38 13.34 C1.33 11.66, -1.35 9.39, 0.86 7.31 C3.06 5.22, 10.6 1.86, 18.61 0.82 C26.62 -0.23, 44.22 1.37, 48.92 1.04 C53.62 0.7, 46.91 -0.96, 46.83 -1.21" stroke="#0a11d3" stroke-width="1" fill="none"></path></g><g stroke-linecap="round" transform="translate(2133.0375769307966 189.95155977490347) rotate(0 6.423028523489847 6.970952181208048)"><path d="M4.61 0.04 C5.84 -0.57, 7.04 0.72, 8.06 1.13 C9.07 1.55, 10.03 1.59, 10.68 2.53 C11.33 3.47, 11.96 5.11, 11.95 6.77 C11.94 8.43, 11.55 11.43, 10.61 12.47 C9.67 13.51, 7.66 12.89, 6.28 13 C4.9 13.12, 3.33 13.78, 2.35 13.14 C1.37 12.51, 0.69 10.65, 0.41 9.19 C0.12 7.74, -0.32 6.06, 0.65 4.4 C1.62 2.75, 5.07 -0.14, 6.21 -0.74 C7.35 -1.34, 7.62 0.65, 7.47 0.82 M8.87 -0.59 C9.79 -0.54, 10.85 1.04, 11.65 2.61 C12.45 4.19, 13.71 6.99, 13.66 8.88 C13.61 10.77, 12.49 12.98, 11.34 13.95 C10.2 14.92, 8.56 15.02, 6.81 14.7 C5.06 14.39, 1.89 13.31, 0.85 12.03 C-0.18 10.75, 0.72 8.61, 0.57 7.05 C0.43 5.48, -0.45 3.57, -0.01 2.66 C0.42 1.74, 1.67 1.8, 3.18 1.57 C4.7 1.35, 8.18 1.35, 9.06 1.29 C9.94 1.23, 8.5 1.21, 8.45 1.21" stroke="none" stroke-width="0" fill="#fff"></path><path d="M5.99 -0.16 C7.34 -0.48, 8.78 0.4, 9.95 1.3 C11.12 2.2, 12.72 4.04, 13.02 5.22 C13.32 6.39, 12.35 7.11, 11.74 8.34 C11.14 9.56, 10.47 11.67, 9.39 12.55 C8.31 13.42, 6.59 13.75, 5.26 13.6 C3.93 13.45, 2.45 12.72, 1.42 11.62 C0.38 10.52, -0.87 8.34, -0.95 7.01 C-1.03 5.67, -0.24 4.89, 0.94 3.61 C2.13 2.33, 4.97 -0.25, 6.16 -0.66 C7.34 -1.06, 7.92 0.91, 8.06 1.17 M9.87 1.82 C11.16 2.39, 12.47 4.28, 13.11 5.21 C13.75 6.14, 13.96 6.02, 13.71 7.4 C13.47 8.79, 13.15 12.48, 11.64 13.54 C10.14 14.61, 6.22 13.86, 4.68 13.81 C3.13 13.76, 3.04 14.38, 2.39 13.25 C1.74 12.11, 0.85 8.73, 0.77 7.02 C0.68 5.3, 1.34 3.85, 1.86 2.93 C2.39 2.01, 2.54 2.01, 3.91 1.49 C5.27 0.98, 9.46 -0.23, 10.07 -0.16 C10.69 -0.09, 8.04 1.54, 7.6 1.92" stroke="#0a11d3" stroke-width="1" fill="none"></path></g><g stroke-linecap="round" transform="translate(2133.0375769307966 220.55401363396393) rotate(0 6.423028523489847 6.970952181208048)"><path d="M4.16 0.22 C5.47 -0.54, 8.78 -0.82, 10.05 -0.33 C11.33 0.16, 11.53 1.71, 11.83 3.17 C12.12 4.62, 12.03 6.95, 11.84 8.42 C11.65 9.89, 11.83 11.12, 10.68 11.97 C9.53 12.82, 6.33 13.49, 4.94 13.51 C3.54 13.52, 3.07 13.05, 2.32 12.07 C1.57 11.09, 0.55 8.98, 0.42 7.62 C0.29 6.25, 0.89 5.04, 1.53 3.88 C2.17 2.73, 3.49 1.3, 4.26 0.67 C5.02 0.05, 6.04 -0.02, 6.12 0.14 M7.92 0.08 C8.68 0.8, 10.09 3.37, 10.91 5.01 C11.73 6.65, 12.75 8.49, 12.84 9.91 C12.93 11.32, 12.48 13.03, 11.45 13.51 C10.43 14, 8.25 13, 6.67 12.82 C5.09 12.65, 3.17 13.52, 1.96 12.46 C0.75 11.4, -0.4 8.31, -0.61 6.49 C-0.81 4.66, -0.36 2.55, 0.75 1.51 C1.85 0.47, 4.54 0.49, 6.04 0.25 C7.55 0.02, 9.21 0.01, 9.79 0.09 C10.37 0.16, 9.68 0.65, 9.53 0.72" stroke="none" stroke-width="0" fill="#fff"></path><path d="M5.92 0.48 C7.28 0.31, 9.59 1.4, 10.86 2.12 C12.13 2.83, 13.46 3.48, 13.52 4.77 C13.59 6.07, 12.09 8.46, 11.25 9.87 C10.4 11.28, 9.63 12.63, 8.45 13.22 C7.26 13.81, 5.39 13.98, 4.15 13.39 C2.91 12.8, 1.69 11, 0.99 9.69 C0.28 8.38, -0.45 6.96, -0.09 5.53 C0.26 4.09, 2.05 2.07, 3.11 1.08 C4.18 0.09, 5.43 -0.31, 6.3 -0.42 C7.17 -0.52, 8.21 0.11, 8.34 0.44 M8.79 1.01 C10.16 1.23, 12.17 2.35, 12.64 3.6 C13.1 4.84, 11.62 7.39, 11.56 8.5 C11.49 9.6, 12.92 9.26, 12.22 10.23 C11.53 11.19, 8.67 13.71, 7.38 14.3 C6.09 14.88, 5.74 14.42, 4.46 13.72 C3.18 13.01, 0.42 11.71, -0.28 10.05 C-0.97 8.39, -0.5 5.11, 0.29 3.76 C1.09 2.4, 3.4 2.76, 4.49 1.91 C5.57 1.07, 6.1 -0.8, 6.81 -1.3 C7.52 -1.81, 8.49 -1.56, 8.73 -1.14" stroke="#0a11d3" stroke-width="1" fill="none"></path></g><g stroke-linecap="round" transform="translate(2133.0375769307966 253.8148148084606) rotate(0 6.423028523489847 6.970952181208048)"><path d="M7.84 1.08 C8.81 1.34, 9.86 1.42, 10.55 2.33 C11.24 3.24, 11.93 4.87, 11.96 6.53 C12 8.19, 11.67 11.22, 10.76 12.3 C9.85 13.37, 7.87 12.81, 6.5 12.98 C5.13 13.14, 3.54 13.87, 2.53 13.28 C1.53 12.69, 0.8 10.87, 0.47 9.42 C0.14 7.98, -0.1 6.21, 0.56 4.62 C1.22 3.04, 3.05 0.53, 4.41 -0.08 C5.78 -0.69, 8.08 0.92, 8.77 0.95 C9.45 0.97, 8.49 -0.06, 8.51 0.09 M8.81 -0.54 C10.21 0.26, 12.54 2.67, 13.36 4.49 C14.18 6.31, 14.15 8.85, 13.71 10.37 C13.28 11.89, 12.28 13.02, 10.74 13.62 C9.21 14.21, 5.93 14.37, 4.51 13.94 C3.09 13.52, 3.18 12.24, 2.24 11.06 C1.3 9.89, -0.71 8.06, -1.11 6.9 C-1.52 5.73, -1.19 5.06, -0.17 4.05 C0.85 3.05, 3.52 1.31, 5.02 0.85 C6.52 0.38, 8.11 1.23, 8.82 1.25 C9.52 1.26, 9.35 0.87, 9.27 0.94" stroke="none" stroke-width="0" fill="#fff"></path><path d="M7.23 0.47 C8.5 0.64, 10.62 1.88, 11.42 2.68 C12.22 3.48, 12.03 3.99, 12.02 5.28 C12.02 6.56, 12.07 9.05, 11.42 10.4 C10.76 11.75, 9.37 12.86, 8.08 13.37 C6.8 13.87, 5.11 13.98, 3.72 13.41 C2.33 12.85, 0.42 11.16, -0.25 9.99 C-0.92 8.81, -0.64 7.92, -0.29 6.38 C0.06 4.84, 0.63 1.68, 1.85 0.74 C3.07 -0.2, 5.96 0.77, 7.03 0.74 C8.11 0.71, 8.11 0.51, 8.31 0.58 M9.14 1.55 C10.46 1.45, 11.98 0.64, 12.84 1.82 C13.7 3.01, 14.82 6.98, 14.28 8.66 C13.74 10.34, 10.75 10.82, 9.59 11.91 C8.42 13, 8.32 15.21, 7.28 15.22 C6.24 15.22, 4.4 13.05, 3.34 11.93 C2.29 10.81, 1.5 9.64, 0.92 8.5 C0.35 7.36, -0.77 6.55, -0.11 5.1 C0.54 3.65, 3.7 0.41, 4.86 -0.19 C6.01 -0.8, 6.49 1.22, 6.82 1.45 C7.14 1.69, 6.53 1.1, 6.81 1.24" stroke="#0a11d3" stroke-width="1" fill="none"></path></g><g stroke-linecap="round"><g transform="translate(2081.3608652077637 867.7998537558005) rotate(0 43.995342141020956 48.5834704028635)" fill-rule="evenodd"><path d="M-1.23 -0.73 L-2.04 94.58 L-0.6 96.74 L20 105.52 L48.17 106.31 L73.93 102.79 L79.94 100.96 L88.27 98.11 L89.92 -1.59 L89.46 -2.23 L86.27 -1.39 L76.66 -5.11 L41.31 -8.72 L10.02 -6.67 L3.22 -5.04 L-1.83 0.28" stroke="none" stroke-width="0" fill="#228be6" fill-rule="evenodd"></path><path d="M-1.12 -0.03 C-1.36 14, -0.74 69.33, -0.66 85.35 C-0.59 101.36, -1.39 93.71, -0.68 96.04 C0.03 98.38, -0.08 98.11, 3.6 99.35 C7.29 100.58, 14.32 102.73, 21.43 103.47 C28.54 104.21, 37.82 104.01, 46.25 103.77 C54.69 103.53, 65.29 103.01, 72.04 102.05 C78.79 101.08, 83.94 99.15, 86.75 97.97 C89.56 96.78, 88.65 96.52, 88.89 94.93 C89.12 93.34, 88.14 102.91, 88.15 88.4 C88.16 73.89, 88.91 22.84, 88.94 7.89 C88.96 -7.05, 89.62 0.9, 88.27 -1.24 C86.92 -3.38, 83.88 -3.98, 80.82 -4.95 C77.76 -5.93, 76.15 -6.58, 69.91 -7.11 C63.68 -7.65, 51.65 -8.25, 43.4 -8.18 C35.15 -8.11, 26.85 -7.58, 20.42 -6.69 C13.99 -5.8, 8.44 -4.1, 4.84 -2.85 C1.23 -1.6, -0.21 0.39, -1.19 0.82 C-2.18 1.25, -1.32 -0.1, -1.08 -0.26 M0.49 -1.1 C0.56 13.59, 1.93 70.08, 1.55 86.51 C1.17 102.94, -2.12 95.2, -1.81 97.46 C-1.51 99.72, -0.37 99.01, 3.36 100.06 C7.08 101.11, 13.22 102.79, 20.54 103.76 C27.86 104.72, 38.63 105.84, 47.28 105.86 C55.93 105.88, 65.99 105.3, 72.46 103.86 C78.94 102.42, 83.57 98.96, 86.12 97.22 C88.66 95.48, 87.27 94.88, 87.73 93.43 C88.2 91.99, 88.56 103.19, 88.9 88.54 C89.24 73.9, 90.04 20.69, 89.77 5.57 C89.5 -9.54, 88.81 -0.21, 87.27 -2.14 C85.73 -4.07, 83.53 -5.11, 80.53 -5.98 C77.52 -6.85, 75.29 -6.97, 69.22 -7.35 C63.15 -7.73, 52.09 -8.07, 44.09 -8.26 C36.09 -8.45, 27.86 -8.98, 21.2 -8.49 C14.54 -8, 7.58 -7.01, 4.14 -5.32 C0.7 -3.63, 1.16 0.78, 0.58 1.64 C-0.01 2.51, 0.58 -0.14, 0.63 -0.13" stroke="#0a11d3" stroke-width="1" fill="none"></path></g></g><mask></mask><g stroke-linecap="round"><g transform="translate(2082.048226797261 933.0899817865882) rotate(0 44.12536859997704 4.693279446598751)"><path d="M-0.03 -0.95 C0.05 -0.23, -0.48 2.01, 1.62 3.21 C3.72 4.41, 8.66 5.06, 12.55 6.24 C16.45 7.42, 19.33 9.88, 24.97 10.28 C30.62 10.67, 38.92 9.05, 46.43 8.62 C53.94 8.18, 63.71 8.4, 70.03 7.67 C76.34 6.94, 81.42 5.43, 84.34 4.24 C87.26 3.06, 86.91 1.32, 87.53 0.54 M-1.51 1.16 C-1.14 2.12, 1.73 3.4, 3.96 4.38 C6.19 5.36, 8.41 6.41, 11.89 7.06 C15.37 7.72, 19.34 8.05, 24.83 8.31 C30.33 8.57, 37.18 8.94, 44.86 8.63 C52.54 8.31, 64.3 7.3, 70.91 6.41 C77.51 5.52, 81.34 4.24, 84.48 3.3 C87.62 2.35, 88.85 1.57, 89.76 0.71" stroke="#0a11d3" stroke-width="1" fill="none"></path></g></g><mask></mask><g stroke-linecap="round"><g transform="translate(2080.9544852851996 900.0158272245164) rotate(0 44.17014259210009 4.42725248504172)"><path d="M-0.95 -0.71 C-0.49 -0.02, -0.43 2.91, 1.63 4.1 C3.69 5.29, 7.22 5.63, 11.42 6.45 C15.62 7.26, 21.08 8.66, 26.82 8.97 C32.57 9.29, 38.6 8.64, 45.9 8.34 C53.2 8.03, 63.93 8.07, 70.62 7.13 C77.31 6.19, 82.93 4.02, 86.05 2.71 C89.16 1.41, 88.92 -0.33, 89.29 -0.67 M0.75 1.54 C1.7 1.84, 1.8 1.1, 3.98 2.08 C6.15 3.05, 10.48 6.06, 13.82 7.38 C17.16 8.69, 18.35 9.84, 23.99 9.97 C29.64 10.11, 39.73 8.32, 47.7 8.2 C55.67 8.08, 65.25 9.85, 71.81 9.25 C78.37 8.66, 84.26 6.35, 87.09 4.62 C89.91 2.89, 88.87 -0.34, 88.79 -1.13" stroke="#0a11d3" stroke-width="1" fill="none"></path></g></g><mask></mask><g stroke-linecap="round" transform="translate(2079.833662599038 859.7751575287039) rotate(0 43.82537305427104 8.863351988406805)"><path d="M58 0.7 C66.53 1.08, 76.33 2.53, 81.12 4.03 C85.91 5.53, 88.39 7.75, 86.73 9.7 C85.07 11.66, 78.45 14.36, 71.17 15.78 C63.89 17.2, 52.31 18.29, 43.08 18.23 C33.84 18.16, 22.81 16.81, 15.76 15.41 C8.72 14.01, 2.51 11.56, 0.78 9.83 C-0.94 8.1, 0.7 6.71, 5.41 5.01 C10.13 3.31, 19.51 0.47, 29.06 -0.37 C38.62 -1.2, 56.24 -0.33, 62.73 -0.02 C69.21 0.3, 68.37 1.23, 67.99 1.53 M30.77 -0.53 C38.97 -1.4, 50.19 -0.33, 58.9 0.29 C67.61 0.91, 78.45 1.71, 83.02 3.18 C87.59 4.66, 88.43 7.02, 86.31 9.12 C84.19 11.23, 77.54 14.25, 70.32 15.82 C63.09 17.39, 52.33 18.39, 42.94 18.56 C33.56 18.74, 21.17 18.06, 14.02 16.9 C6.87 15.73, 1.54 13.78, 0.04 11.55 C-1.46 9.33, 0.31 5.22, 5.03 3.53 C9.74 1.85, 24.31 1.74, 28.34 1.46 C32.37 1.18, 28.73 1.71, 29.21 1.85" stroke="none" stroke-width="0" fill="#fff"></path><path d="M48.27 -0.13 C57.23 -0.14, 67.52 0.48, 73.99 1.71 C80.46 2.94, 86.02 5.31, 87.11 7.24 C88.2 9.16, 85.67 11.59, 80.53 13.25 C75.39 14.92, 65.44 16.46, 56.28 17.23 C47.12 18, 34.1 18.54, 25.56 17.87 C17.02 17.2, 8.97 15.23, 5.05 13.23 C1.14 11.23, -0.02 7.86, 2.07 5.88 C4.16 3.89, 9.58 2.3, 17.61 1.32 C25.63 0.34, 44.26 0.05, 50.23 0.02 C56.2 -0.02, 53.62 0.8, 53.44 1.12 M63.65 -0.5 C71.73 0.46, 79.61 3.69, 83.33 5.49 C87.04 7.29, 88.45 8.73, 85.93 10.28 C83.42 11.84, 76.04 13.81, 68.22 14.8 C60.4 15.8, 48.48 16.27, 39.02 16.28 C29.56 16.29, 17.7 15.82, 11.46 14.86 C5.21 13.89, 1.92 12.15, 1.54 10.48 C1.17 8.81, 4.04 6.64, 9.21 4.84 C14.38 3.05, 23.67 0.33, 32.56 -0.28 C41.45 -0.88, 57.49 0.77, 62.55 1.22 C67.6 1.67, 63.24 2.08, 62.89 2.4" stroke="#0a11d3" stroke-width="1" fill="none"></path></g><g stroke-linecap="round" transform="translate(2151.343394899618 884.3509604058374) rotate(0 6.423028523489847 6.970952181208077)"><path d="M5.73 -0.54 C6.89 -0.74, 8.45 0.05, 9.47 0.8 C10.49 1.54, 11.36 2.61, 11.87 3.93 C12.37 5.25, 12.83 7.2, 12.51 8.74 C12.18 10.28, 11.2 12.3, 9.91 13.16 C8.63 14.01, 6.33 14.27, 4.8 13.88 C3.27 13.49, 1.45 11.98, 0.75 10.84 C0.04 9.7, 0.56 8.56, 0.56 7.04 C0.56 5.51, -0.18 2.71, 0.76 1.67 C1.7 0.62, 4.91 1.12, 6.23 0.79 C7.54 0.46, 8.49 -0.21, 8.65 -0.33 M4.53 -0.71 C5.63 -1.04, 8.43 1.02, 9.52 1.85 C10.62 2.69, 10.89 3.19, 11.12 4.32 C11.36 5.44, 11.19 7.14, 10.91 8.62 C10.64 10.09, 10.31 12.46, 9.48 13.16 C8.65 13.87, 7.05 13.25, 5.92 12.85 C4.8 12.45, 3.49 12.02, 2.72 10.78 C1.96 9.54, 1.64 7.05, 1.34 5.41 C1.04 3.77, 0.05 1.96, 0.92 0.94 C1.78 -0.08, 5.55 -0.6, 6.52 -0.71 C7.5 -0.82, 6.74 0.12, 6.76 0.28" stroke="none" stroke-width="0" fill="#fff"></path><path d="M3.81 -0.08 C4.94 -0.92, 6.31 -0.68, 7.52 -0.02 C8.72 0.63, 10.28 2.4, 11.05 3.86 C11.82 5.31, 12.22 7.33, 12.15 8.71 C12.07 10.08, 11.33 11.09, 10.58 12.1 C9.83 13.1, 8.9 14.57, 7.65 14.75 C6.4 14.93, 4.45 14.34, 3.07 13.16 C1.7 11.97, -0.15 9.21, -0.6 7.64 C-1.04 6.08, -0.46 4.9, 0.41 3.77 C1.28 2.63, 3.65 1.49, 4.63 0.83 C5.6 0.17, 6.03 -0.36, 6.23 -0.2 M7.26 0.1 C8.82 0.29, 11.55 2.06, 12.31 3.32 C13.07 4.57, 12.35 6.25, 11.83 7.63 C11.31 9, 10.34 10.71, 9.21 11.56 C8.07 12.41, 6.21 12.37, 5.02 12.73 C3.83 13.09, 2.73 14.28, 2.06 13.71 C1.39 13.14, 1.01 11.06, 0.99 9.33 C0.97 7.61, 1.52 4.83, 1.96 3.34 C2.4 1.85, 2.48 0.78, 3.65 0.41 C4.82 0.04, 7.93 1.13, 8.98 1.12 C10.03 1.11, 9.81 0.58, 9.96 0.33" stroke="#0a11d3" stroke-width="1" fill="none"></path></g><g stroke-linecap="round" transform="translate(2151.343394899618 914.9534142648979) rotate(0 6.423028523489847 6.970952181208077)"><path d="M7.12 -0.23 C8.49 -0.18, 10.38 0.72, 11.18 1.97 C11.98 3.23, 12.07 5.62, 11.93 7.31 C11.79 9, 11.11 11.06, 10.35 12.11 C9.59 13.15, 8.57 13.57, 7.37 13.61 C6.17 13.64, 4.39 12.96, 3.15 12.31 C1.9 11.66, 0.32 11.19, -0.07 9.72 C-0.47 8.25, 0.32 5.12, 0.79 3.49 C1.27 1.85, 1.34 0.41, 2.76 -0.11 C4.18 -0.63, 8.38 0.18, 9.32 0.35 C10.26 0.53, 8.67 0.89, 8.4 0.96 M7.35 -0.06 C8.59 0.17, 11.68 0.57, 12.5 1.6 C13.33 2.64, 12.73 4.43, 12.31 6.16 C11.89 7.89, 10.85 10.55, 9.96 11.98 C9.07 13.41, 8.34 14.42, 6.98 14.76 C5.61 15.1, 2.97 14.8, 1.76 14.02 C0.56 13.23, 0.14 11.86, -0.27 10.06 C-0.68 8.27, -1.13 4.65, -0.69 3.24 C-0.25 1.84, 1.04 1.92, 2.38 1.62 C3.72 1.32, 6.39 1.5, 7.35 1.46 C8.32 1.42, 8.15 1.25, 8.17 1.39" stroke="none" stroke-width="0" fill="#fff"></path><path d="M3.88 -0.52 C4.88 -1.13, 7.05 -0.87, 8.52 -0.27 C10 0.34, 11.91 1.67, 12.75 3.1 C13.58 4.53, 13.92 6.56, 13.52 8.29 C13.11 10.01, 11.41 12.41, 10.32 13.44 C9.23 14.48, 8.23 14.84, 6.97 14.5 C5.7 14.15, 4.04 12.52, 2.75 11.37 C1.46 10.21, -0.49 8.94, -0.78 7.57 C-1.06 6.2, -0.01 4.26, 1.02 3.15 C2.05 2.05, 4.79 1.28, 5.42 0.96 C6.06 0.64, 4.76 1.12, 4.83 1.22 M3.15 1.11 C4.06 0.45, 6.36 -0.8, 7.66 -0.75 C8.97 -0.7, 10.24 0.29, 10.98 1.39 C11.72 2.5, 12.26 4.2, 12.09 5.88 C11.92 7.56, 10.51 9.97, 9.94 11.45 C9.37 12.93, 9.62 14.36, 8.64 14.78 C7.67 15.19, 5.52 14.99, 4.11 13.95 C2.69 12.9, 0.74 10.03, 0.14 8.49 C-0.47 6.94, -0.2 5.71, 0.48 4.66 C1.15 3.61, 3.7 2.55, 4.17 2.17 C4.65 1.79, 3.61 2.4, 3.31 2.39" stroke="#0a11d3" stroke-width="1" fill="none"></path></g><g stroke-linecap="round" transform="translate(2151.343394899618 948.2142154393946) rotate(0 6.423028523489847 6.970952181208077)"><path d="M3.84 0.15 C4.9 -0.48, 6.56 -0.91, 7.94 -0.5 C9.32 -0.09, 11.23 1.16, 12.12 2.61 C13 4.06, 13.55 6.56, 13.25 8.19 C12.95 9.82, 11.53 11.51, 10.3 12.4 C9.06 13.29, 7.08 13.5, 5.84 13.54 C4.6 13.58, 3.96 13.65, 2.86 12.66 C1.75 11.66, -0.32 8.98, -0.81 7.57 C-1.3 6.17, -1.09 5.63, -0.09 4.24 C0.91 2.84, 4.11 -0.01, 5.17 -0.8 C6.24 -1.6, 6.33 -0.87, 6.32 -0.51 M8.35 1.23 C9.54 1.68, 10.11 2.01, 10.6 3.02 C11.09 4.02, 11.28 5.7, 11.28 7.25 C11.27 8.81, 11.24 11.42, 10.57 12.38 C9.89 13.33, 8.38 13.1, 7.22 13 C6.06 12.91, 4.59 12.83, 3.63 11.8 C2.66 10.77, 2 8.44, 1.42 6.82 C0.84 5.2, -0.49 3.28, 0.14 2.08 C0.78 0.88, 3.63 -0.11, 5.25 -0.37 C6.87 -0.63, 9.14 0.43, 9.87 0.51 C10.6 0.58, 9.63 0.05, 9.62 0.07" stroke="none" stroke-width="0" fill="#fff"></path><path d="M8.45 0.39 C9.55 1.15, 10.94 3.26, 11.52 4.82 C12.1 6.39, 12.23 8.45, 11.94 9.78 C11.65 11.1, 10.67 11.95, 9.78 12.77 C8.9 13.59, 7.88 14.77, 6.64 14.71 C5.4 14.65, 3.55 13.78, 2.32 12.42 C1.09 11.06, -0.51 8.16, -0.74 6.56 C-0.97 4.96, 0.01 3.81, 0.94 2.84 C1.87 1.87, 3.28 1.15, 4.85 0.77 C6.42 0.38, 9.38 0.29, 10.38 0.52 C11.38 0.75, 10.91 2.14, 10.85 2.15 M9.03 0.29 C10.35 0.67, 10.71 1.81, 11.11 3.02 C11.5 4.22, 11.72 6.17, 11.39 7.52 C11.05 8.88, 9.96 9.86, 9.08 11.16 C8.2 12.46, 7.09 14.96, 6.1 15.34 C5.11 15.71, 3.94 14.63, 3.12 13.4 C2.3 12.16, 1.65 9.6, 1.19 7.94 C0.72 6.27, -0.25 4.53, 0.34 3.39 C0.92 2.25, 3.05 1.62, 4.68 1.09 C6.3 0.57, 9.18 0.56, 10.09 0.23 C11 -0.09, 10.29 -1.15, 10.13 -0.83" stroke="#0a11d3" stroke-width="1" fill="none"></path></g><g stroke-linecap="round"><g transform="translate(2073.0880656763547 514.0050267213965) rotate(0 43.772721074279616 47.420438748440574)" fill-rule="evenodd"><path d="M1.86 1.19 L1.29 97.05 L1.07 97.6 L20.3 104.16 L47.92 106.63 L72.17 104.97 L78.81 101.89 L89.16 96.63 L88.88 -2.7 L87.84 -1.54 L84.61 -3.33 L75.85 -7.76 L42.99 -10.81 L12.22 -5.88 L3.26 -3.49 L-1.19 -0.8" stroke="none" stroke-width="0" fill="#228be6" fill-rule="evenodd"></path><path d="M-0.74 1.11 C-0.75 15.49, 0.14 69.6, 0.1 85.32 C0.05 101.04, -1.58 92.85, -1 95.43 C-0.41 98.02, 0.17 99.3, 3.59 100.84 C7.01 102.38, 12.35 104, 19.54 104.65 C26.74 105.3, 37.75 104.87, 46.76 104.76 C55.77 104.65, 66.94 104.85, 73.59 103.98 C80.24 103.11, 84.43 101.17, 86.67 99.53 C88.9 97.89, 86.81 96.19, 87 94.15 C87.19 92.11, 87.64 101.66, 87.79 87.28 C87.93 72.91, 87.76 22.6, 87.86 7.91 C87.96 -6.78, 89.2 1.07, 88.38 -0.84 C87.57 -2.74, 85.92 -2.29, 82.98 -3.51 C80.03 -4.73, 77.29 -7.06, 70.73 -8.17 C64.16 -9.27, 51.92 -10.25, 43.58 -10.16 C35.23 -10.06, 27.32 -8.54, 20.66 -7.59 C14 -6.63, 7.17 -5.5, 3.65 -4.42 C0.12 -3.34, 0.22 -1.68, -0.49 -1.13 C-1.19 -0.58, -0.52 -1.28, -0.6 -1.13 M1.08 0.65 C0.87 15.25, -1 70.5, -0.96 86.48 C-0.91 102.46, 0.65 94.5, 1.37 96.53 C2.08 98.56, 0.01 97.78, 3.34 98.68 C6.66 99.57, 13.87 101.06, 21.33 101.9 C28.78 102.74, 39.75 103.5, 48.06 103.71 C56.37 103.92, 64.85 103.83, 71.17 103.14 C77.5 102.46, 83.11 100.81, 86 99.6 C88.89 98.39, 88.12 98.03, 88.52 95.9 C88.91 93.78, 88.42 101.89, 88.35 86.84 C88.29 71.79, 88.29 20.32, 88.13 5.6 C87.98 -9.13, 88.77 0.04, 87.44 -1.52 C86.11 -3.08, 82.98 -3.15, 80.15 -3.78 C77.32 -4.41, 76.43 -4.66, 70.46 -5.3 C64.5 -5.94, 52.51 -7.47, 44.36 -7.62 C36.21 -7.77, 28.57 -6.79, 21.56 -6.2 C14.55 -5.6, 5.64 -4.87, 2.32 -4.06 C-0.99 -3.25, 1.82 -1.76, 1.66 -1.33 C1.5 -0.9, 1.8 -1.95, 1.36 -1.46" stroke="#0a11d3" stroke-width="1" fill="none"></path></g></g><mask></mask><g stroke-linecap="round"><g transform="translate(2073.775427265852 579.295154752184) rotate(0 44.66573646096185 3.716050464021066)"><path d="M1.11 -0.2 C1.53 0.41, -0.21 1.83, 1.6 2.9 C3.4 3.97, 7.8 5.31, 11.94 6.23 C16.09 7.15, 20.52 7.91, 26.47 8.39 C32.41 8.88, 40.19 8.99, 47.61 9.13 C55.04 9.27, 64.57 10.05, 71.01 9.22 C77.46 8.39, 83.25 5.93, 86.27 4.16 C89.28 2.4, 88.92 -0.52, 89.1 -1.35 M0.24 -1.34 C1.13 -0.56, 2.14 2.51, 3.93 3.9 C5.71 5.3, 7.09 6.18, 10.96 7.05 C14.82 7.91, 21.16 8.7, 27.11 9.09 C33.06 9.48, 39.11 9.46, 46.66 9.4 C54.21 9.35, 66.23 9.82, 72.41 8.78 C78.6 7.74, 81.09 5, 83.76 3.17 C86.44 1.35, 87.65 -1.84, 88.48 -2.16" stroke="#0a11d3" stroke-width="1" fill="none"></path></g></g><mask></mask><g stroke-linecap="round"><g transform="translate(2072.6816857537906 546.2210001901122) rotate(0 43.90644290217324 4.371016896453355)"><path d="M-0.2 -0.73 C0.15 -0.33, -0.62 2.04, 1.32 3.49 C3.25 4.93, 7.47 6.83, 11.41 7.94 C15.34 9.05, 19.1 9.92, 24.94 10.15 C30.77 10.38, 38.54 9.51, 46.41 9.33 C54.28 9.14, 65.58 9.9, 72.17 9.06 C78.77 8.22, 83.43 6.03, 85.97 4.28 C88.5 2.52, 87.08 -0.66, 87.41 -1.45 M-1.76 1.5 C-0.99 2.58, 0.91 4.06, 3.5 4.81 C6.09 5.55, 10.26 5.44, 13.8 5.99 C17.35 6.54, 19.61 7.49, 24.78 8.11 C29.95 8.73, 37.2 9.64, 44.82 9.71 C52.45 9.78, 63.5 9.59, 70.52 8.53 C77.55 7.47, 83.79 4.54, 86.96 3.34 C90.14 2.15, 89.11 2.2, 89.57 1.35" stroke="#0a11d3" stroke-width="1" fill="none"></path></g></g><mask></mask><g stroke-linecap="round" transform="translate(2071.560863067629 505.9803304942998) rotate(0 43.82537305427104 8.863351988406833)"><path d="M37.88 -0.78 C46.83 -0.99, 59.66 0.2, 67.56 1.37 C75.45 2.53, 82.53 4.49, 85.25 6.22 C87.97 7.96, 87.24 9.98, 83.86 11.79 C80.48 13.59, 73.29 16.18, 64.94 17.03 C56.6 17.88, 43.23 17.24, 33.79 16.91 C24.36 16.59, 13.97 16.61, 8.34 15.06 C2.7 13.51, -0.52 9.76, -0.02 7.62 C0.48 5.49, 4.49 3.45, 11.32 2.27 C18.15 1.1, 35.28 1.01, 40.97 0.55 C46.66 0.09, 45.46 -0.51, 45.47 -0.49 M53.81 -0.66 C62.81 -0.21, 74.09 2.27, 79.84 3.83 C85.59 5.4, 88.94 6.91, 88.31 8.72 C87.69 10.52, 82.67 13.39, 76.1 14.67 C69.53 15.95, 58.58 16.37, 48.87 16.38 C39.16 16.39, 25.6 15.75, 17.86 14.75 C10.13 13.74, 4.54 11.96, 2.45 10.36 C0.37 8.77, 1.37 6.84, 5.36 5.17 C9.35 3.5, 17.86 1.21, 26.41 0.33 C34.96 -0.56, 51.93 0.02, 56.67 -0.14 C61.41 -0.3, 55.51 -0.99, 54.87 -0.64" stroke="none" stroke-width="0" fill="#fff"></path><path d="M35.59 0.96 C44.39 0.42, 57.18 0.22, 65.58 1.17 C73.97 2.12, 82.63 4.75, 85.96 6.65 C89.29 8.55, 89.06 11.05, 85.56 12.56 C82.06 14.07, 73.25 14.87, 64.97 15.71 C56.69 16.55, 45.01 17.71, 35.87 17.61 C26.74 17.51, 16.01 16.66, 10.16 15.13 C4.31 13.6, 0.57 10.29, 0.75 8.45 C0.93 6.6, 4.87 5.6, 11.23 4.05 C17.6 2.49, 33.98 -0.09, 38.95 -0.88 C43.92 -1.67, 41.13 -1.04, 41.07 -0.69 M40.12 -0.73 C48.92 -1.06, 61.05 -0.93, 68.74 0.57 C76.43 2.06, 83.76 6.01, 86.27 8.25 C88.78 10.49, 87.82 12.59, 83.8 14.02 C79.77 15.46, 70.99 16.31, 62.11 16.86 C53.23 17.41, 39.61 17.74, 30.5 17.33 C21.4 16.92, 12.27 16.03, 7.47 14.41 C2.68 12.78, 0.39 9.82, 1.71 7.58 C3.02 5.34, 8.63 2.06, 15.37 0.97 C22.11 -0.11, 37.86 1.08, 42.15 1.05 C46.44 1.02, 41.36 0.78, 41.11 0.8" stroke="#0a11d3" stroke-width="1" fill="none"></path></g><g stroke-linecap="round" transform="translate(2143.07059536821 530.5561333714332) rotate(0 6.423028523489847 6.970952181208048)"><path d="M3.43 0.89 C4.79 0.27, 7.26 -0.16, 8.71 0.19 C10.16 0.53, 11.51 1.52, 12.12 2.96 C12.72 4.4, 12.55 7.4, 12.34 8.82 C12.12 10.23, 11.94 10.76, 10.83 11.45 C9.73 12.15, 7.04 12.87, 5.73 13 C4.42 13.12, 4.08 13.02, 2.98 12.21 C1.89 11.4, -0.38 9.67, -0.84 8.16 C-1.3 6.64, -0.8 4.35, 0.24 3.14 C1.29 1.93, 4.66 1.49, 5.42 0.91 C6.19 0.34, 4.94 -0.39, 4.84 -0.3 M2.55 0.8 C3.76 0.47, 6.57 0.46, 7.91 1.02 C9.26 1.58, 9.88 2.87, 10.62 4.15 C11.36 5.42, 12.5 7.54, 12.36 8.68 C12.22 9.82, 10.89 9.96, 9.8 11 C8.71 12.03, 7.11 14.38, 5.83 14.88 C4.55 15.38, 3.05 14.83, 2.14 14.02 C1.23 13.21, 0.7 11.4, 0.35 10.01 C0 8.61, -0.43 7.2, 0.02 5.63 C0.47 4.06, 2.66 1.58, 3.07 0.58 C3.47 -0.41, 2.2 -0.35, 2.45 -0.37" stroke="none" stroke-width="0" fill="#fff"></path><path d="M4.76 0.36 C5.83 -0.01, 7 0.69, 8.31 1.26 C9.62 1.83, 11.78 2.79, 12.64 3.76 C13.5 4.74, 13.9 5.77, 13.45 7.1 C13 8.44, 11.07 10.65, 9.95 11.77 C8.83 12.9, 7.89 13.61, 6.75 13.86 C5.61 14.1, 4.28 14, 3.11 13.27 C1.94 12.54, 0 10.94, -0.25 9.47 C-0.51 8.01, 0.98 5.87, 1.6 4.47 C2.21 3.08, 3.04 1.81, 3.43 1.08 C3.83 0.36, 3.75 0.16, 3.98 0.14 M3.74 -1.08 C4.85 -1.41, 6.03 -0.67, 7.66 0.29 C9.29 1.24, 12.48 3.09, 13.51 4.64 C14.54 6.18, 14.4 8.36, 13.84 9.57 C13.29 10.79, 11.47 11.14, 10.19 11.93 C8.9 12.72, 7.37 14.04, 6.13 14.31 C4.9 14.57, 3.84 14.33, 2.79 13.51 C1.74 12.68, 0.37 10.97, -0.16 9.37 C-0.7 7.77, -1.36 5.49, -0.41 3.91 C0.53 2.34, 4.6 0.67, 5.52 -0.08 C6.45 -0.83, 5.23 -0.62, 5.13 -0.59" stroke="#0a11d3" stroke-width="1" fill="none"></path></g><g stroke-linecap="round" transform="translate(2143.07059536821 561.1585872304937) rotate(0 6.423028523489847 6.970952181208048)"><path d="M4.08 0.74 C5.15 0.19, 6.53 0.01, 7.69 0.3 C8.84 0.58, 10.06 1.2, 11.01 2.45 C11.96 3.69, 13.53 6.31, 13.39 7.77 C13.25 9.22, 11.36 10.03, 10.15 11.17 C8.95 12.32, 7.4 14.53, 6.18 14.64 C4.95 14.76, 3.78 12.9, 2.81 11.84 C1.83 10.78, 0.73 9.46, 0.31 8.27 C-0.11 7.08, -0.46 6.1, 0.27 4.7 C0.99 3.3, 4.07 0.6, 4.67 -0.13 C5.27 -0.87, 3.86 0.24, 3.87 0.3 M5.39 0.14 C7.05 -0.19, 9.1 -0.65, 10.51 0.01 C11.91 0.68, 13.29 2.8, 13.83 4.15 C14.38 5.49, 14.61 6.83, 13.78 8.08 C12.95 9.33, 10.12 10.83, 8.87 11.66 C7.61 12.49, 7.29 13.08, 6.26 13.05 C5.23 13.03, 3.56 12.6, 2.69 11.49 C1.81 10.39, 0.97 8.02, 1.01 6.44 C1.05 4.86, 2.23 3.25, 2.92 2.01 C3.62 0.77, 4.98 -0.86, 5.17 -1.02 C5.37 -1.18, 4.22 0.7, 4.12 1.04" stroke="none" stroke-width="0" fill="#fff"></path><path d="M8.23 0.32 C9.76 0.68, 11.97 2.72, 12.82 4.1 C13.67 5.48, 13.82 7.4, 13.35 8.6 C12.87 9.81, 11.14 10.43, 9.97 11.32 C8.8 12.22, 7.59 13.67, 6.32 13.96 C5.06 14.24, 3.29 14.03, 2.39 13.04 C1.48 12.04, 1 9.41, 0.89 8 C0.78 6.59, 1.08 5.99, 1.72 4.58 C2.36 3.17, 3.43 0.38, 4.72 -0.45 C6.01 -1.29, 8.78 -0.67, 9.46 -0.43 C10.13 -0.2, 8.96 0.8, 8.78 0.95 M3.84 -1.09 C5.3 -1.08, 7.77 1.17, 9.35 2.3 C10.93 3.43, 12.63 4.54, 13.33 5.68 C14.04 6.82, 14.28 7.93, 13.58 9.15 C12.88 10.36, 10.42 12.06, 9.11 12.96 C7.81 13.86, 6.76 14.83, 5.73 14.55 C4.7 14.27, 3.64 12.77, 2.93 11.28 C2.22 9.79, 1.61 6.9, 1.48 5.61 C1.35 4.33, 1.59 4.39, 2.15 3.57 C2.71 2.76, 4.5 1.24, 4.85 0.73 C5.2 0.22, 4.29 0.6, 4.23 0.52" stroke="#0a11d3" stroke-width="1" fill="none"></path></g><g stroke-linecap="round" transform="translate(2143.07059536821 594.4193884049904) rotate(0 6.423028523489847 6.970952181208048)"><path d="M6.88 -0.24 C8.35 -0.42, 10.06 0.18, 10.98 1.36 C11.9 2.53, 12.22 5.36, 12.41 6.79 C12.6 8.23, 12.9 8.97, 12.09 9.96 C11.29 10.94, 8.84 12.17, 7.58 12.73 C6.33 13.28, 5.87 13.73, 4.56 13.29 C3.25 12.85, 0.56 11.47, -0.27 10.09 C-1.11 8.71, -1.04 6.35, -0.47 5.01 C0.11 3.67, 2.03 2.96, 3.18 2.05 C4.34 1.13, 5.8 -0.26, 6.46 -0.47 C7.12 -0.69, 7.22 0.6, 7.16 0.75 M3.45 1.65 C4.57 1.13, 5.57 1.12, 6.83 1.52 C8.09 1.91, 10.23 3.19, 11.01 4.02 C11.8 4.85, 11.73 5.05, 11.53 6.49 C11.33 7.92, 10.66 11.2, 9.83 12.63 C8.99 14.06, 7.66 14.87, 6.53 15.08 C5.41 15.29, 4.2 14.65, 3.08 13.89 C1.97 13.12, 0.33 12.13, -0.18 10.51 C-0.69 8.9, -0.39 6.01, 0.02 4.18 C0.43 2.36, 1.59 0.25, 2.29 -0.43 C3 -1.12, 4 -0.24, 4.27 0.06" stroke="none" stroke-width="0" fill="#fff"></path><path d="M4.37 1.31 C5.58 0.9, 8.2 0.78, 9.6 1.05 C10.99 1.32, 12.34 1.73, 12.73 2.9 C13.11 4.07, 12.27 6.47, 11.88 8.05 C11.5 9.62, 11.28 11.24, 10.44 12.35 C9.59 13.46, 8.27 14.56, 6.82 14.69 C5.38 14.82, 2.73 14.15, 1.75 13.15 C0.77 12.15, 1.25 10.21, 0.95 8.69 C0.66 7.18, -0.57 5.51, -0.01 4.05 C0.56 2.58, 3.29 0.57, 4.35 -0.1 C5.41 -0.76, 6.28 -0.05, 6.35 0.04 M2.43 0.45 C3.92 0.14, 7.67 0.52, 9.4 1.11 C11.13 1.7, 12.24 3.04, 12.78 4 C13.33 4.97, 12.97 5.56, 12.67 6.92 C12.38 8.29, 11.82 10.81, 11 12.21 C10.19 13.6, 9.17 14.96, 7.77 15.3 C6.37 15.63, 4.08 15.17, 2.59 14.21 C1.1 13.25, -1.01 11.29, -1.18 9.54 C-1.34 7.79, 0.7 5.35, 1.61 3.7 C2.51 2.05, 3.86 0.27, 4.25 -0.36 C4.64 -0.99, 4.11 -0.29, 3.96 -0.08" stroke="#0a11d3" stroke-width="1" fill="none"></path></g><g stroke-linecap="round"><g transform="translate(1881.544109463726 199.48733731292435) rotate(0 83.88876148510212 0)"><path d="M0 0 C27.96 0, 139.81 0, 167.78 0 M0 0 C27.96 0, 139.81 0, 167.78 0" stroke="#000000" stroke-width="2" fill="none"></path></g><g transform="translate(1881.544109463726 199.48733731292435) rotate(0 83.88876148510212 0)"><path d="M139.59 10.26 C149.07 6.81, 158.56 3.36, 167.78 0 M139.59 10.26 C149.28 6.73, 158.97 3.21, 167.78 0" stroke="#000000" stroke-width="2" fill="none"></path></g><g transform="translate(1881.544109463726 199.48733731292435) rotate(0 83.88876148510212 0)"><path d="M139.59 -10.26 C149.07 -6.81, 158.56 -3.36, 167.78 0 M139.59 -10.26 C149.28 -6.73, 158.97 -3.21, 167.78 0" stroke="#000000" stroke-width="2" fill="none"></path></g></g><mask></mask><g stroke-linecap="round"><g transform="translate(2052.6439596214595 227.72711840691926) rotate(0 -83.88876148510235 0)"><path d="M0 0 C-27.96 0, -139.81 0, -167.78 0 M0 0 C-27.96 0, -139.81 0, -167.78 0" stroke="#000000" stroke-width="2" fill="none"></path></g><g transform="translate(2052.6439596214595 227.72711840691926) rotate(0 -83.88876148510235 0)"><path d="M-139.59 -10.26 C-145.39 -8.15, -151.2 -6.03, -167.78 0 M-139.59 -10.26 C-147.6 -7.34, -155.61 -4.43, -167.78 0" stroke="#000000" stroke-width="2" fill="none"></path></g><g transform="translate(2052.6439596214595 227.72711840691926) rotate(0 -83.88876148510235 0)"><path d="M-139.59 10.26 C-145.39 8.15, -151.2 6.03, -167.78 0 M-139.59 10.26 C-147.6 7.34, -155.61 4.43, -167.78 0" stroke="#000000" stroke-width="2" fill="none"></path></g></g><mask></mask><g stroke-linecap="round"><g transform="translate(1894.0028364169586 554.1457645816242) rotate(0 83.88876148510212 0)"><path d="M0 0 C27.96 0, 139.81 0, 167.78 0 M0 0 C27.96 0, 139.81 0, 167.78 0" stroke="#000000" stroke-width="2" fill="none"></path></g><g transform="translate(1894.0028364169586 554.1457645816242) rotate(0 83.88876148510212 0)"><path d="M139.59 10.26 C146.39 7.78, 153.2 5.31, 167.78 0 M139.59 10.26 C145.54 8.09, 151.5 5.93, 167.78 0" stroke="#000000" stroke-width="2" fill="none"></path></g><g transform="translate(1894.0028364169586 554.1457645816242) rotate(0 83.88876148510212 0)"><path d="M139.59 -10.26 C146.39 -7.78, 153.2 -5.31, 167.78 0 M139.59 -10.26 C145.54 -8.09, 151.5 -5.93, 167.78 0" stroke="#000000" stroke-width="2" fill="none"></path></g></g><mask></mask><g stroke-linecap="round"><g transform="translate(2065.1026865746926 582.3855456756191) rotate(0 -83.88876148510235 0)"><path d="M0 0 C-27.96 0, -139.81 0, -167.78 0 M0 0 C-27.96 0, -139.81 0, -167.78 0" stroke="#000000" stroke-width="2" fill="none"></path></g><g transform="translate(2065.1026865746926 582.3855456756191) rotate(0 -83.88876148510235 0)"><path d="M-139.59 -10.26 C-150.46 -6.3, -161.32 -2.35, -167.78 0 M-139.59 -10.26 C-149.78 -6.55, -159.97 -2.84, -167.78 0" stroke="#000000" stroke-width="2" fill="none"></path></g><g transform="translate(2065.1026865746926 582.3855456756191) rotate(0 -83.88876148510235 0)"><path d="M-139.59 10.26 C-150.46 6.3, -161.32 2.35, -167.78 0 M-139.59 10.26 C-149.78 6.55, -159.97 2.84, -167.78 0" stroke="#000000" stroke-width="2" fill="none"></path></g></g><mask></mask><g stroke-linecap="round"><g transform="translate(1900.6474907920167 899.66779208462) rotate(0 83.88876148510212 0)"><path d="M0 0 C27.96 0, 139.81 0, 167.78 0 M0 0 C27.96 0, 139.81 0, 167.78 0" stroke="#000000" stroke-width="2" fill="none"></path></g><g transform="translate(1900.6474907920167 899.66779208462) rotate(0 83.88876148510212 0)"><path d="M139.59 10.26 C147.89 7.24, 156.2 4.22, 167.78 0 M139.59 10.26 C147.37 7.43, 155.16 4.59, 167.78 0" stroke="#000000" stroke-width="2" fill="none"></path></g><g transform="translate(1900.6474907920167 899.66779208462) rotate(0 83.88876148510212 0)"><path d="M139.59 -10.26 C147.89 -7.24, 156.2 -4.22, 167.78 0 M139.59 -10.26 C147.37 -7.43, 155.16 -4.59, 167.78 0" stroke="#000000" stroke-width="2" fill="none"></path></g></g><mask></mask><g stroke-linecap="round"><g transform="translate(2071.7473409497497 927.9075731786149) rotate(0 -83.88876148510235 0)"><path d="M0 0 C-27.96 0, -139.81 0, -167.78 0 M0 0 C-27.96 0, -139.81 0, -167.78 0" stroke="#000000" stroke-width="2" fill="none"></path></g><g transform="translate(2071.7473409497497 927.9075731786149) rotate(0 -83.88876148510235 0)"><path d="M-139.59 -10.26 C-149.32 -6.72, -159.06 -3.17, -167.78 0 M-139.59 -10.26 C-145.6 -8.07, -151.62 -5.88, -167.78 0" stroke="#000000" stroke-width="2" fill="none"></path></g><g transform="translate(2071.7473409497497 927.9075731786149) rotate(0 -83.88876148510235 0)"><path d="M-139.59 10.26 C-149.32 6.72, -159.06 3.17, -167.78 0 M-139.59 10.26 C-145.6 8.07, -151.62 5.88, -167.78 0" stroke="#000000" stroke-width="2" fill="none"></path></g></g><mask></mask><g transform="translate(433.3256344364895 493.6229683578435) rotate(0 147.5 16)"><text x="0" y="26" font-family="Helvetica, Segoe UI Emoji" font-size="28px" fill="#000000" text-anchor="start" style="white-space: pre;" direction="ltr">GET - /api/publication/1</text></g><g transform="translate(407.42858397656096 589.242846979118) rotate(0 9 48)"><text x="0" y="26" font-family="Helvetica, Segoe UI Emoji" font-size="28px" fill="#000000" text-anchor="start" style="white-space: pre;" direction="ltr">3</text><text x="0" y="58" font-family="Helvetica, Segoe UI Emoji" font-size="28px" fill="#000000" text-anchor="start" style="white-space: pre;" direction="ltr">2</text><text x="0" y="90" font-family="Helvetica, Segoe UI Emoji" font-size="28px" fill="#000000" text-anchor="start" style="white-space: pre;" direction="ltr">2</text></g><g transform="translate(612.3258169632807 622.9005356815496) rotate(0 67 16)"><text x="67" y="26" font-family="Helvetica, Segoe UI Emoji" font-size="28px" fill="#000000" text-anchor="middle" style="white-space: pre;" direction="ltr">3 Seconds</text></g><g stroke-linecap="round"><g transform="translate(430.9853932031567 594.8800192568863) rotate(0 0.5543313030359514 41.57484772769931)"><path d="M0 0 C0.18 13.86, 0.92 69.29, 1.11 83.15 M0 0 C0.18 13.86, 0.92 69.29, 1.11 83.15" stroke="#000000" stroke-width="2" fill="none"></path></g></g><mask></mask><g stroke-linecap="round"><g transform="translate(434.3113810213729 638.1178608936937) rotate(0 28.27089645483545 0.5543313030359514)"><path d="M0 0 C9.42 0.18, 47.12 0.92, 56.54 1.11 M0 0 C9.42 0.18, 47.12 0.92, 56.54 1.11" stroke="#000000" stroke-width="2" fill="none"></path></g><g transform="translate(434.3113810213729 638.1178608936937) rotate(0 28.27089645483545 0.5543313030359514)"><path d="M29.79 10.26 C37.41 7.65, 45.04 5.04, 56.54 1.11 M29.79 10.26 C35.48 8.31, 41.18 6.36, 56.54 1.11" stroke="#000000" stroke-width="2" fill="none"></path></g><g transform="translate(434.3113810213729 638.1178608936937) rotate(0 28.27089645483545 0.5543313030359514)"><path d="M30.17 -9.08 C37.68 -6.18, 45.2 -3.27, 56.54 1.11 M30.17 -9.08 C35.78 -6.91, 41.39 -4.74, 56.54 1.11" stroke="#000000" stroke-width="2" fill="none"></path></g></g><mask></mask><g transform="translate(500.1996781739231 621.7918730754777) rotate(0 35 16)"><text x="35" y="26" font-family="Helvetica, Segoe UI Emoji" font-size="28px" fill="#000000" text-anchor="middle" style="white-space: pre;" direction="ltr">max?</text></g><g stroke-linecap="round"><g transform="translate(575.1115319925143 639.2265234997656) rotate(0 13.303951272863856 0.5543313030360082)"><path d="M0 0 C4.43 0.18, 22.17 0.92, 26.61 1.11 M0 0 C4.43 0.18, 22.17 0.92, 26.61 1.11" stroke="#000000" stroke-width="2" fill="none"></path></g><g transform="translate(575.1115319925143 639.2265234997656) rotate(0 13.303951272863856 0.5543313030360082)"><path d="M13.92 5.14 C17.91 3.87, 21.9 2.6, 26.61 1.11 M13.92 5.14 C17.14 4.11, 20.36 3.09, 26.61 1.11" stroke="#000000" stroke-width="2" fill="none"></path></g><g transform="translate(575.1115319925143 639.2265234997656) rotate(0 13.303951272863856 0.5543313030360082)"><path d="M14.3 -3.96 C18.17 -2.37, 22.04 -0.77, 26.61 1.11 M14.3 -3.96 C17.42 -2.67, 20.55 -1.39, 26.61 1.11" stroke="#000000" stroke-width="2" fill="none"></path></g></g><mask></mask></svg>